<svg xmlns="http://www.w3.org/2000/svg" width="1024" height="786"><path d="M-43.28 309.93 L-43.28 309.93 L-104.27 196.20 L3.20 285.60 L-6.73 317.45 L-106.06 313.29 L-59.41 337.91 Z" fill="#5c9bd7" stroke="#5c9bd7"/><path d="M-23.47 -118.30 L-23.47 -118.30 L58.94 -114.83 L151.53 -80.19 L95.26 41.27 L40.67 25.38 L-34.16 -26.07 Z" fill="#6aacdf" stroke="#6aacdf"/><path d="M-30.49 76.97 L-30.49 76.97 L46.97 82.25 L138.62 160.86 L143.32 201.97 L66.99 204.42 L-25.57 142.91 Z" fill="#70a8da" stroke="#70a8da"/><path d="M3.20 285.60 L3.20 285.60 L87.68 269.54 L171.87 322.06 L154.69 346.08 L73.04 342.77 L-6.73 317.45 Z" fill="#5ca3de" stroke="#5ca3de"/><path d="M-25.63 406.58 L-25.63 406.58 L59.83 383.59 L129.58 419.07 L124.14 481.91 L40.09 518.09 L-31.65 475.55 Z" fill="#60b5e6" stroke="#60b5e6"/><path d="M-40.59 635.31 L-40.59 635.31 L29.01 606.71 L93.63 671.79 L100.44 729.14 L49.59 734.28 L-31.10 678.32 Z" fill="#6caad9" stroke="#6caad9"/><path d="M-36.62 823.36 L-36.62 823.36 L39.63 818.04 L82.62 897.18 L86.64 952.20 L38.30 963.66 L-38.81 891.21 Z" fill="#65b3de" stroke="#65b3de"/><path d="M151.53 -80.19 L151.53 -80.19 L207.95 -87.02 L284.28 -82.26 L238.10 114.56 L181.90 118.82 L95.26 41.27 Z" fill="#3684e8" stroke="#3684e8"/><path d="M138.62 160.86 L138.62 160.86 L215.47 142.72 L290.50 147.20 L323.99 196.56 L234.46 234.12 L143.32 201.97 Z" fill="#5da7e5" stroke="#5da7e5"/><path d="M171.87 322.06 L171.87 322.06 L238.70 289.68 L302.84 326.80 L280.82 362.42 L210.30 362.54 L154.69 346.08 Z" fill="#51a6e8" stroke="#51a6e8"/><path d="M129.58 419.07 L129.58 419.07 L201.27 414.87 L270.38 451.13 L279.28 519.53 L189.40 543.12 L124.14 481.91 Z" fill="#49a5ea" stroke="#49a5ea"/><path d="M93.63 671.79 L93.63 671.79 L167.99 620.95 L236.36 702.53 L230.39 759.85 L162.01 766.54 L100.44 729.14 Z" fill="#5f92de" stroke="#5f92de"/><path d="M82.62 897.18 L82.62 897.18 L149.37 848.40 L215.89 892.77 L227.44 968.96 L173.63 998.27 L86.64 952.20 Z" fill="#51c6fd" stroke="#51c6fd"/><path d="M284.28 -82.26 L284.28 -82.26 L339.07 -120.23 L413.11 -87.80 L385.44 104.18 L318.31 126.09 L238.10 114.56 Z" fill="#4094dc" stroke="#4094dc"/><path d="M290.50 147.20 L290.50 147.20 L332.10 141.18 L420.95 169.82 L446.90 221.11 L403.46 235.79 L323.99 196.56 Z" fill="#549cda" stroke="#549cda"/><path d="M302.84 326.80 L302.84 326.80 L375.96 296.63 L406.25 303.04 L385.02 357.65 L323.11 397.55 L280.82 362.42 Z" fill="#5d91d8" stroke="#5d91d8"/><path d="M270.38 451.13 L270.38 451.13 L321.64 429.46 L379.98 476.13 L394.55 543.17 L338.49 574.36 L279.28 519.53 Z" fill="#42a9ed" stroke="#42a9ed"/><path d="M236.36 702.53 L236.36 702.53 L322.14 680.89 L397.87 699.12 L383.22 780.53 L295.87 824.24 L230.39 759.85 Z" fill="#4d90d9" stroke="#4d90d9"/><path d="M215.89 892.77 L215.89 892.77 L292.75 864.59 L369.61 885.68 L381.06 951.69 L323.72 1017.78 L227.44 968.96 Z" fill="#63a7ec" stroke="#63a7ec"/><path d="M413.11 -87.80 L413.11 -87.80 L472.93 -104.04 L531.11 -42.49 L528.20 76.17 L461.91 127.05 L385.44 104.18 Z" fill="#47a5d4" stroke="#47a5d4"/><path d="M420.95 169.82 L420.95 169.82 L471.96 173.86 L527.38 220.80 L542.16 247.47 L488.38 262.98 L446.90 221.11 Z" fill="#4c9dd3" stroke="#4c9dd3"/><path d="M406.25 303.04 L406.25 303.04 L468.44 277.63 L518.57 263.31 L517.60 322.06 L432.85 380.95 L385.02 357.65 Z" fill="#5a9bd5" stroke="#5a9bd5"/><path d="M379.98 476.13 L379.98 476.13 L431.22 459.46 L519.59 533.25 L521.28 586.92 L456.76 596.84 L394.55 543.17 Z" fill="#3eb4f7" stroke="#3eb4f7"/><path d="M397.87 699.12 L397.87 699.12 L470.64 649.74 L517.79 683.18 L505.47 765.52 L445.92 821.19 L383.22 780.53 Z" fill="#4d9be5" stroke="#4d9be5"/><path d="M369.61 885.68 L369.61 885.68 L440.85 865.67 L488.53 905.58 L498.41 948.18 L465.70 978.12 L381.06 951.69 Z" fill="#4e81d8" stroke="#4e81d8"/><path d="M531.11 -42.49 L531.11 -42.49 L597.12 -57.23 L640.63 -19.94 L651.18 163.46 L582.89 171.99 L528.20 76.17 Z" fill="#509bd4" stroke="#509bd4"/><path d="M527.38 220.80 L527.38 220.80 L568.38 213.83 L628.83 238.58 L636.88 250.62 L591.53 246.47 L542.16 247.47 Z" fill="#47a9e3" stroke="#47a9e3"/><path d="M518.57 263.31 L518.57 263.31 L584.60 263.65 L643.51 304.62 L674.68 372.24 L603.83 377.78 L517.60 322.06 Z" fill="#57abe2" stroke="#57abe2"/><path d="M519.59 533.25 L519.59 533.25 L607.33 480.70 L688.61 567.39 L667.27 631.80 L584.42 629.97 L521.28 586.92 Z" fill="#3a97f1" stroke="#3a97f1"/><path d="M517.79 683.18 L517.79 683.18 L567.79 708.01 L596.81 807.10 L609.18 839.43 L553.79 824.88 L505.47 765.52 Z" fill="#3b99e5" stroke="#3b99e5"/><path d="M488.53 905.58 L488.53 905.58 L547.02 887.16 L608.87 937.15 L619.07 982.41 L571.53 997.54 L498.41 948.18 Z" fill="#4c98f1" stroke="#4c98f1"/><path d="M640.63 -19.94 L640.63 -19.94 L715.43 -60.96 L795.90 -71.77 L758.77 148.14 L697.29 190.11 L651.18 163.46 Z" fill="#62abef" stroke="#62abef"/><path d="M628.83 238.58 L628.83 238.58 L686.23 224.31 L772.31 196.18 L788.93 217.99 L702.03 275.93 L636.88 250.62 Z" fill="#559ff3" stroke="#559ff3"/><path d="M643.51 304.62 L643.51 304.62 L712.36 316.54 L820.59 290.02 L840.97 383.85 L778.99 472.36 L674.68 372.24 Z" fill="#4997df" stroke="#4997df"/><path d="M688.61 567.39 L688.61 567.39 L784.75 554.42 L840.12 605.58 L816.68 679.62 L710.88 718.23 L667.27 631.80 Z" fill="#6296d7" stroke="#6296d7"/><path d="M596.81 807.10 L596.81 807.10 L658.36 798.06 L731.99 840.92 L744.37 855.99 L681.20 905.82 L609.18 839.43 Z" fill="#60a4f5" stroke="#60a4f5"/><path d="M608.87 937.15 L608.87 937.15 L679.40 933.53 L745.02 927.63 L753.13 989.84 L704.22 1011.43 L619.07 982.41 Z" fill="#61a8f8" stroke="#61a8f8"/><path d="M795.90 -71.77 L795.90 -71.77 L880.98 -104.04 L987.24 -115.10 L893.20 82.05 L825.48 126.36 L758.77 148.14 Z" fill="#6cb9f1" stroke="#6cb9f1"/><path d="M772.31 196.18 L772.31 196.18 L839.59 142.16 L924.54 111.97 L936.98 142.80 L883.18 192.87 L788.93 217.99 Z" fill="#63aafd" stroke="#63aafd"/><path d="M820.59 290.02 L820.59 290.02 L900.14 234.61 L970.12 259.77 L998.76 343.91 L930.46 420.23 L840.97 383.85 Z" fill="#4887f4" stroke="#4887f4"/><path d="M840.12 605.58 L840.12 605.58 L927.53 530.50 L1010.05 567.02 L991.40 660.36 L876.20 718.70 L816.68 679.62 Z" fill="#6387ee" stroke="#6387ee"/><path d="M731.99 840.92 L731.99 840.92 L838.90 783.82 L946.26 783.83 L930.81 842.97 L828.82 854.31 L744.37 855.99 Z" fill="#62aaeb" stroke="#62aaeb"/><path d="M745.02 927.63 L745.02 927.63 L819.58 891.25 L878.81 911.32 L873.32 955.59 L831.17 1014.88 L753.13 989.84 Z" fill="#518fe4" stroke="#518fe4"/><path d="M987.24 -115.10 L987.24 -115.10 L1055.61 -125.86 L1095.98 -95.60 L1032.76 20.96 L975.10 84.24 L893.20 82.05 Z" fill="#63b1db" stroke="#63b1db"/><path d="M924.54 111.97 L924.54 111.97 L988.99 101.76 L1043.98 106.15 L1038.63 152.84 L1001.59 179.47 L936.98 142.80 Z" fill="#6cb7e6" stroke="#6cb7e6"/><path d="M970.12 259.77 L970.12 259.77 L1018.01 213.38 L1078.66 214.14 L1104.80 299.31 L1085.36 372.05 L998.76 343.91 Z" fill="#7bb3e5" stroke="#7bb3e5"/><path d="M1010.05 567.02 L1010.05 567.02 L1095.07 489.04 L1123.63 550.50 L1114.77 609.92 L1063.27 680.79 L991.40 660.36 Z" fill="#5891ff" stroke="#5891ff"/><path d="M946.26 783.83 L946.26 783.83 L1051.91 732.29 L1081.47 723.10 L1045.32 792.50 L995.07 856.39 L930.81 842.97 Z" fill="#3b8eeb" stroke="#3b8eeb"/><path d="M878.81 911.32 L878.81 911.32 L960.69 911.32 L992.38 959.65 L983.72 1014.56 L941.63 1019.95 L873.32 955.59 Z" fill="#3f90e1" stroke="#3f90e1"/><path d="M992.38 959.65 L992.38 959.65 L1049.14 903.04 L1082.72 950.16 L1064.12 1026.56 L1029.02 1056.91 L983.72 1014.56 Z" fill="#4b8cff" stroke="#4b8cff"/><path d="M-110.50 -50.36 L-110.50 -50.36 L-34.16 -26.07 L40.67 25.38 L46.97 82.25 L-30.49 76.97 L-110.32 6.56 Z" fill="#54a7f2" stroke="#54a7f2"/><path d="M-107.34 135.99 L-107.34 135.99 L-25.57 142.91 L66.99 204.42 L87.68 269.54 L3.20 285.60 L-104.27 196.20 Z" fill="#638ed3" stroke="#638ed3"/><path d="M-106.06 313.29 L-106.06 313.29 L-6.73 317.45 L73.04 342.77 L59.83 383.59 L-25.63 406.58 L-107.93 369.33 Z" fill="#56b8f4" stroke="#56b8f4"/><path d="M-110.70 498.52 L-110.70 498.52 L-31.65 475.55 L40.09 518.09 L29.01 606.71 L-40.59 635.31 L-111.98 560.70 Z" fill="#5ba8ec" stroke="#5ba8ec"/><path d="M-108.67 683.97 L-108.67 683.97 L-31.10 678.32 L49.59 734.28 L39.63 818.04 L-36.62 823.36 L-109.93 746.41 Z" fill="#5f8fd5" stroke="#5f8fd5"/><path d="M-110.65 877.99 L-110.65 877.99 L-38.81 891.21 L38.30 963.66 L53.40 1041.59 L-26.34 1031.96 L-109.20 938.92 Z" fill="#4fb9f0" stroke="#4fb9f0"/><path d="M40.67 25.38 L40.67 25.38 L95.26 41.27 L181.90 118.82 L215.47 142.72 L138.62 160.86 L46.97 82.25 Z" fill="#70a6ea" stroke="#70a6ea"/><path d="M66.99 204.42 L66.99 204.42 L143.32 201.97 L234.46 234.12 L238.70 289.68 L171.87 322.06 L87.68 269.54 Z" fill="#4c78cb" stroke="#4c78cb"/><path d="M73.04 342.77 L73.04 342.77 L154.69 346.08 L210.30 362.54 L201.27 414.87 L129.58 419.07 L59.83 383.59 Z" fill="#53cbff" stroke="#53cbff"/><path d="M40.09 518.09 L40.09 518.09 L124.14 481.91 L189.40 543.12 L167.99 620.95 L93.63 671.79 L29.01 606.71 Z" fill="#61a6ee" stroke="#61a6ee"/><path d="M49.59 734.28 L49.59 734.28 L100.44 729.14 L162.01 766.54 L149.37 848.40 L82.62 897.18 L39.63 818.04 Z" fill="#5992d7" stroke="#5992d7"/><path d="M38.30 963.66 L38.30 963.66 L86.64 952.20 L173.63 998.27 L215.13 1053.46 L144.30 1103.36 L53.40 1041.59 Z" fill="#3ba7ed" stroke="#3ba7ed"/><path d="M181.90 118.82 L181.90 118.82 L238.10 114.56 L318.31 126.09 L332.10 141.18 L290.50 147.20 L215.47 142.72 Z" fill="#70d0f4" stroke="#70d0f4"/><path d="M234.46 234.12 L234.46 234.12 L323.99 196.56 L403.46 235.79 L375.96 296.63 L302.84 326.80 L238.70 289.68 Z" fill="#5285dd" stroke="#5285dd"/><path d="M210.30 362.54 L210.30 362.54 L280.82 362.42 L323.11 397.55 L321.64 429.46 L270.38 451.13 L201.27 414.87 Z" fill="#60b7e9" stroke="#60b7e9"/><path d="M189.40 543.12 L189.40 543.12 L279.28 519.53 L338.49 574.36 L322.14 680.89 L236.36 702.53 L167.99 620.95 Z" fill="#55aceb" stroke="#55aceb"/><path d="M162.01 766.54 L162.01 766.54 L230.39 759.85 L295.87 824.24 L292.75 864.59 L215.89 892.77 L149.37 848.40 Z" fill="#4996df" stroke="#4996df"/><path d="M173.63 998.27 L173.63 998.27 L227.44 968.96 L323.72 1017.78 L356.35 1087.83 L295.00 1102.31 L215.13 1053.46 Z" fill="#5383e1" stroke="#5383e1"/><path d="M318.31 126.09 L318.31 126.09 L385.44 104.18 L461.91 127.05 L471.96 173.86 L420.95 169.82 L332.10 141.18 Z" fill="#3c9dd0" stroke="#3c9dd0"/><path d="M403.46 235.79 L403.46 235.79 L446.90 221.11 L488.38 262.98 L468.44 277.63 L406.25 303.04 L375.96 296.63 Z" fill="#699cdd" stroke="#699cdd"/><path d="M323.11 397.55 L323.11 397.55 L385.02 357.65 L432.85 380.95 L431.22 459.46 L379.98 476.13 L321.64 429.46 Z" fill="#518fd8" stroke="#518fd8"/><path d="M338.49 574.36 L338.49 574.36 L394.55 543.17 L456.76 596.84 L470.64 649.74 L397.87 699.12 L322.14 680.89 Z" fill="#4dacfa" stroke="#4dacfa"/><path d="M295.87 824.24 L295.87 824.24 L383.22 780.53 L445.92 821.19 L440.85 865.67 L369.61 885.68 L292.75 864.59 Z" fill="#6490d7" stroke="#6490d7"/><path d="M323.72 1017.78 L323.72 1017.78 L381.06 951.69 L465.70 978.12 L494.05 1054.12 L443.24 1113.64 L356.35 1087.83 Z" fill="#5790df" stroke="#5790df"/><path d="M461.91 127.05 L461.91 127.05 L528.20 76.17 L582.89 171.99 L568.38 213.83 L527.38 220.80 L471.96 173.86 Z" fill="#3e99ce" stroke="#3e99ce"/><path d="M488.38 262.98 L488.38 262.98 L542.16 247.47 L591.53 246.47 L584.60 263.65 L518.57 263.31 L468.44 277.63 Z" fill="#48a8d6" stroke="#48a8d6"/><path d="M432.85 380.95 L432.85 380.95 L517.60 322.06 L603.83 377.78 L607.33 480.70 L519.59 533.25 L431.22 459.46 Z" fill="#4aacda" stroke="#4aacda"/><path d="M456.76 596.84 L456.76 596.84 L521.28 586.92 L584.42 629.97 L567.79 708.01 L517.79 683.18 L470.64 649.74 Z" fill="#3fa4ea" stroke="#3fa4ea"/><path d="M445.92 821.19 L445.92 821.19 L505.47 765.52 L553.79 824.88 L547.02 887.16 L488.53 905.58 L440.85 865.67 Z" fill="#3789dd" stroke="#3789dd"/><path d="M465.70 978.12 L465.70 978.12 L498.41 948.18 L571.53 997.54 L604.28 1058.06 L568.07 1090.54 L494.05 1054.12 Z" fill="#72afff" stroke="#72afff"/><path d="M582.89 171.99 L582.89 171.99 L651.18 163.46 L697.29 190.11 L686.23 224.31 L628.83 238.58 L568.38 213.83 Z" fill="#4dadf2" stroke="#4dadf2"/><path d="M591.53 246.47 L591.53 246.47 L636.88 250.62 L702.03 275.93 L712.36 316.54 L643.51 304.62 L584.60 263.65 Z" fill="#4daaf2" stroke="#4daaf2"/><path d="M603.83 377.78 L603.83 377.78 L674.68 372.24 L778.99 472.36 L784.75 554.42 L688.61 567.39 L607.33 480.70 Z" fill="#57a6ff" stroke="#57a6ff"/><path d="M584.42 629.97 L584.42 629.97 L667.27 631.80 L710.88 718.23 L658.36 798.06 L596.81 807.10 L567.79 708.01 Z" fill="#3fa2e0" stroke="#3fa2e0"/><path d="M553.79 824.88 L553.79 824.88 L609.18 839.43 L681.20 905.82 L679.40 933.53 L608.87 937.15 L547.02 887.16 Z" fill="#5594f3" stroke="#5594f3"/><path d="M571.53 997.54 L571.53 997.54 L619.07 982.41 L704.22 1011.43 L736.06 1039.36 L685.99 1086.43 L604.28 1058.06 Z" fill="#5ed0fe" stroke="#5ed0fe"/><path d="M697.29 190.11 L697.29 190.11 L758.77 148.14 L825.48 126.36 L839.59 142.16 L772.31 196.18 L686.23 224.31 Z" fill="#4d97ec" stroke="#4d97ec"/><path d="M702.03 275.93 L702.03 275.93 L788.93 217.99 L883.18 192.87 L900.14 234.61 L820.59 290.02 L712.36 316.54 Z" fill="#6890f3" stroke="#6890f3"/><path d="M778.99 472.36 L778.99 472.36 L840.97 383.85 L930.46 420.23 L927.53 530.50 L840.12 605.58 L784.75 554.42 Z" fill="#66b6ff" stroke="#66b6ff"/><path d="M710.88 718.23 L710.88 718.23 L816.68 679.62 L876.20 718.70 L838.90 783.82 L731.99 840.92 L658.36 798.06 Z" fill="#90d2ff" stroke="#90d2ff"/><path d="M681.20 905.82 L681.20 905.82 L744.37 855.99 L828.82 854.31 L819.58 891.25 L745.02 927.63 L679.40 933.53 Z" fill="#5585f0" stroke="#5585f0"/><path d="M704.22 1011.43 L704.22 1011.43 L753.13 989.84 L831.17 1014.88 L855.54 1073.48 L803.43 1088.69 L736.06 1039.36 Z" fill="#6ca8e7" stroke="#6ca8e7"/><path d="M825.48 126.36 L825.48 126.36 L893.20 82.05 L975.10 84.24 L988.99 101.76 L924.54 111.97 L839.59 142.16 Z" fill="#79c8ff" stroke="#79c8ff"/><path d="M883.18 192.87 L883.18 192.87 L936.98 142.80 L1001.59 179.47 L1018.01 213.38 L970.12 259.77 L900.14 234.61 Z" fill="#6aa8f2" stroke="#6aa8f2"/><path d="M930.46 420.23 L930.46 420.23 L998.76 343.91 L1085.36 372.05 L1095.07 489.04 L1010.05 567.02 L927.53 530.50 Z" fill="#67a1f9" stroke="#67a1f9"/><path d="M876.20 718.70 L876.20 718.70 L991.40 660.36 L1063.27 680.79 L1051.91 732.29 L946.26 783.83 L838.90 783.82 Z" fill="#4b8ce7" stroke="#4b8ce7"/><path d="M828.82 854.31 L828.82 854.31 L930.81 842.97 L995.07 856.39 L960.69 911.32 L878.81 911.32 L819.58 891.25 Z" fill="#4fa6dc" stroke="#4fa6dc"/><path d="M831.17 1014.88 L831.17 1014.88 L873.32 955.59 L941.63 1019.95 L963.40 1075.53 L928.15 1109.32 L855.54 1073.48 Z" fill="#2b70cd" stroke="#2b70cd"/><path d="M975.10 84.24 L975.10 84.24 L1032.76 20.96 L1106.34 2.45 L1106.37 76.35 L1043.98 106.15 L988.99 101.76 Z" fill="#58a9d2" stroke="#58a9d2"/><path d="M1001.59 179.47 L1001.59 179.47 L1038.63 152.84 L1092.63 179.24 L1109.74 208.22 L1078.66 214.14 L1018.01 213.38 Z" fill="#6caadc" stroke="#6caadc"/><path d="M995.07 856.39 L995.07 856.39 L1045.32 792.50 L1066.50 807.69 L1049.14 903.04 L992.38 959.65 L960.69 911.32 Z" fill="#3e8ef9" stroke="#3e8ef9"/><path d="M941.63 1019.95 L941.63 1019.95 L983.72 1014.56 L1029.02 1056.91 L1024.96 1137.90 L1000.88 1128.28 L963.40 1075.53 Z" fill="#4986f6" stroke="#4986f6"/></svg>