<svg xmlns="http://www.w3.org/2000/svg" width="1024" height="786"><path d="M-73.60 -24.72 L-73.60 -24.72 L-70.37 54.39 L9.65 55.44 L8.66 -23.18 Z" fill="#f35666" stroke="#f35666"/><path d="M-70.37 54.39 L-70.37 54.39 L-71.77 129.03 L8.31 129.20 L9.65 55.44 Z" fill="#fc5967" stroke="#fc5967"/><path d="M-71.77 129.03 L-71.77 129.03 L-73.92 194.62 L1.14 194.75 L8.31 129.20 Z" fill="#fd5a68" stroke="#fd5a68"/><path d="M-73.92 194.62 L-73.92 194.62 L-77.42 257.70 L-8.79 257.79 L1.14 194.75 Z" fill="#fb5969" stroke="#fb5969"/><path d="M-75.56 812.79 L-75.56 812.79 L-74.94 890.30 L1.48 886.12 L-0.39 807.50 Z" fill="#f55765" stroke="#f55765"/><path d="M-74.94 890.30 L-74.94 890.30 L-71.56 966.19 L6.14 964.37 L1.48 886.12 Z" fill="#f55764" stroke="#f55764"/><path d="M-71.56 966.19 L-71.56 966.19 L-69.36 1029.27 L7.47 1036.58 L6.14 964.37 Z" fill="#fb5967" stroke="#fb5967"/><path d="M8.66 -23.18 L8.66 -23.18 L9.65 55.44 L88.94 54.21 L88.14 -23.52 Z" fill="#ed5462" stroke="#ed5462"/><path d="M9.65 55.44 L9.65 55.44 L8.31 129.20 L86.73 127.76 L88.94 54.21 Z" fill="#fd5968" stroke="#fd5968"/><path d="M8.31 129.20 L8.31 129.20 L1.14 194.75 L76.46 195.24 L86.73 127.76 Z" fill="#fc5967" stroke="#fc5967"/><path d="M1.14 194.75 L1.14 194.75 L-8.79 257.79 L63.05 260.26 L76.46 195.24 Z" fill="#f35665" stroke="#f35665"/><path d="M-8.79 257.79 L-8.79 257.79 L-10.93 335.87 L63.03 333.80 L63.05 260.26 Z" fill="#f05564" stroke="#f05564"/><path d="M-10.93 335.87 L-10.93 335.87 L-17.46 407.17 L59.76 407.97 L63.03 333.80 Z" fill="#ff5b67" stroke="#ff5b67"/><path d="M-17.46 407.17 L-17.46 407.17 L-16.41 484.67 L60.59 484.59 L59.76 407.97 Z" fill="#fc5968" stroke="#fc5968"/><path d="M-16.41 484.67 L-16.41 484.67 L-10.48 565.23 L64.22 563.77 L60.59 484.59 Z" fill="#fd5966" stroke="#fd5966"/><path d="M-10.48 565.23 L-10.48 565.23 L-6.78 640.85 L66.85 645.29 L64.22 563.77 Z" fill="#f75866" stroke="#f75866"/><path d="M-6.78 640.85 L-6.78 640.85 L-2.28 726.24 L72.46 723.54 L66.85 645.29 Z" fill="#f65766" stroke="#f65766"/><path d="M-2.28 726.24 L-2.28 726.24 L-0.39 807.50 L76.43 803.01 L72.46 723.54 Z" fill="#fd5a67" stroke="#fd5a67"/><path d="M-0.39 807.50 L-0.39 807.50 L1.48 886.12 L79.51 882.53 L76.43 803.01 Z" fill="#fa5969" stroke="#fa5969"/><path d="M1.48 886.12 L1.48 886.12 L6.14 964.37 L82.73 960.72 L79.51 882.53 Z" fill="#fa5966" stroke="#fa5966"/><path d="M6.14 964.37 L6.14 964.37 L7.47 1036.58 L84.02 1042.08 L82.73 960.72 Z" fill="#f75765" stroke="#f75765"/><path d="M88.14 -23.52 L88.14 -23.52 L88.94 54.21 L163.09 47.01 L163.56 -32.30 Z" fill="#f25664" stroke="#f25664"/><path d="M88.94 54.21 L88.94 54.21 L86.73 127.76 L163.41 121.68 L163.09 47.01 Z" fill="#f75766" stroke="#f75766"/><path d="M86.73 127.76 L86.73 127.76 L76.46 195.24 L154.13 195.95 L163.41 121.68 Z" fill="#f95866" stroke="#f95866"/><path d="M76.46 195.24 L76.46 195.24 L63.05 260.26 L140.69 269.22 L154.13 195.95 Z" fill="#f35664" stroke="#f35664"/><path d="M63.05 260.26 L63.05 260.26 L63.03 333.80 L144.40 337.09 L140.69 269.22 Z" fill="#f55766" stroke="#f55766"/><path d="M63.03 333.80 L63.03 333.80 L59.76 407.97 L131.95 406.81 L144.40 337.09 Z" fill="#fe5a67" stroke="#fe5a67"/><path d="M59.76 407.97 L59.76 407.97 L60.59 484.59 L134.52 483.86 L131.95 406.81 Z" fill="#fa5968" stroke="#fa5968"/><path d="M60.59 484.59 L60.59 484.59 L64.22 563.77 L144.11 566.85 L134.52 483.86 Z" fill="#f45664" stroke="#f45664"/><path d="M64.22 563.77 L64.22 563.77 L66.85 645.29 L140.69 652.22 L144.11 566.85 Z" fill="#fd5a68" stroke="#fd5a68"/><path d="M66.85 645.29 L66.85 645.29 L72.46 723.54 L154.86 726.37 L140.69 652.22 Z" fill="#fc5967" stroke="#fc5967"/><path d="M72.46 723.54 L72.46 723.54 L76.43 803.01 L157.45 802.13 L154.86 726.37 Z" fill="#f65766" stroke="#f65766"/><path d="M76.43 803.01 L76.43 803.01 L79.51 882.53 L157.26 879.42 L157.45 802.13 Z" fill="#f85867" stroke="#f85867"/><path d="M79.51 882.53 L79.51 882.53 L82.73 960.72 L164.70 957.60 L157.26 879.42 Z" fill="#ff5b69" stroke="#ff5b69"/><path d="M82.73 960.72 L82.73 960.72 L84.02 1042.08 L154.99 1042.12 L164.70 957.60 Z" fill="#f25665" stroke="#f25665"/><path d="M163.56 -32.30 L163.56 -32.30 L163.09 47.01 L239.93 39.44 L236.39 -36.31 Z" fill="#ff5b6a" stroke="#ff5b6a"/><path d="M163.09 47.01 L163.09 47.01 L163.41 121.68 L239.01 116.64 L239.93 39.44 Z" fill="#f55765" stroke="#f55765"/><path d="M163.41 121.68 L163.41 121.68 L154.13 195.95 L231.70 197.15 L239.01 116.64 Z" fill="#fa5968" stroke="#fa5968"/><path d="M154.13 195.95 L154.13 195.95 L140.69 269.22 L221.53 275.86 L231.70 197.15 Z" fill="#fe5a68" stroke="#fe5a68"/><path d="M140.69 269.22 L140.69 269.22 L144.40 337.09 L219.24 337.77 L221.53 275.86 Z" fill="#f65765" stroke="#f65765"/><path d="M144.40 337.09 L144.40 337.09 L131.95 406.81 L207.47 405.68 L219.24 337.77 Z" fill="#fc5968" stroke="#fc5968"/><path d="M131.95 406.81 L131.95 406.81 L134.52 483.86 L210.05 483.05 L207.47 405.68 Z" fill="#f55766" stroke="#f55766"/><path d="M134.52 483.86 L134.52 483.86 L144.11 566.85 L220.45 568.66 L210.05 483.05 Z" fill="#fc5968" stroke="#fc5968"/><path d="M144.11 566.85 L144.11 566.85 L140.69 652.22 L222.63 659.64 L220.45 568.66 Z" fill="#fc5968" stroke="#fc5968"/><path d="M140.69 652.22 L140.69 652.22 L154.86 726.37 L234.52 727.83 L222.63 659.64 Z" fill="#f75866" stroke="#f75866"/><path d="M154.86 726.37 L154.86 726.37 L157.45 802.13 L238.92 799.97 L234.52 727.83 Z" fill="#ff5b69" stroke="#ff5b69"/><path d="M157.45 802.13 L157.45 802.13 L157.26 879.42 L238.97 875.85 L238.92 799.97 Z" fill="#f25662" stroke="#f25662"/><path d="M157.26 879.42 L157.26 879.42 L164.70 957.60 L238.76 954.00 L238.97 875.85 Z" fill="#f85867" stroke="#f85867"/><path d="M164.70 957.60 L164.70 957.60 L154.99 1042.12 L227.61 1040.45 L238.76 954.00 Z" fill="#fb5968" stroke="#fb5968"/><path d="M236.39 -36.31 L236.39 -36.31 L239.93 39.44 L323.35 34.17 L310.44 -39.79 Z" fill="#ff5b67" stroke="#ff5b67"/><path d="M239.93 39.44 L239.93 39.44 L239.01 116.64 L316.46 112.22 L323.35 34.17 Z" fill="#f65765" stroke="#f65765"/><path d="M239.01 116.64 L239.01 116.64 L231.70 197.15 L307.39 195.18 L316.46 112.22 Z" fill="#f45666" stroke="#f45666"/><path d="M231.70 197.15 L231.70 197.15 L221.53 275.86 L299.65 276.53 L307.39 195.18 Z" fill="#ff5a68" stroke="#ff5a68"/><path d="M221.53 275.86 L221.53 275.86 L219.24 337.77 L291.42 338.21 L299.65 276.53 Z" fill="#fb5967" stroke="#fb5967"/><path d="M219.24 337.77 L219.24 337.77 L207.47 405.68 L285.39 406.91 L291.42 338.21 Z" fill="#f15664" stroke="#f15664"/><path d="M207.47 405.68 L207.47 405.68 L210.05 483.05 L286.58 483.63 L285.39 406.91 Z" fill="#f95867" stroke="#f95867"/><path d="M210.05 483.05 L210.05 483.05 L220.45 568.66 L293.27 568.76 L286.58 483.63 Z" fill="#ff5c68" stroke="#ff5c68"/><path d="M220.45 568.66 L220.45 568.66 L222.63 659.64 L301.50 662.71 L293.27 568.76 Z" fill="#ee5563" stroke="#ee5563"/><path d="M222.63 659.64 L222.63 659.64 L234.52 727.83 L310.13 726.27 L301.50 662.71 Z" fill="#f65766" stroke="#f65766"/><path d="M234.52 727.83 L234.52 727.83 L238.92 799.97 L317.93 797.93 L310.13 726.27 Z" fill="#ff5a67" stroke="#ff5a67"/><path d="M238.92 799.97 L238.92 799.97 L238.97 875.85 L320.11 874.41 L317.93 797.93 Z" fill="#ff5a68" stroke="#ff5a68"/><path d="M238.97 875.85 L238.97 875.85 L238.76 954.00 L311.93 950.52 L320.11 874.41 Z" fill="#ec5463" stroke="#ec5463"/><path d="M238.76 954.00 L238.76 954.00 L227.61 1040.45 L300.98 1040.45 L311.93 950.52 Z" fill="#fb5966" stroke="#fb5966"/><path d="M310.44 -39.79 L310.44 -39.79 L323.35 34.17 L409.14 31.11 L386.00 -43.13 Z" fill="#ff5b68" stroke="#ff5b68"/><path d="M323.35 34.17 L323.35 34.17 L316.46 112.22 L395.27 108.32 L409.14 31.11 Z" fill="#f35664" stroke="#f35664"/><path d="M316.46 112.22 L316.46 112.22 L307.39 195.18 L382.34 191.78 L395.27 108.32 Z" fill="#f15566" stroke="#f15566"/><path d="M307.39 195.18 L307.39 195.18 L299.65 276.53 L375.31 274.91 L382.34 191.78 Z" fill="#f85865" stroke="#f85865"/><path d="M299.65 276.53 L299.65 276.53 L291.42 338.21 L363.30 337.86 L375.31 274.91 Z" fill="#fc5966" stroke="#fc5966"/><path d="M291.42 338.21 L291.42 338.21 L285.39 406.91 L364.01 410.06 L363.30 337.86 Z" fill="#ed5465" stroke="#ed5465"/><path d="M285.39 406.91 L285.39 406.91 L286.58 483.63 L363.40 486.02 L364.01 410.06 Z" fill="#fd5967" stroke="#fd5967"/><path d="M286.58 483.63 L286.58 483.63 L293.27 568.76 L364.85 568.30 L363.40 486.02 Z" fill="#f85865" stroke="#f85865"/><path d="M293.27 568.76 L293.27 568.76 L301.50 662.71 L376.94 662.34 L364.85 568.30 Z" fill="#f35666" stroke="#f35666"/><path d="M301.50 662.71 L301.50 662.71 L310.13 726.27 L383.28 723.25 L376.94 662.34 Z" fill="#fa5967" stroke="#fa5967"/><path d="M310.13 726.27 L310.13 726.27 L317.93 797.93 L395.78 795.57 L383.28 723.25 Z" fill="#fd5a67" stroke="#fd5a67"/><path d="M317.93 797.93 L317.93 797.93 L320.11 874.41 L400.90 873.08 L395.78 795.57 Z" fill="#fe5a68" stroke="#fe5a68"/><path d="M320.11 874.41 L320.11 874.41 L311.93 950.52 L384.34 947.33 L400.90 873.08 Z" fill="#ef5567" stroke="#ef5567"/><path d="M311.93 950.52 L311.93 950.52 L300.98 1040.45 L374.88 1040.50 L384.34 947.33 Z" fill="#fb5965" stroke="#fb5965"/><path d="M386.00 -43.13 L386.00 -43.13 L409.14 31.11 L492.30 29.97 L463.11 -46.47 Z" fill="#f25561" stroke="#f25561"/><path d="M409.14 31.11 L409.14 31.11 L395.27 108.32 L474.64 104.88 L492.30 29.97 Z" fill="#fa5967" stroke="#fa5967"/><path d="M395.27 108.32 L395.27 108.32 L382.34 191.78 L457.83 189.00 L474.64 104.88 Z" fill="#f9586a" stroke="#f9586a"/><path d="M382.34 191.78 L382.34 191.78 L375.31 274.91 L449.10 275.01 L457.83 189.00 Z" fill="#f75763" stroke="#f75763"/><path d="M375.31 274.91 L375.31 274.91 L363.30 337.86 L437.34 336.21 L449.10 275.01 Z" fill="#f55763" stroke="#f55763"/><path d="M363.30 337.86 L363.30 337.86 L364.01 410.06 L441.54 414.43 L437.34 336.21 Z" fill="#f8586a" stroke="#f8586a"/><path d="M364.01 410.06 L364.01 410.06 L363.40 486.02 L439.84 490.47 L441.54 414.43 Z" fill="#f35663" stroke="#f35663"/><path d="M363.40 486.02 L363.40 486.02 L364.85 568.30 L437.78 568.56 L439.84 490.47 Z" fill="#f95865" stroke="#f95865"/><path d="M364.85 568.30 L364.85 568.30 L376.94 662.34 L449.22 659.87 L437.78 568.56 Z" fill="#fa5968" stroke="#fa5968"/><path d="M376.94 662.34 L376.94 662.34 L383.28 723.25 L455.92 720.60 L449.22 659.87 Z" fill="#fa5967" stroke="#fa5967"/><path d="M383.28 723.25 L383.28 723.25 L395.78 795.57 L473.92 792.43 L455.92 720.60 Z" fill="#f75763" stroke="#f75763"/><path d="M395.78 795.57 L395.78 795.57 L400.90 873.08 L481.53 869.71 L473.92 792.43 Z" fill="#f95866" stroke="#f95866"/><path d="M400.90 873.08 L400.90 873.08 L384.34 947.33 L456.11 944.66 L481.53 869.71 Z" fill="#fc596b" stroke="#fc596b"/><path d="M384.34 947.33 L384.34 947.33 L374.88 1040.50 L449.10 1038.88 L456.11 944.66 Z" fill="#f85864" stroke="#f85864"/><path d="M463.11 -46.47 L463.11 -46.47 L492.30 29.97 L557.85 29.29 L541.10 -47.61 Z" fill="#e3505a" stroke="#e3505a"/><path d="M492.30 29.97 L492.30 29.97 L474.64 104.88 L547.71 105.49 L557.85 29.29 Z" fill="#ff5b69" stroke="#ff5b69"/><path d="M474.64 104.88 L474.64 104.88 L457.83 189.00 L533.18 189.64 L547.71 105.49 Z" fill="#fe5a6c" stroke="#fe5a6c"/><path d="M457.83 189.00 L457.83 189.00 L449.10 275.01 L521.66 275.29 L533.18 189.64 Z" fill="#ef5561" stroke="#ef5561"/><path d="M449.10 275.01 L449.10 275.01 L437.34 336.21 L518.71 339.50 L521.66 275.29 Z" fill="#f65764" stroke="#f65764"/><path d="M437.34 336.21 L437.34 336.21 L441.54 414.43 L516.37 416.58 L518.71 339.50 Z" fill="#fd596b" stroke="#fd596b"/><path d="M441.54 414.43 L441.54 414.43 L439.84 490.47 L517.25 492.49 L516.37 416.58 Z" fill="#fe5a68" stroke="#fe5a68"/><path d="M439.84 490.47 L439.84 490.47 L437.78 568.56 L519.89 570.66 L517.25 492.49 Z" fill="#ed5460" stroke="#ed5460"/><path d="M437.78 568.56 L437.78 568.56 L449.22 659.87 L521.27 659.79 L519.89 570.66 Z" fill="#fd5a6a" stroke="#fd5a6a"/><path d="M449.22 659.87 L449.22 659.87 L455.92 720.60 L535.05 721.74 L521.27 659.79 Z" fill="#ff5b6a" stroke="#ff5b6a"/><path d="M455.92 720.60 L455.92 720.60 L473.92 792.43 L548.12 792.41 L535.05 721.74 Z" fill="#ed5460" stroke="#ed5460"/><path d="M473.92 792.43 L473.92 792.43 L481.53 869.71 L552.08 868.92 L548.12 792.41 Z" fill="#fa5966" stroke="#fa5966"/><path d="M481.53 869.71 L481.53 869.71 L456.11 944.66 L539.08 946.59 L552.08 868.92 Z" fill="#ff5b6c" stroke="#ff5b6c"/><path d="M456.11 944.66 L456.11 944.66 L449.10 1038.88 L523.55 1039.19 L539.08 946.59 Z" fill="#f25662" stroke="#f25662"/><path d="M541.10 -47.61 L541.10 -47.61 L557.85 29.29 L624.69 28.73 L617.26 -46.97 Z" fill="#f85863" stroke="#f85863"/><path d="M557.85 29.29 L557.85 29.29 L547.71 105.49 L619.75 105.96 L624.69 28.73 Z" fill="#f65765" stroke="#f65765"/><path d="M547.71 105.49 L547.71 105.49 L533.18 189.64 L607.72 191.00 L619.75 105.96 Z" fill="#f75768" stroke="#f75768"/><path d="M533.18 189.64 L533.18 189.64 L521.66 275.29 L595.55 277.21 L607.72 191.00 Z" fill="#ee5461" stroke="#ee5461"/><path d="M521.66 275.29 L521.66 275.29 L518.71 339.50 L598.69 342.61 L595.55 277.21 Z" fill="#f65765" stroke="#f65765"/><path d="M518.71 339.50 L518.71 339.50 L516.37 416.58 L592.98 419.52 L598.69 342.61 Z" fill="#ff5b6c" stroke="#ff5b6c"/><path d="M516.37 416.58 L516.37 416.58 L517.25 492.49 L594.68 495.27 L592.98 419.52 Z" fill="#f95867" stroke="#f95867"/><path d="M517.25 492.49 L517.25 492.49 L519.89 570.66 L599.41 573.02 L594.68 495.27 Z" fill="#ef5560" stroke="#ef5560"/><path d="M519.89 570.66 L519.89 570.66 L521.27 659.79 L596.33 660.70 L599.41 573.02 Z" fill="#ff5a6b" stroke="#ff5a6b"/><path d="M521.27 659.79 L521.27 659.79 L535.05 721.74 L612.11 724.70 L596.33 660.70 Z" fill="#fb5969" stroke="#fb5969"/><path d="M535.05 721.74 L535.05 721.74 L548.12 792.41 L621.98 792.36 L612.11 724.70 Z" fill="#f45662" stroke="#f45662"/><path d="M548.12 792.41 L548.12 792.41 L552.08 868.92 L624.01 866.80 L621.98 792.36 Z" fill="#f75766" stroke="#f75766"/><path d="M552.08 868.92 L552.08 868.92 L539.08 946.59 L617.52 949.79 L624.01 866.80 Z" fill="#ff5d6c" stroke="#ff5d6c"/><path d="M539.08 946.59 L539.08 946.59 L523.55 1039.19 L601.86 1037.28 L617.52 949.79 Z" fill="#f35664" stroke="#f35664"/><path d="M617.26 -46.97 L617.26 -46.97 L624.69 28.73 L694.71 27.38 L690.40 -45.23 Z" fill="#ff5d6a" stroke="#ff5d6a"/><path d="M624.69 28.73 L624.69 28.73 L619.75 105.96 L692.94 106.37 L694.71 27.38 Z" fill="#f25663" stroke="#f25663"/><path d="M619.75 105.96 L619.75 105.96 L607.72 191.00 L682.87 191.40 L692.94 106.37 Z" fill="#ef5565" stroke="#ef5565"/><path d="M607.72 191.00 L607.72 191.00 L595.55 277.21 L671.23 276.43 L682.87 191.40 Z" fill="#f55764" stroke="#f55764"/><path d="M595.55 277.21 L595.55 277.21 L598.69 342.61 L677.70 345.39 L671.23 276.43 Z" fill="#f35663" stroke="#f35663"/><path d="M598.69 342.61 L598.69 342.61 L592.98 419.52 L669.67 421.72 L677.70 345.39 Z" fill="#ff5b6c" stroke="#ff5b6c"/><path d="M592.98 419.52 L592.98 419.52 L594.68 495.27 L671.63 497.75 L669.67 421.72 Z" fill="#f15565" stroke="#f15565"/><path d="M594.68 495.27 L594.68 495.27 L599.41 573.02 L677.72 575.30 L671.63 497.75 Z" fill="#fa5865" stroke="#fa5865"/><path d="M599.41 573.02 L599.41 573.02 L596.33 660.70 L672.88 659.05 L677.72 575.30 Z" fill="#fe5a6b" stroke="#fe5a6b"/><path d="M596.33 660.70 L596.33 660.70 L612.11 724.70 L688.34 726.17 L672.88 659.05 Z" fill="#f85868" stroke="#f85868"/><path d="M612.11 724.70 L612.11 724.70 L621.98 792.36 L695.37 792.76 L688.34 726.17 Z" fill="#fd5a67" stroke="#fd5a67"/><path d="M621.98 792.36 L621.98 792.36 L624.01 866.80 L695.99 865.94 L695.37 792.76 Z" fill="#f55766" stroke="#f55766"/><path d="M624.01 866.80 L624.01 866.80 L617.52 949.79 L693.71 952.09 L695.99 865.94 Z" fill="#ff5a68" stroke="#ff5a68"/><path d="M617.52 949.79 L617.52 949.79 L601.86 1037.28 L679.36 1034.86 L693.71 952.09 Z" fill="#f85866" stroke="#f85866"/><path d="M690.40 -45.23 L690.40 -45.23 L694.71 27.38 L768.34 25.13 L760.62 -43.12 Z" fill="#fb5966" stroke="#fb5966"/><path d="M694.71 27.38 L694.71 27.38 L692.94 106.37 L767.98 106.81 L768.34 25.13 Z" fill="#f85867" stroke="#f85867"/><path d="M692.94 106.37 L692.94 106.37 L682.87 191.40 L759.31 189.89 L767.98 106.81 Z" fill="#f05563" stroke="#f05563"/><path d="M682.87 191.40 L682.87 191.40 L671.23 276.43 L749.08 270.85 L759.31 189.89 Z" fill="#f85865" stroke="#f85865"/><path d="M671.23 276.43 L671.23 276.43 L677.70 345.39 L755.73 347.78 L749.08 270.85 Z" fill="#fd5a69" stroke="#fd5a69"/><path d="M677.70 345.39 L677.70 345.39 L669.67 421.72 L745.54 422.52 L755.73 347.78 Z" fill="#f75765" stroke="#f75765"/><path d="M669.67 421.72 L669.67 421.72 L671.63 497.75 L747.89 499.38 L745.54 422.52 Z" fill="#fb5969" stroke="#fb5969"/><path d="M671.63 497.75 L671.63 497.75 L677.72 575.30 L755.56 577.18 L747.89 499.38 Z" fill="#fa5966" stroke="#fa5966"/><path d="M677.72 575.30 L677.72 575.30 L672.88 659.05 L750.21 653.03 L755.56 577.18 Z" fill="#f85866" stroke="#f85866"/><path d="M672.88 659.05 L672.88 659.05 L688.34 726.17 L764.47 724.37 L750.21 653.03 Z" fill="#f95867" stroke="#f95867"/><path d="M688.34 726.17 L688.34 726.17 L695.37 792.76 L768.26 793.82 L764.47 724.37 Z" fill="#fa5967" stroke="#fa5967"/><path d="M695.37 792.76 L695.37 792.76 L695.99 865.94 L767.35 867.70 L768.26 793.82 Z" fill="#fc5969" stroke="#fc5969"/><path d="M695.99 865.94 L695.99 865.94 L693.71 952.09 L769.05 952.27 L767.35 867.70 Z" fill="#f15563" stroke="#f15563"/><path d="M693.71 952.09 L693.71 952.09 L679.36 1034.86 L753.77 1032.95 L769.05 952.27 Z" fill="#fe5a68" stroke="#fe5a68"/><path d="M760.62 -43.12 L760.62 -43.12 L768.34 25.13 L837.48 27.07 L836.70 -42.87 Z" fill="#ff5b69" stroke="#ff5b69"/><path d="M768.34 25.13 L768.34 25.13 L767.98 106.81 L837.08 107.76 L837.48 27.07 Z" fill="#f45665" stroke="#f45665"/><path d="M767.98 106.81 L767.98 106.81 L759.31 189.89 L834.23 188.96 L837.08 107.76 Z" fill="#f85866" stroke="#f85866"/><path d="M759.31 189.89 L759.31 189.89 L749.08 270.85 L830.28 268.99 L834.23 188.96 Z" fill="#fb5967" stroke="#fb5967"/><path d="M749.08 270.85 L749.08 270.85 L755.73 347.78 L829.71 349.83 L830.28 268.99 Z" fill="#f95867" stroke="#f95867"/><path d="M755.73 347.78 L755.73 347.78 L745.54 422.52 L823.37 425.34 L829.71 349.83 Z" fill="#fa5967" stroke="#fa5967"/><path d="M745.54 422.52 L745.54 422.52 L747.89 499.38 L824.83 501.84 L823.37 425.34 Z" fill="#f85867" stroke="#f85867"/><path d="M747.89 499.38 L747.89 499.38 L755.56 577.18 L830.66 577.74 L824.83 501.84 Z" fill="#fd5a68" stroke="#fd5a68"/><path d="M755.56 577.18 L755.56 577.18 L750.21 653.03 L832.22 649.02 L830.66 577.74 Z" fill="#f75765" stroke="#f75765"/><path d="M750.21 653.03 L750.21 653.03 L764.47 724.37 L839.35 723.88 L832.22 649.02 Z" fill="#f65766" stroke="#f65766"/><path d="M764.47 724.37 L764.47 724.37 L768.26 793.82 L841.07 794.33 L839.35 723.88 Z" fill="#f75866" stroke="#f75866"/><path d="M768.26 793.82 L768.26 793.82 L767.35 867.70 L840.63 867.98 L841.07 794.33 Z" fill="#fb5968" stroke="#fb5968"/><path d="M767.35 867.70 L767.35 867.70 L769.05 952.27 L841.87 952.84 L840.63 867.98 Z" fill="#f75766" stroke="#f75766"/><path d="M769.05 952.27 L769.05 952.27 L753.77 1032.95 L834.20 1029.77 L841.87 952.84 Z" fill="#fd5a68" stroke="#fd5a68"/><path d="M836.70 -42.87 L836.70 -42.87 L837.48 27.07 L907.51 26.14 L907.55 -42.16 Z" fill="#f75865" stroke="#f75865"/><path d="M837.48 27.07 L837.48 27.07 L837.08 107.76 L906.74 107.65 L907.51 26.14 Z" fill="#f85867" stroke="#f85867"/><path d="M837.08 107.76 L837.08 107.76 L834.23 188.96 L909.58 188.49 L906.74 107.65 Z" fill="#ff5b6b" stroke="#ff5b6b"/><path d="M834.23 188.96 L834.23 188.96 L830.28 268.99 L912.65 267.40 L909.58 188.49 Z" fill="#f65765" stroke="#f65765"/><path d="M830.28 268.99 L830.28 268.99 L829.71 349.83 L904.06 349.77 L912.65 267.40 Z" fill="#f65766" stroke="#f65766"/><path d="M829.71 349.83 L829.71 349.83 L823.37 425.34 L901.83 424.91 L904.06 349.77 Z" fill="#ff5b6c" stroke="#ff5b6c"/><path d="M823.37 425.34 L823.37 425.34 L824.83 501.84 L902.57 501.58 L901.83 424.91 Z" fill="#f55765" stroke="#f55765"/><path d="M824.83 501.84 L824.83 501.84 L830.66 577.74 L906.89 577.82 L902.57 501.58 Z" fill="#f65765" stroke="#f65765"/><path d="M830.66 577.74 L830.66 577.74 L832.22 649.02 L916.51 648.51 L906.89 577.82 Z" fill="#fd5a6a" stroke="#fd5a6a"/><path d="M832.22 649.02 L832.22 649.02 L839.35 723.88 L913.09 723.11 L916.51 648.51 Z" fill="#fb5968" stroke="#fb5968"/><path d="M839.35 723.88 L839.35 723.88 L841.07 794.33 L912.75 792.91 L913.09 723.11 Z" fill="#f05562" stroke="#f05562"/><path d="M841.07 794.33 L841.07 794.33 L840.63 867.98 L913.18 866.85 L912.75 792.91 Z" fill="#f55764" stroke="#f55764"/><path d="M840.63 867.98 L840.63 867.98 L841.87 952.84 L911.29 954.30 L913.18 866.85 Z" fill="#fe5a68" stroke="#fe5a68"/><path d="M841.87 952.84 L841.87 952.84 L834.20 1029.77 L914.42 1028.22 L911.29 954.30 Z" fill="#f65765" stroke="#f65765"/><path d="M907.55 -42.16 L907.55 -42.16 L907.51 26.14 L976.29 23.93 L978.67 -40.91 Z" fill="#ea5361" stroke="#ea5361"/><path d="M907.51 26.14 L907.51 26.14 L906.74 107.65 L977.61 107.80 L976.29 23.93 Z" fill="#fb5967" stroke="#fb5967"/><path d="M906.74 107.65 L906.74 107.65 L909.58 188.49 L985.72 188.91 L977.61 107.80 Z" fill="#fc5968" stroke="#fc5968"/><path d="M909.58 188.49 L909.58 188.49 L912.65 267.40 L993.81 266.14 L985.72 188.91 Z" fill="#f45766" stroke="#f45766"/><path d="M912.65 267.40 L912.65 267.40 L904.06 349.77 L981.41 350.52 L993.81 266.14 Z" fill="#f85866" stroke="#f85866"/><path d="M904.06 349.77 L904.06 349.77 L901.83 424.91 L980.99 423.75 L981.41 350.52 Z" fill="#fa5867" stroke="#fa5867"/><path d="M901.83 424.91 L901.83 424.91 L902.57 501.58 L980.92 501.08 L980.99 423.75 Z" fill="#f95867" stroke="#f95867"/><path d="M902.57 501.58 L902.57 501.58 L906.89 577.82 L984.59 579.06 L980.92 501.08 Z" fill="#f05563" stroke="#f05563"/><path d="M906.89 577.82 L906.89 577.82 L916.51 648.51 L1000.18 648.64 L984.59 579.06 Z" fill="#fe5a69" stroke="#fe5a69"/><path d="M916.51 648.51 L916.51 648.51 L913.09 723.11 L987.52 723.43 L1000.18 648.64 Z" fill="#fe5a69" stroke="#fe5a69"/><path d="M913.09 723.11 L913.09 723.11 L912.75 792.91 L984.07 791.25 L987.52 723.43 Z" fill="#ec5462" stroke="#ec5462"/><path d="M912.75 792.91 L912.75 792.91 L913.18 866.85 L984.50 864.05 L984.07 791.25 Z" fill="#fa5866" stroke="#fa5866"/><path d="M913.18 866.85 L913.18 866.85 L911.29 954.30 L981.56 954.39 L984.50 864.05 Z" fill="#fb5968" stroke="#fb5968"/><path d="M911.29 954.30 L911.29 954.30 L914.42 1028.22 L993.72 1027.59 L981.56 954.39 Z" fill="#f55765" stroke="#f55765"/><path d="M978.67 -40.91 L978.67 -40.91 L976.29 23.93 L1044.73 21.15 L1052.53 -39.75 Z" fill="#f45668" stroke="#f45668"/><path d="M976.29 23.93 L976.29 23.93 L977.61 107.80 L1050.43 108.14 L1044.73 21.15 Z" fill="#f75865" stroke="#f75865"/><path d="M977.61 107.80 L977.61 107.80 L985.72 188.91 L1062.16 189.77 L1050.43 108.14 Z" fill="#fa5966" stroke="#fa5966"/><path d="M985.72 188.91 L985.72 188.91 L993.81 266.14 L1071.82 265.23 L1062.16 189.77 Z" fill="#f35666" stroke="#f35666"/><path d="M993.81 266.14 L993.81 266.14 L981.41 350.52 L1062.30 352.50 L1071.82 265.23 Z" fill="#f75766" stroke="#f75766"/><path d="M981.41 350.52 L981.41 350.52 L980.99 423.75 L1061.35 422.71 L1062.30 352.50 Z" fill="#fc5966" stroke="#fc5966"/><path d="M980.99 423.75 L980.99 423.75 L980.92 501.08 L1060.54 500.85 L1061.35 422.71 Z" fill="#f55765" stroke="#f55765"/><path d="M980.92 501.08 L980.92 501.08 L984.59 579.06 L1063.86 581.08 L1060.54 500.85 Z" fill="#f25666" stroke="#f25666"/><path d="M984.59 579.06 L984.59 579.06 L1000.18 648.64 L1079.74 648.32 L1063.86 581.08 Z" fill="#f95864" stroke="#f95864"/><path d="M1000.18 648.64 L1000.18 648.64 L987.52 723.43 L1062.99 724.60 L1079.74 648.32 Z" fill="#f95864" stroke="#f95864"/><path d="M987.52 723.43 L987.52 723.43 L984.07 791.25 L1055.85 789.96 L1062.99 724.60 Z" fill="#f15566" stroke="#f15566"/><path d="M984.07 791.25 L984.07 791.25 L984.50 864.05 L1054.97 860.26 L1055.85 789.96 Z" fill="#f65765" stroke="#f65765"/><path d="M984.50 864.05 L984.50 864.05 L981.56 954.39 L1054.89 952.50 L1054.97 860.26 Z" fill="#ff5a68" stroke="#ff5a68"/><path d="M981.56 954.39 L981.56 954.39 L993.72 1027.59 L1070.60 1027.39 L1054.89 952.50 Z" fill="#f35664" stroke="#f35664"/></svg>