<svg xmlns="http://www.w3.org/2000/svg" width="1024" height="786"><path d="M-70.14 -79.97 L-70.14 -79.97 L-0.48 -77.11 L-10.33 -148.43 L53.30 -155.17 L68.04 -73.75 L76.33 0.37 L7.66 -6.33 L-62.57 -12.93 Z" fill="#d26f28" stroke="#d26f28"/><path d="M-61.96 117.65 L-61.96 117.65 L7.09 123.32 L14.14 63.92 L78.41 67.44 L74.49 129.07 L66.66 186.01 L-0.97 183.14 L-69.95 181.09 Z" fill="#ce6e26" stroke="#ce6e26"/><path d="M-75.80 307.82 L-75.80 307.82 L-12.19 303.78 L-9.91 243.82 L54.14 237.26 L51.56 300.74 L50.64 365.42 L-12.23 366.32 L-74.69 369.47 Z" fill="#e2841a" stroke="#e2841a"/><path d="M-72.76 500.46 L-72.76 500.46 L-11.38 497.60 L-9.65 433.20 L50.85 430.13 L50.93 496.05 L52.28 562.87 L-12.24 564.11 L-76.81 567.60 Z" fill="#cb6a2b" stroke="#cb6a2b"/><path d="M-73.15 702.86 L-73.15 702.86 L-7.16 701.24 L-9.49 636.22 L56.45 631.18 L58.75 699.70 L61.28 768.52 L-3.76 766.14 L-69.73 765.72 Z" fill="#e3841a" stroke="#e3841a"/><path d="M-61.76 899.32 L-61.76 899.32 L3.41 902.93 L3.26 836.70 L66.14 838.10 L68.22 905.61 L69.75 972.51 L1.72 968.79 L-67.66 965.93 Z" fill="#d27126" stroke="#d27126"/><path d="M132.89 127.63 L132.89 127.63 L193.89 126.17 L199.42 71.83 L252.54 72.44 L256.40 124.45 L257.40 178.60 L191.22 180.83 L127.02 183.39 Z" fill="#ef801b" stroke="#ef801b"/><path d="M120.61 302.50 L120.61 302.50 L190.24 302.67 L192.46 236.54 L254.62 236.25 L259.88 302.31 L263.05 371.56 L190.08 370.47 L118.79 368.66 Z" fill="#ce701e" stroke="#ce701e"/><path d="M120.35 499.50 L120.35 499.50 L190.99 502.29 L193.86 439.37 L261.49 444.67 L262.22 504.40 L260.90 563.72 L188.94 564.57 L118.68 564.80 Z" fill="#d17433" stroke="#d17433"/><path d="M124.06 699.69 L124.06 699.69 L189.64 698.93 L191.34 627.83 L254.18 627.47 L255.00 698.14 L256.18 772.36 L188.57 772.48 L122.81 771.54 Z" fill="#d17420" stroke="#d17420"/><path d="M131.17 907.89 L131.17 907.89 L192.77 909.74 L192.86 846.72 L252.02 851.44 L253.51 910.71 L255.92 963.14 L191.72 968.12 L129.10 971.97 Z" fill="#e97f18" stroke="#e97f18"/><path d="M129.35 1093.13 L129.35 1093.13 L192.29 1088.28 L194.17 1025.72 L252.31 1020.32 L255.15 1084.19 L260.70 1152.23 L188.54 1153.36 L118.35 1153.28 Z" fill="#d27417" stroke="#d27417"/><path d="M318.08 120.14 L318.08 120.14 L378.36 114.80 L376.46 50.46 L443.65 45.92 L437.71 108.84 L438.67 178.39 L379.91 179.33 L319.71 179.49 Z" fill="#d3752f" stroke="#d3752f"/><path d="M325.78 306.65 L325.78 306.65 L390.53 309.09 L380.91 244.16 L448.63 256.40 L454.42 309.98 L465.67 367.28 L400.70 372.24 L333.33 374.04 Z" fill="#d67324" stroke="#d67324"/><path d="M331.81 503.76 L331.81 503.76 L401.48 501.83 L410.37 432.50 L486.55 434.59 L471.01 499.06 L453.95 568.19 L390.46 571.34 L326.21 570.28 Z" fill="#e18716" stroke="#e18716"/><path d="M316.21 701.80 L316.21 701.80 L377.36 705.01 L382.20 637.61 L448.15 648.65 L438.63 707.74 L432.23 763.84 L374.65 771.32 L316.14 774.61 Z" fill="#d9762a" stroke="#d9762a"/><path d="M314.02 905.28 L314.02 905.28 L375.04 899.72 L375.48 833.36 L438.45 829.08 L436.55 894.20 L433.68 961.23 L374.74 966.66 L315.61 967.74 Z" fill="#cc6d2e" stroke="#cc6d2e"/><path d="M506.20 112.25 L506.20 112.25 L574.71 115.20 L570.97 47.61 L633.07 58.48 L643.24 117.67 L649.30 176.84 L579.01 179.32 L508.80 179.81 Z" fill="#ce731f" stroke="#ce731f"/><path d="M520.80 310.63 L520.80 310.63 L587.28 310.32 L583.79 239.02 L649.57 236.44 L653.86 309.00 L655.51 381.64 L591.45 379.41 L528.18 374.58 Z" fill="#d37125" stroke="#d37125"/><path d="M531.49 505.50 L531.49 505.50 L591.32 510.76 L596.97 442.99 L652.19 452.33 L650.46 514.77 L650.01 575.04 L585.58 576.44 L520.21 574.10 Z" fill="#dd7220" stroke="#dd7220"/><path d="M507.80 704.97 L507.80 704.97 L576.62 701.96 L584.09 635.87 L651.74 633.84 L645.08 698.71 L636.70 764.75 L569.00 767.85 L500.83 767.49 Z" fill="#ce6822" stroke="#ce6822"/><path d="M502.28 894.85 L502.28 894.85 L568.48 895.24 L565.98 827.43 L630.25 829.20 L635.18 895.35 L645.00 961.77 L574.25 964.86 L503.81 964.63 Z" fill="#cc8728" stroke="#cc8728"/><path d="M710.77 114.63 L710.77 114.63 L779.65 112.23 L783.50 45.78 L849.86 39.08 L850.42 111.06 L848.95 180.23 L779.71 178.60 L713.52 177.47 Z" fill="#e77f2e" stroke="#e77f2e"/><path d="M715.49 311.22 L715.49 311.22 L778.50 313.49 L784.92 244.80 L844.88 245.51 L843.67 315.60 L840.73 383.78 L774.60 382.54 L713.39 381.91 Z" fill="#d27527" stroke="#d27527"/><path d="M712.56 515.00 L712.56 515.00 L775.47 514.70 L776.71 451.77 L834.52 448.07 L839.27 513.90 L844.10 577.86 L776.46 576.62 L712.09 575.67 Z" fill="#cc6c0e" stroke="#cc6c0e"/><path d="M712.63 699.56 L712.63 699.56 L780.33 700.07 L783.72 638.87 L844.75 637.08 L848.27 699.87 L851.28 762.21 L776.45 761.68 L705.23 762.64 Z" fill="#d37a27" stroke="#d37a27"/><path d="M707.19 893.88 L707.19 893.88 L779.13 891.79 L780.21 825.46 L850.30 820.16 L850.67 888.93 L850.48 961.02 L777.80 959.63 L709.81 960.01 Z" fill="#f78734" stroke="#f78734"/><path d="M918.43 111.38 L918.43 111.38 L985.37 113.17 L989.48 52.90 L1066.00 49.12 L1051.03 117.27 L1040.70 180.05 L978.81 177.28 L914.71 178.01 Z" fill="#d25619" stroke="#d25619"/><path d="M907.35 313.12 L907.35 313.12 L970.16 310.72 L969.44 246.45 L1037.14 235.92 L1031.71 309.50 L1030.96 379.79 L970.05 377.84 L906.24 379.98 Z" fill="#e0842a" stroke="#e0842a"/><path d="M903.01 512.18 L903.01 512.18 L967.33 510.15 L966.97 450.43 L1038.21 441.86 L1032.69 507.79 L1029.02 571.55 L968.36 570.41 L906.78 573.35 Z" fill="#d17a22" stroke="#d17a22"/><path d="M911.74 699.75 L911.74 699.75 L974.74 699.28 L969.48 637.03 L1034.48 629.04 L1037.87 698.16 L1044.26 768.51 L981.60 762.52 L917.40 761.17 Z" fill="#de7827" stroke="#de7827"/><path d="M918.44 891.74 L918.44 891.74 L985.94 894.96 L989.78 832.51 L1061.50 832.65 L1053.80 897.67 L1038.67 961.36 L977.72 956.08 L915.07 957.11 Z" fill="#c45717" stroke="#c45717"/><path d="M905.17 1095.47 L905.17 1095.47 L968.14 1090.11 L971.30 1024.80 L1034.74 1017.51 L1031.15 1084.39 L1028.86 1156.01 L966.86 1154.65 L903.83 1161.69 Z" fill="#d58125" stroke="#d58125"/><path d="M7.66 -6.33 L7.66 -6.33 L76.33 0.37 L68.04 -73.75 L127.73 -78.02 L133.23 -2.91 L142.53 69.74 L78.41 67.44 L14.14 63.92 Z" fill="#d27719" stroke="#d27719"/><path d="M-0.97 183.14 L-0.97 183.14 L66.66 186.01 L74.49 129.07 L132.89 127.63 L127.02 183.39 L126.42 236.91 L54.14 237.26 L-9.91 243.82 Z" fill="#e17526" stroke="#e17526"/><path d="M-12.23 366.32 L-12.23 366.32 L50.64 365.42 L51.56 300.74 L120.61 302.50 L118.79 368.66 L124.35 433.82 L50.85 430.13 L-9.65 433.20 Z" fill="#d2721e" stroke="#d2721e"/><path d="M-12.24 564.11 L-12.24 564.11 L52.28 562.87 L50.93 496.05 L120.35 499.50 L118.68 564.80 L125.98 629.04 L56.45 631.18 L-9.49 636.22 Z" fill="#d47228" stroke="#d47228"/><path d="M-3.76 766.14 L-3.76 766.14 L61.28 768.52 L58.75 699.70 L124.06 699.69 L122.81 771.54 L131.47 841.55 L66.14 838.10 L3.26 836.70 Z" fill="#cb711c" stroke="#cb711c"/><path d="M1.72 968.79 L1.72 968.79 L69.75 972.51 L68.22 905.61 L131.17 907.89 L129.10 971.97 L135.07 1032.50 L73.76 1040.35 L4.15 1040.71 Z" fill="#d27024" stroke="#d27024"/><path d="M193.26 -5.10 L193.26 -5.10 L255.25 -6.82 L254.64 -83.34 L318.13 -82.06 L317.76 -10.82 L312.46 58.99 L252.54 72.44 L199.42 71.83 Z" fill="#c65c1e" stroke="#c65c1e"/><path d="M191.22 180.83 L191.22 180.83 L257.40 178.60 L256.40 124.45 L318.08 120.14 L319.71 179.49 L316.01 236.83 L254.62 236.25 L192.46 236.54 Z" fill="#d57825" stroke="#d57825"/><path d="M190.08 370.47 L190.08 370.47 L263.05 371.56 L259.88 302.31 L325.78 306.65 L333.33 374.04 L335.08 435.45 L261.49 444.67 L193.86 439.37 Z" fill="#e06d0d" stroke="#e06d0d"/><path d="M188.94 564.57 L188.94 564.57 L260.90 563.72 L262.22 504.40 L331.81 503.76 L326.21 570.28 L317.47 630.09 L254.18 627.47 L191.34 627.83 Z" fill="#d07629" stroke="#d07629"/><path d="M188.57 772.48 L188.57 772.48 L256.18 772.36 L255.00 698.14 L316.21 701.80 L316.14 774.61 L313.28 840.60 L252.02 851.44 L192.86 846.72 Z" fill="#cb6626" stroke="#cb6626"/><path d="M191.72 968.12 L191.72 968.12 L255.92 963.14 L253.51 910.71 L314.02 905.28 L315.61 967.74 L314.49 1022.59 L252.31 1020.32 L194.17 1025.72 Z" fill="#d26b25" stroke="#d26b25"/><path d="M378.66 -16.26 L378.66 -16.26 L438.45 -22.64 L440.80 -83.38 L509.81 -82.30 L506.63 -18.83 L507.82 43.52 L443.65 45.92 L376.46 50.46 Z" fill="#dc751b" stroke="#dc751b"/><path d="M379.91 179.33 L379.91 179.33 L438.67 178.39 L437.71 108.84 L506.20 112.25 L508.80 179.81 L516.80 245.73 L448.63 256.40 L380.91 244.16 Z" fill="#d67f2c" stroke="#d67f2c"/><path d="M400.70 372.24 L400.70 372.24 L465.67 367.28 L454.42 309.98 L520.80 310.63 L528.18 374.58 L541.75 437.13 L486.55 434.59 L410.37 432.50 Z" fill="#c77528" stroke="#c77528"/><path d="M390.46 571.34 L390.46 571.34 L453.95 568.19 L471.01 499.06 L531.49 505.50 L520.21 574.10 L516.22 640.84 L448.15 648.65 L382.20 637.61 Z" fill="#cf7028" stroke="#cf7028"/><path d="M374.65 771.32 L374.65 771.32 L432.23 763.84 L438.63 707.74 L507.80 704.97 L500.83 767.49 L502.05 827.41 L438.45 829.08 L375.48 833.36 Z" fill="#f17c10" stroke="#f17c10"/><path d="M374.74 966.66 L374.74 966.66 L433.68 961.23 L436.55 894.20 L502.28 894.85 L503.81 964.63 L512.99 1031.51 L440.97 1037.08 L377.36 1028.53 Z" fill="#ce7124" stroke="#ce7124"/><path d="M575.23 -16.70 L575.23 -16.70 L644.25 -16.33 L650.05 -85.90 L714.18 -84.49 L710.94 -17.27 L710.41 52.50 L633.07 58.48 L570.97 47.61 Z" fill="#ca751a" stroke="#ca751a"/><path d="M579.01 179.32 L579.01 179.32 L649.30 176.84 L643.24 117.67 L710.77 114.63 L713.52 177.47 L719.25 241.43 L649.57 236.44 L583.79 239.02 Z" fill="#dd7d21" stroke="#dd7d21"/><path d="M591.45 379.41 L591.45 379.41 L655.51 381.64 L653.86 309.00 L715.49 311.22 L713.39 381.91 L715.51 453.11 L652.19 452.33 L596.97 442.99 Z" fill="#d77231" stroke="#d77231"/><path d="M585.58 576.44 L585.58 576.44 L650.01 575.04 L650.46 514.77 L712.56 515.00 L712.09 575.67 L719.07 637.42 L651.74 633.84 L584.09 635.87 Z" fill="#de7d20" stroke="#de7d20"/><path d="M569.00 767.85 L569.00 767.85 L636.70 764.75 L645.08 698.71 L712.63 699.56 L705.23 762.64 L706.35 828.30 L630.25 829.20 L565.98 827.43 Z" fill="#d16d22" stroke="#d16d22"/><path d="M574.25 964.86 L574.25 964.86 L645.00 961.77 L635.18 895.35 L707.19 893.88 L709.81 960.01 L720.92 1028.72 L656.35 1026.32 L584.79 1027.89 Z" fill="#e38323" stroke="#e38323"/><path d="M779.38 -18.38 L779.38 -18.38 L850.33 -19.64 L848.73 -81.45 L914.05 -82.83 L918.40 -18.26 L918.11 47.60 L849.86 39.08 L783.50 45.78 Z" fill="#d27822" stroke="#d27822"/><path d="M779.71 178.60 L779.71 178.60 L848.95 180.23 L850.42 111.06 L918.43 111.38 L914.71 178.01 L905.92 248.29 L844.88 245.51 L784.92 244.80 Z" fill="#d07424" stroke="#d07424"/><path d="M774.60 382.54 L774.60 382.54 L840.73 383.78 L843.67 315.60 L907.35 313.12 L906.24 379.98 L899.32 451.06 L834.52 448.07 L776.71 451.77 Z" fill="#e96f24" stroke="#e96f24"/><path d="M776.46 576.62 L776.46 576.62 L844.10 577.86 L839.27 513.90 L903.01 512.18 L906.78 573.35 L906.51 638.64 L844.75 637.08 L783.72 638.87 Z" fill="#d57522" stroke="#d57522"/><path d="M776.45 761.68 L776.45 761.68 L851.28 762.21 L848.27 699.87 L911.74 699.75 L917.40 761.17 L919.64 827.07 L850.30 820.16 L780.21 825.46 Z" fill="#c35f1d" stroke="#c35f1d"/><path d="M777.80 959.63 L777.80 959.63 L850.48 961.02 L850.67 888.93 L918.44 891.74 L915.07 957.11 L908.16 1027.88 L845.36 1028.65 L783.97 1029.74 Z" fill="#d57421" stroke="#d57421"/><path d="M985.13 -16.04 L985.13 -16.04 L1050.08 -12.93 L1040.36 -81.19 L1106.71 -81.93 L1117.08 -14.28 L1131.96 53.15 L1066.00 49.12 L989.48 52.90 Z" fill="#e5902e" stroke="#e5902e"/><path d="M978.81 177.28 L978.81 177.28 L1040.70 180.05 L1051.03 117.27 L1117.47 116.39 L1106.97 179.20 L1102.34 241.62 L1037.14 235.92 L969.44 246.45 Z" fill="#d4681c" stroke="#d4681c"/><path d="M970.05 377.84 L970.05 377.84 L1030.96 379.79 L1031.71 309.50 L1097.33 309.55 L1096.33 377.56 L1101.98 444.82 L1038.21 441.86 L966.97 450.43 Z" fill="#c7641f" stroke="#c7641f"/><path d="M968.36 570.41 L968.36 570.41 L1029.02 571.55 L1032.69 507.79 L1097.66 506.64 L1095.02 567.66 L1100.05 629.13 L1034.48 629.04 L969.48 637.03 Z" fill="#d66e1a" stroke="#d66e1a"/><path d="M981.60 762.52 L981.60 762.52 L1044.26 768.51 L1037.87 698.16 L1104.19 697.70 L1110.95 768.45 L1126.44 839.77 L1061.50 832.65 L989.78 832.51 Z" fill="#e18f2c" stroke="#e18f2c"/><path d="M977.72 956.08 L977.72 956.08 L1038.67 961.36 L1053.80 897.67 L1120.63 901.41 L1108.39 958.83 L1105.37 1014.64 L1034.74 1017.51 L971.30 1024.80 Z" fill="#d56b22" stroke="#d56b22"/><path d="M-117.41 42.18 L-117.41 42.18 L-50.86 56.76 L-62.57 -12.93 L7.66 -6.33 L14.14 63.92 L7.09 123.32 L-61.96 117.65 L-131.10 114.96 Z" fill="#d47023" stroke="#d47023"/><path d="M-122.65 824.83 L-122.65 824.83 L-59.42 833.32 L-69.73 765.72 L-3.76 766.14 L3.26 836.70 L3.41 902.93 L-61.76 899.32 L-126.99 893.83 Z" fill="#d27128" stroke="#d27128"/><path d="M-137.78 1032.01 L-137.78 1032.01 L-66.89 1038.11 L-67.66 965.93 L1.72 968.79 L4.15 1040.71 L-1.91 1098.95 L-70.58 1098.59 L-139.07 1096.95 Z" fill="#de752b" stroke="#de752b"/><path d="M78.41 67.44 L78.41 67.44 L142.53 69.74 L133.23 -2.91 L193.26 -5.10 L199.42 71.83 L193.89 126.17 L132.89 127.63 L74.49 129.07 Z" fill="#d77d20" stroke="#d77d20"/><path d="M54.14 237.26 L54.14 237.26 L126.42 236.91 L127.02 183.39 L191.22 180.83 L192.46 236.54 L190.24 302.67 L120.61 302.50 L51.56 300.74 Z" fill="#c86c23" stroke="#c86c23"/><path d="M50.85 430.13 L50.85 430.13 L124.35 433.82 L118.79 368.66 L190.08 370.47 L193.86 439.37 L190.99 502.29 L120.35 499.50 L50.93 496.05 Z" fill="#d77d20" stroke="#d77d20"/><path d="M56.45 631.18 L56.45 631.18 L125.98 629.04 L118.68 564.80 L188.94 564.57 L191.34 627.83 L189.64 698.93 L124.06 699.69 L58.75 699.70 Z" fill="#d7741b" stroke="#d7741b"/><path d="M66.14 838.10 L66.14 838.10 L131.47 841.55 L122.81 771.54 L188.57 772.48 L192.86 846.72 L192.77 909.74 L131.17 907.89 L68.22 905.61 Z" fill="#da7b1e" stroke="#da7b1e"/><path d="M73.76 1040.35 L73.76 1040.35 L135.07 1032.50 L129.10 971.97 L191.72 968.12 L194.17 1025.72 L192.29 1088.28 L129.35 1093.13 L66.01 1098.00 Z" fill="#d9742d" stroke="#d9742d"/><path d="M252.54 72.44 L252.54 72.44 L312.46 58.99 L317.76 -10.82 L378.66 -16.26 L376.46 50.46 L378.36 114.80 L318.08 120.14 L256.40 124.45 Z" fill="#e48416" stroke="#e48416"/><path d="M254.62 236.25 L254.62 236.25 L316.01 236.83 L319.71 179.49 L379.91 179.33 L380.91 244.16 L390.53 309.09 L325.78 306.65 L259.88 302.31 Z" fill="#cd7426" stroke="#cd7426"/><path d="M261.49 444.67 L261.49 444.67 L335.08 435.45 L333.33 374.04 L400.70 372.24 L410.37 432.50 L401.48 501.83 L331.81 503.76 L262.22 504.40 Z" fill="#df7c1e" stroke="#df7c1e"/><path d="M254.18 627.47 L254.18 627.47 L317.47 630.09 L326.21 570.28 L390.46 571.34 L382.20 637.61 L377.36 705.01 L316.21 701.80 L255.00 698.14 Z" fill="#d16628" stroke="#d16628"/><path d="M252.02 851.44 L252.02 851.44 L313.28 840.60 L316.14 774.61 L374.65 771.32 L375.48 833.36 L375.04 899.72 L314.02 905.28 L253.51 910.71 Z" fill="#e08227" stroke="#e08227"/><path d="M252.31 1020.32 L252.31 1020.32 L314.49 1022.59 L315.61 967.74 L374.74 966.66 L377.36 1028.53 L384.18 1092.70 L319.60 1087.92 L255.15 1084.19 Z" fill="#d27622" stroke="#d27622"/><path d="M443.65 45.92 L443.65 45.92 L507.82 43.52 L506.63 -18.83 L575.23 -16.70 L570.97 47.61 L574.71 115.20 L506.20 112.25 L437.71 108.84 Z" fill="#d46d1c" stroke="#d46d1c"/><path d="M448.63 256.40 L448.63 256.40 L516.80 245.73 L508.80 179.81 L579.01 179.32 L583.79 239.02 L587.28 310.32 L520.80 310.63 L454.42 309.98 Z" fill="#f1792e" stroke="#f1792e"/><path d="M486.55 434.59 L486.55 434.59 L541.75 437.13 L528.18 374.58 L591.45 379.41 L596.97 442.99 L591.32 510.76 L531.49 505.50 L471.01 499.06 Z" fill="#cf6e1f" stroke="#cf6e1f"/><path d="M448.15 648.65 L448.15 648.65 L516.22 640.84 L520.21 574.10 L585.58 576.44 L584.09 635.87 L576.62 701.96 L507.80 704.97 L438.63 707.74 Z" fill="#c77f27" stroke="#c77f27"/><path d="M438.45 829.08 L438.45 829.08 L502.05 827.41 L500.83 767.49 L569.00 767.85 L565.98 827.43 L568.48 895.24 L502.28 894.85 L436.55 894.20 Z" fill="#d26717" stroke="#d26717"/><path d="M440.97 1037.08 L440.97 1037.08 L512.99 1031.51 L503.81 964.63 L574.25 964.86 L584.79 1027.89 L587.06 1094.80 L518.11 1096.31 L448.97 1098.15 Z" fill="#e17024" stroke="#e17024"/><path d="M633.07 58.48 L633.07 58.48 L710.41 52.50 L710.94 -17.27 L779.38 -18.38 L783.50 45.78 L779.65 112.23 L710.77 114.63 L643.24 117.67 Z" fill="#d1711d" stroke="#d1711d"/><path d="M649.57 236.44 L649.57 236.44 L719.25 241.43 L713.52 177.47 L779.71 178.60 L784.92 244.80 L778.50 313.49 L715.49 311.22 L653.86 309.00 Z" fill="#ca7216" stroke="#ca7216"/><path d="M652.19 452.33 L652.19 452.33 L715.51 453.11 L713.39 381.91 L774.60 382.54 L776.71 451.77 L775.47 514.70 L712.56 515.00 L650.46 514.77 Z" fill="#d46d1a" stroke="#d46d1a"/><path d="M651.74 633.84 L651.74 633.84 L719.07 637.42 L712.09 575.67 L776.46 576.62 L783.72 638.87 L780.33 700.07 L712.63 699.56 L645.08 698.71 Z" fill="#e48d3c" stroke="#e48d3c"/><path d="M630.25 829.20 L630.25 829.20 L706.35 828.30 L705.23 762.64 L776.45 761.68 L780.21 825.46 L779.13 891.79 L707.19 893.88 L635.18 895.35 Z" fill="#d76b1d" stroke="#d76b1d"/><path d="M656.35 1026.32 L656.35 1026.32 L720.92 1028.72 L709.81 960.01 L777.80 959.63 L783.97 1029.74 L780.87 1097.71 L718.71 1095.58 L655.80 1093.61 Z" fill="#c76e1a" stroke="#c76e1a"/><path d="M849.86 39.08 L849.86 39.08 L918.11 47.60 L918.40 -18.26 L985.13 -16.04 L989.48 52.90 L985.37 113.17 L918.43 111.38 L850.42 111.06 Z" fill="#d67d28" stroke="#d67d28"/><path d="M844.88 245.51 L844.88 245.51 L905.92 248.29 L914.71 178.01 L978.81 177.28 L969.44 246.45 L970.16 310.72 L907.35 313.12 L843.67 315.60 Z" fill="#cc7629" stroke="#cc7629"/><path d="M834.52 448.07 L834.52 448.07 L899.32 451.06 L906.24 379.98 L970.05 377.84 L966.97 450.43 L967.33 510.15 L903.01 512.18 L839.27 513.90 Z" fill="#d26f28" stroke="#d26f28"/><path d="M844.75 637.08 L844.75 637.08 L906.51 638.64 L906.78 573.35 L968.36 570.41 L969.48 637.03 L974.74 699.28 L911.74 699.75 L848.27 699.87 Z" fill="#dd6d11" stroke="#dd6d11"/><path d="M850.30 820.16 L850.30 820.16 L919.64 827.07 L917.40 761.17 L981.60 762.52 L989.78 832.51 L985.94 894.96 L918.44 891.74 L850.67 888.93 Z" fill="#dc7926" stroke="#dc7926"/><path d="M845.36 1028.65 L845.36 1028.65 L908.16 1027.88 L915.07 957.11 L977.72 956.08 L971.30 1024.80 L968.14 1090.11 L905.17 1095.47 L842.38 1099.84 Z" fill="#d67333" stroke="#d67333"/></svg>