<svg xmlns="http://www.w3.org/2000/svg" width="1024" height="786"><path d="M-125.47 64.20 L-125.47 64.20 L-55.81 65.26 L-60.38 7.24 L2.39 10.99 L6.61 68.26 L0.93 123.69 L-60.84 120.99 L-120.43 117.19 Z" fill="#3bb4dd" stroke="#3bb4dd"/><path d="M66.34 71.99 L66.34 71.99 L124.34 70.65 L120.29 13.89 L175.05 12.89 L182.32 69.64 L174.25 126.47 L118.94 126.32 L63.50 125.97 Z" fill="#46b3da" stroke="#46b3da"/><path d="M45.73 221.39 L45.73 221.39 L101.50 222.03 L112.01 178.38 L166.01 179.42 L157.38 223.27 L154.21 275.14 L96.91 273.29 L39.59 271.89 Z" fill="#35b3dd" stroke="#35b3dd"/><path d="M38.13 383.69 L38.13 383.69 L97.49 383.34 L97.45 331.17 L155.80 333.96 L156.88 382.88 L157.80 428.97 L97.37 433.88 L37.69 439.67 Z" fill="#50aed0" stroke="#50aed0"/><path d="M39.80 555.48 L39.80 555.48 L97.79 558.48 L97.58 496.96 L156.71 496.53 L155.36 560.98 L153.25 615.60 L98.02 615.12 L43.10 615.33 Z" fill="#41b4dc" stroke="#41b4dc"/><path d="M48.09 733.89 L48.09 733.89 L106.02 739.17 L100.68 675.23 L155.78 676.43 L163.43 744.10 L170.01 801.98 L110.79 797.86 L51.39 793.81 Z" fill="#38b3dc" stroke="#38b3dc"/><path d="M56.66 912.39 L56.66 912.39 L114.98 914.77 L115.34 854.41 L176.14 855.87 L173.05 917.12 L169.05 976.48 L114.17 974.15 L58.42 970.91 Z" fill="#47aed4" stroke="#47aed4"/><path d="M240.45 70.65 L240.45 70.65 L292.54 75.15 L285.38 12.57 L336.28 15.75 L336.76 84.17 L335.92 129.02 L284.21 126.86 L230.14 126.12 Z" fill="#42b3d9" stroke="#42b3d9"/><path d="M213.29 226.31 L213.29 226.31 L270.28 228.12 L276.51 178.07 L333.79 176.08 L328.66 228.33 L327.26 278.71 L268.10 279.17 L210.54 277.84 Z" fill="#36aed6" stroke="#36aed6"/><path d="M215.63 382.05 L215.63 382.05 L272.70 381.51 L269.44 331.09 L329.11 327.46 L327.58 381.35 L325.05 436.79 L276.48 431.56 L220.13 429.17 Z" fill="#44b5df" stroke="#44b5df"/><path d="M210.81 560.60 L210.81 560.60 L267.97 558.54 L271.83 495.35 L326.63 494.72 L327.36 554.28 L325.39 618.95 L266.57 619.85 L209.31 618.56 Z" fill="#3cb1d9" stroke="#3cb1d9"/><path d="M218.77 746.32 L218.77 746.32 L275.13 746.54 L268.83 682.47 L327.08 682.29 L332.81 744.15 L335.40 808.11 L283.74 807.73 L228.32 805.55 Z" fill="#31add6" stroke="#31add6"/><path d="M230.29 919.09 L230.29 919.09 L285.50 920.72 L293.31 867.75 L336.72 872.91 L338.06 921.92 L337.49 970.16 L276.99 972.52 L221.21 974.61 Z" fill="#4ab5db" stroke="#4ab5db"/><path d="M211.57 1073.18 L211.57 1073.18 L266.54 1070.89 L269.78 1020.82 L328.32 1018.94 L325.39 1068.89 L331.17 1120.48 L268.89 1123.43 L211.77 1125.74 Z" fill="#3cb1d8" stroke="#3cb1d8"/><path d="M386.15 91.23 L386.15 91.23 L438.09 97.32 L437.93 21.72 L496.53 19.35 L493.20 89.77 L496.81 132.10 L437.46 134.27 L386.88 131.55 Z" fill="#3eb3da" stroke="#3eb3da"/><path d="M390.52 227.60 L390.52 227.60 L454.08 226.41 L440.95 175.43 L500.47 176.09 L504.24 224.00 L504.19 274.19 L453.14 275.67 L389.46 277.40 Z" fill="#46b5dc" stroke="#46b5dc"/><path d="M382.29 381.35 L382.29 381.35 L436.92 381.43 L439.98 323.43 L500.81 326.38 L497.01 382.36 L493.12 439.48 L436.86 442.42 L379.51 440.08 Z" fill="#3db3db" stroke="#3db3db"/><path d="M383.50 551.18 L383.50 551.18 L438.05 548.66 L435.96 493.86 L496.32 495.79 L499.44 553.07 L502.28 613.38 L449.61 614.03 L386.85 616.80 Z" fill="#3db0d8" stroke="#3db0d8"/><path d="M387.41 741.56 L387.41 741.56 L440.50 738.85 L450.78 677.49 L502.43 676.05 L499.59 741.34 L498.19 809.25 L439.49 809.54 L387.37 808.76 Z" fill="#41b4dc" stroke="#41b4dc"/><path d="M389.59 922.89 L389.59 922.89 L440.62 923.75 L442.25 884.03 L497.37 878.23 L498.88 923.28 L500.78 967.62 L440.93 963.99 L390.95 967.22 Z" fill="#45b5db" stroke="#45b5db"/><path d="M387.93 1067.07 L387.93 1067.07 L452.29 1065.32 L451.11 1015.44 L503.87 1014.95 L504.35 1064.55 L501.17 1117.35 L440.88 1113.00 L387.49 1116.90 Z" fill="#3eb3dc" stroke="#3eb3dc"/><path d="M550.38 81.04 L550.38 81.04 L618.17 73.78 L615.05 13.03 L673.18 9.71 L678.96 68.87 L671.99 123.27 L614.55 125.69 L556.73 129.28 Z" fill="#3db1d9" stroke="#3db1d9"/><path d="M554.00 221.57 L554.00 221.57 L609.84 219.78 L611.52 175.35 L666.91 174.63 L666.23 218.91 L666.99 272.36 L610.48 272.28 L554.76 272.87 Z" fill="#49b2d7" stroke="#49b2d7"/><path d="M557.52 383.47 L557.52 383.47 L617.06 385.05 L613.14 331.80 L668.99 333.76 L676.18 386.19 L684.81 436.01 L621.32 436.48 L551.23 436.48 Z" fill="#2eb1dd" stroke="#2eb1dd"/><path d="M560.25 557.75 L560.25 557.75 L613.16 559.62 L617.01 499.07 L675.40 499.99 L668.08 561.37 L667.39 614.53 L610.78 613.78 L554.55 613.10 Z" fill="#43aed4" stroke="#43aed4"/><path d="M558.38 743.94 L558.38 743.94 L611.46 743.99 L610.15 675.00 L666.70 675.16 L666.03 744.03 L671.53 805.54 L615.18 807.21 L557.36 808.69 Z" fill="#46b6de" stroke="#46b6de"/><path d="M557.87 922.52 L557.87 922.52 L616.75 920.94 L619.87 868.09 L679.54 864.07 L673.51 919.04 L668.10 972.23 L613.64 972.06 L560.56 971.45 Z" fill="#37acd4" stroke="#37acd4"/><path d="M556.02 1064.30 L556.02 1064.30 L613.12 1066.64 L612.61 1017.41 L669.02 1018.36 L670.18 1068.02 L671.67 1122.61 L615.77 1121.30 L561.27 1121.76 Z" fill="#45b4dc" stroke="#45b4dc"/><path d="M728.14 67.86 L728.14 67.86 L780.47 63.80 L785.08 3.63 L839.87 1.18 L834.81 57.80 L838.28 114.11 L784.03 119.40 L728.79 122.81 Z" fill="#41b3d9" stroke="#41b3d9"/><path d="M723.53 219.56 L723.53 219.56 L782.38 221.25 L785.57 172.84 L841.06 169.69 L842.22 223.60 L843.69 278.42 L783.86 275.65 L724.80 273.51 Z" fill="#3daed5" stroke="#3daed5"/><path d="M734.58 386.61 L734.58 386.61 L790.73 386.78 L789.38 335.27 L845.43 334.03 L845.43 386.79 L844.92 438.75 L790.82 435.95 L737.34 434.73 Z" fill="#38b4df" stroke="#38b4df"/><path d="M726.31 562.90 L726.31 562.90 L784.76 562.72 L787.65 500.54 L844.28 500.50 L843.33 561.46 L841.40 619.87 L782.72 617.31 L724.61 615.41 Z" fill="#44b2d7" stroke="#44b2d7"/><path d="M723.07 744.04 L723.07 744.04 L780.47 742.98 L781.28 677.22 L839.65 679.75 L838.10 741.24 L834.96 798.63 L779.99 801.21 L725.44 803.55 Z" fill="#49b2d7" stroke="#49b2d7"/><path d="M726.78 916.59 L726.78 916.59 L780.65 914.23 L779.64 856.37 L831.16 854.36 L834.91 911.92 L838.73 968.49 L781.77 970.32 L724.88 971.66 Z" fill="#2eb1df" stroke="#2eb1df"/><path d="M727.18 1067.81 L727.18 1067.81 L785.21 1070.07 L783.02 1017.71 L840.93 1020.10 L843.91 1073.90 L847.99 1130.75 L788.74 1129.36 L729.89 1126.86 Z" fill="#46b3d8" stroke="#46b3d8"/><path d="M895.44 53.27 L895.44 53.27 L956.93 48.76 L957.41 -7.94 L1016.38 -12.25 L1015.25 41.46 L1015.45 101.51 L956.23 104.78 L896.87 109.34 Z" fill="#37afd9" stroke="#37afd9"/><path d="M900.58 226.71 L900.58 226.71 L958.36 229.82 L956.35 163.79 L1014.89 163.79 L1012.58 231.27 L1011.78 288.23 L957.73 285.67 L901.05 282.02 Z" fill="#3dafd5" stroke="#3dafd5"/><path d="M900.57 387.23 L900.57 387.23 L955.82 387.94 L954.79 332.67 L1012.30 336.04 L1011.38 390.95 L1010.03 447.97 L958.01 445.67 L901.44 442.20 Z" fill="#47b6dd" stroke="#47b6dd"/><path d="M898.42 561.03 L898.42 561.03 L953.09 560.94 L954.95 501.97 L1010.32 503.84 L1010.25 562.89 L1009.03 631.95 L954.98 628.30 L898.45 623.98 Z" fill="#3ab0d8" stroke="#3ab0d8"/><path d="M894.64 738.16 L894.64 738.16 L951.21 735.01 L954.44 686.63 L1009.08 689.36 L1010.54 733.92 L1011.34 787.75 L952.12 791.10 L893.23 794.94 Z" fill="#44b2d6" stroke="#44b2d6"/><path d="M893.39 908.18 L893.39 908.18 L952.74 904.18 L954.72 850.30 L1011.89 845.35 L1013.26 900.33 L1013.71 957.41 L951.49 959.65 L894.93 964.19 Z" fill="#3eb2dc" stroke="#3eb2dc"/><path d="M900.30 1077.61 L900.30 1077.61 L956.06 1081.18 L954.69 1023.65 L1009.78 1024.64 L1009.35 1083.52 L1013.81 1130.70 L954.84 1129.66 L901.66 1130.30 Z" fill="#3aafd7" stroke="#3aafd7"/><path d="M-64.48 -51.35 L-64.48 -51.35 L-2.45 -47.91 L-6.99 -114.14 L48.15 -116.16 L62.35 -45.12 L65.60 14.70 L2.39 10.99 L-60.38 7.24 Z" fill="#38afd6" stroke="#38afd6"/><path d="M-60.84 120.99 L-60.84 120.99 L0.93 123.69 L6.61 68.26 L66.34 71.99 L63.50 125.97 L57.88 177.06 L-4.07 176.87 L-63.79 175.86 Z" fill="#4bb6dd" stroke="#4bb6dd"/><path d="M-64.01 281.19 L-64.01 281.19 L-11.55 276.54 L-7.45 224.81 L45.73 221.39 L39.59 271.89 L38.68 327.75 L-16.29 331.55 L-69.70 333.43 Z" fill="#38aed5" stroke="#38aed5"/><path d="M-68.82 431.75 L-68.82 431.75 L-14.31 434.77 L-16.04 383.58 L38.13 383.69 L37.69 439.67 L38.43 497.31 L-15.62 496.74 L-69.81 495.81 Z" fill="#3fb2da" stroke="#3fb2da"/><path d="M-62.56 620.17 L-62.56 620.17 L-9.21 617.48 L-15.18 558.09 L39.80 555.48 L43.10 615.33 L45.88 674.82 L-7.18 677.21 L-61.36 680.37 Z" fill="#41b3da" stroke="#41b3da"/><path d="M-65.43 796.03 L-65.43 796.03 L-7.11 795.05 L-9.47 737.32 L48.09 733.89 L51.39 793.81 L55.11 854.06 L-2.85 851.82 L-62.85 851.17 Z" fill="#47b6dd" stroke="#47b6dd"/><path d="M-62.49 971.32 L-62.49 971.32 L-2.65 971.75 L-3.20 911.94 L56.66 912.39 L58.42 970.91 L61.73 1030.72 L3.08 1029.26 L-56.52 1028.37 Z" fill="#3bb0d7" stroke="#3bb0d7"/><path d="M114.39 -45.30 L114.39 -45.30 L166.58 -46.01 L157.34 -115.36 L212.07 -114.12 L221.23 -48.41 L231.40 11.81 L175.05 12.89 L120.29 13.89 Z" fill="#40b4da" stroke="#40b4da"/><path d="M118.94 126.32 L118.94 126.32 L174.25 126.47 L182.32 69.64 L240.45 70.65 L230.14 126.12 L220.69 179.11 L166.01 179.42 L112.01 178.38 Z" fill="#43b0d7" stroke="#43b0d7"/><path d="M96.91 273.29 L96.91 273.29 L154.21 275.14 L157.38 223.27 L213.29 226.31 L210.54 277.84 L211.83 333.14 L155.80 333.96 L97.45 331.17 Z" fill="#3ab5dd" stroke="#3ab5dd"/><path d="M97.37 433.88 L97.37 433.88 L157.80 428.97 L156.88 382.88 L215.63 382.05 L220.13 429.17 L215.04 495.95 L156.71 496.53 L97.58 496.96 Z" fill="#46b3d9" stroke="#46b3d9"/><path d="M98.02 615.12 L98.02 615.12 L153.25 615.60 L155.36 560.98 L210.81 560.60 L209.31 618.56 L211.83 680.34 L155.78 676.43 L100.68 675.23 Z" fill="#49b1d7" stroke="#49b1d7"/><path d="M110.79 797.86 L110.79 797.86 L170.01 801.98 L163.43 744.10 L218.77 746.32 L228.32 805.55 L238.94 862.02 L176.14 855.87 L115.34 854.41 Z" fill="#3ab1da" stroke="#3ab1da"/><path d="M114.17 974.15 L114.17 974.15 L169.05 976.48 L173.05 917.12 L230.29 919.09 L221.21 974.61 L215.07 1023.03 L163.31 1025.50 L112.54 1028.16 Z" fill="#40b2db" stroke="#40b2db"/><path d="M277.17 -50.73 L277.17 -50.73 L334.81 -52.96 L328.94 -115.18 L389.26 -116.41 L388.20 -53.83 L387.12 18.77 L336.28 15.75 L285.38 12.57 Z" fill="#3bb2da" stroke="#3bb2da"/><path d="M284.21 126.86 L284.21 126.86 L335.92 129.02 L336.76 84.17 L386.15 91.23 L386.88 131.55 L388.11 175.43 L333.79 176.08 L276.51 178.07 Z" fill="#47b2d8" stroke="#47b2d8"/><path d="M268.10 279.17 L268.10 279.17 L327.26 278.71 L328.66 228.33 L390.52 227.60 L389.46 277.40 L385.38 325.13 L329.11 327.46 L269.44 331.09 Z" fill="#3ab2dc" stroke="#3ab2dc"/><path d="M276.48 431.56 L276.48 431.56 L325.05 436.79 L327.58 381.35 L382.29 381.35 L379.51 440.08 L381.32 494.26 L326.63 494.72 L271.83 495.35 Z" fill="#3cb3db" stroke="#3cb3db"/><path d="M266.57 619.85 L266.57 619.85 L325.39 618.95 L327.36 554.28 L383.50 551.18 L386.85 616.80 L388.22 680.33 L327.08 682.29 L268.83 682.47 Z" fill="#47b2d8" stroke="#47b2d8"/><path d="M283.74 807.73 L283.74 807.73 L335.40 808.11 L332.81 744.15 L387.41 741.56 L387.37 808.76 L387.63 878.39 L336.72 872.91 L293.31 867.75 Z" fill="#38b1db" stroke="#38b1db"/><path d="M276.99 972.52 L276.99 972.52 L337.49 970.16 L338.06 921.92 L389.59 922.89 L390.95 967.22 L389.16 1017.17 L328.32 1018.94 L269.78 1020.82 Z" fill="#3cb2da" stroke="#3cb2da"/><path d="M439.51 -54.04 L439.51 -54.04 L500.09 -51.94 L502.48 -118.00 L554.75 -118.27 L560.23 -49.90 L555.91 16.36 L496.53 19.35 L437.93 21.72 Z" fill="#42afd7" stroke="#42afd7"/><path d="M437.46 134.27 L437.46 134.27 L496.81 132.10 L493.20 89.77 L550.38 81.04 L556.73 129.28 L559.52 176.55 L500.47 176.09 L440.95 175.43 Z" fill="#34b5de" stroke="#34b5de"/><path d="M453.14 275.67 L453.14 275.67 L504.19 274.19 L504.24 224.00 L554.00 221.57 L554.76 272.87 L560.99 329.63 L500.81 326.38 L439.98 323.43 Z" fill="#47add2" stroke="#47add2"/><path d="M436.86 442.42 L436.86 442.42 L493.12 439.48 L497.01 382.36 L557.52 383.47 L551.23 436.48 L557.13 497.83 L496.32 495.79 L435.96 493.86 Z" fill="#2eb0dd" stroke="#2eb0dd"/><path d="M449.61 614.03 L449.61 614.03 L502.28 613.38 L499.44 553.07 L560.25 557.75 L554.55 613.10 L553.76 674.95 L502.43 676.05 L450.78 677.49 Z" fill="#48b9df" stroke="#48b9df"/><path d="M439.49 809.54 L439.49 809.54 L498.19 809.25 L499.59 741.34 L558.38 743.94 L557.36 808.69 L554.04 871.71 L497.37 878.23 L442.25 884.03 Z" fill="#3db1d9" stroke="#3db1d9"/><path d="M440.93 963.99 L440.93 963.99 L500.78 967.62 L498.88 923.28 L557.87 922.52 L560.56 971.45 L556.31 1014.97 L503.87 1014.95 L451.11 1015.44 Z" fill="#39b1dc" stroke="#39b1dc"/><path d="M611.70 -49.63 L611.70 -49.63 L667.46 -51.02 L666.26 -117.77 L726.35 -115.27 L730.33 -55.18 L729.64 6.41 L673.18 9.71 L615.05 13.03 Z" fill="#4bb4d8" stroke="#4bb4d8"/><path d="M614.55 125.69 L614.55 125.69 L671.99 123.27 L678.96 68.87 L728.14 67.86 L728.79 122.81 L727.93 174.73 L666.91 174.63 L611.52 175.35 Z" fill="#25afdf" stroke="#25afdf"/><path d="M610.48 272.28 L610.48 272.28 L666.99 272.36 L666.23 218.91 L723.53 219.56 L724.80 273.51 L731.00 335.40 L668.99 333.76 L613.14 331.80 Z" fill="#4eb5da" stroke="#4eb5da"/><path d="M621.32 436.48 L621.32 436.48 L684.81 436.01 L676.18 386.19 L734.58 386.61 L737.34 434.73 L731.30 500.40 L675.40 499.99 L617.01 499.07 Z" fill="#41b4db" stroke="#41b4db"/><path d="M610.78 613.78 L610.78 613.78 L667.39 614.53 L668.08 561.37 L726.31 562.90 L724.61 615.41 L723.51 675.53 L666.70 675.16 L610.15 675.00 Z" fill="#34aad1" stroke="#34aad1"/><path d="M615.18 807.21 L615.18 807.21 L671.53 805.54 L666.03 744.03 L723.07 744.04 L725.44 803.55 L728.95 859.41 L679.54 864.07 L619.87 868.09 Z" fill="#48b6dc" stroke="#48b6dc"/><path d="M613.64 972.06 L613.64 972.06 L668.10 972.23 L673.51 919.04 L726.78 916.59 L724.88 971.66 L725.62 1016.85 L669.02 1018.36 L612.61 1017.41 Z" fill="#45b2d9" stroke="#45b2d9"/><path d="M789.05 -56.37 L789.05 -56.37 L845.11 -55.66 L848.40 -113.46 L905.17 -112.05 L901.56 -59.13 L898.31 -3.22 L839.87 1.18 L785.08 3.63 Z" fill="#3fb0d8" stroke="#3fb0d8"/><path d="M784.03 119.40 L784.03 119.40 L838.28 114.11 L834.81 57.80 L895.44 53.27 L896.87 109.34 L898.49 166.61 L841.06 169.69 L785.57 172.84 Z" fill="#3eb3dc" stroke="#3eb3dc"/><path d="M783.86 275.65 L783.86 275.65 L843.69 278.42 L842.22 223.60 L900.58 226.71 L901.05 282.02 L900.11 333.15 L845.43 334.03 L789.38 335.27 Z" fill="#3eafd5" stroke="#3eafd5"/><path d="M790.82 435.95 L790.82 435.95 L844.92 438.75 L845.43 386.79 L900.57 387.23 L901.44 442.20 L899.72 501.13 L844.28 500.50 L787.65 500.54 Z" fill="#43b3da" stroke="#43b3da"/><path d="M782.72 617.31 L782.72 617.31 L841.40 619.87 L843.33 561.46 L898.42 561.03 L898.45 623.98 L897.23 683.15 L839.65 679.75 L781.28 677.22 Z" fill="#37b1dd" stroke="#37b1dd"/><path d="M779.99 801.21 L779.99 801.21 L834.96 798.63 L838.10 741.24 L894.64 738.16 L893.23 794.94 L892.30 852.45 L831.16 854.36 L779.64 856.37 Z" fill="#42b0d5" stroke="#42b0d5"/><path d="M781.77 970.32 L781.77 970.32 L838.73 968.49 L834.91 911.92 L893.39 908.18 L894.93 964.19 L897.96 1021.96 L840.93 1020.10 L783.02 1017.71 Z" fill="#3eb1d7" stroke="#3eb1d7"/><path d="M956.23 104.78 L956.23 104.78 L1015.45 101.51 L1015.25 41.46 L1074.82 36.66 L1073.90 99.52 L1072.28 163.67 L1014.89 163.79 L956.35 163.79 Z" fill="#48b4db" stroke="#48b4db"/><path d="M957.73 285.67 L957.73 285.67 L1011.78 288.23 L1012.58 231.27 L1069.00 230.88 L1067.69 289.07 L1068.09 339.44 L1012.30 336.04 L954.79 332.67 Z" fill="#38afd7" stroke="#38afd7"/><path d="M958.01 445.67 L958.01 445.67 L1010.03 447.97 L1011.38 390.95 L1066.27 394.72 L1063.82 451.47 L1065.22 507.13 L1010.32 503.84 L954.95 501.97 Z" fill="#3cadd4" stroke="#3cadd4"/><path d="M954.98 628.30 L954.98 628.30 L1009.03 631.95 L1010.25 562.89 L1066.05 565.61 L1065.05 632.98 L1065.84 689.21 L1009.08 689.36 L954.44 686.63 Z" fill="#42b4dd" stroke="#42b4dd"/><path d="M952.12 791.10 L952.12 791.10 L1011.34 787.75 L1010.54 733.92 L1068.59 733.16 L1069.81 785.26 L1070.39 840.67 L1011.89 845.35 L954.72 850.30 Z" fill="#47b5d8" stroke="#47b5d8"/><path d="M951.49 959.65 L951.49 959.65 L1013.71 957.41 L1013.26 900.33 L1072.15 897.40 L1072.53 956.17 L1066.39 1023.82 L1009.78 1024.64 L954.69 1023.65 Z" fill="#34add7" stroke="#34add7"/><path d="M2.39 10.99 L2.39 10.99 L65.60 14.70 L62.35 -45.12 L114.39 -45.30 L120.29 13.89 L124.34 70.65 L66.34 71.99 L6.61 68.26 Z" fill="#32b0d9" stroke="#32b0d9"/><path d="M-4.07 176.87 L-4.07 176.87 L57.88 177.06 L63.50 125.97 L118.94 126.32 L112.01 178.38 L101.50 222.03 L45.73 221.39 L-7.45 224.81 Z" fill="#44b4dc" stroke="#44b4dc"/><path d="M-16.29 331.55 L-16.29 331.55 L38.68 327.75 L39.59 271.89 L96.91 273.29 L97.45 331.17 L97.49 383.34 L38.13 383.69 L-16.04 383.58 Z" fill="#43b3da" stroke="#43b3da"/><path d="M-15.62 496.74 L-15.62 496.74 L38.43 497.31 L37.69 439.67 L97.37 433.88 L97.58 496.96 L97.79 558.48 L39.80 555.48 L-15.18 558.09 Z" fill="#41b6dd" stroke="#41b6dd"/><path d="M-7.18 677.21 L-7.18 677.21 L45.88 674.82 L43.10 615.33 L98.02 615.12 L100.68 675.23 L106.02 739.17 L48.09 733.89 L-9.47 737.32 Z" fill="#40b1d8" stroke="#40b1d8"/><path d="M-2.85 851.82 L-2.85 851.82 L55.11 854.06 L51.39 793.81 L110.79 797.86 L115.34 854.41 L114.98 914.77 L56.66 912.39 L-3.20 911.94 Z" fill="#43b2d9" stroke="#43b2d9"/><path d="M3.08 1029.26 L3.08 1029.26 L61.73 1030.72 L58.42 970.91 L114.17 974.15 L112.54 1028.16 L108.97 1079.79 L58.45 1084.04 L1.22 1082.30 Z" fill="#39afd7" stroke="#39afd7"/><path d="M175.05 12.89 L175.05 12.89 L231.40 11.81 L221.23 -48.41 L277.17 -50.73 L285.38 12.57 L292.54 75.15 L240.45 70.65 L182.32 69.64 Z" fill="#39add3" stroke="#39add3"/><path d="M166.01 179.42 L166.01 179.42 L220.69 179.11 L230.14 126.12 L284.21 126.86 L276.51 178.07 L270.28 228.12 L213.29 226.31 L157.38 223.27 Z" fill="#45b4dc" stroke="#45b4dc"/><path d="M155.80 333.96 L155.80 333.96 L211.83 333.14 L210.54 277.84 L268.10 279.17 L269.44 331.09 L272.70 381.51 L215.63 382.05 L156.88 382.88 Z" fill="#48b5db" stroke="#48b5db"/><path d="M156.71 496.53 L156.71 496.53 L215.04 495.95 L220.13 429.17 L276.48 431.56 L271.83 495.35 L267.97 558.54 L210.81 560.60 L155.36 560.98 Z" fill="#2aacd6" stroke="#2aacd6"/><path d="M155.78 676.43 L155.78 676.43 L211.83 680.34 L209.31 618.56 L266.57 619.85 L268.83 682.47 L275.13 746.54 L218.77 746.32 L163.43 744.10 Z" fill="#4ab5dc" stroke="#4ab5dc"/><path d="M176.14 855.87 L176.14 855.87 L238.94 862.02 L228.32 805.55 L283.74 807.73 L293.31 867.75 L285.50 920.72 L230.29 919.09 L173.05 917.12 Z" fill="#4eb7dc" stroke="#4eb7dc"/><path d="M163.31 1025.50 L163.31 1025.50 L215.07 1023.03 L221.21 974.61 L276.99 972.52 L269.78 1020.82 L266.54 1070.89 L211.57 1073.18 L159.58 1075.70 Z" fill="#21a6d2" stroke="#21a6d2"/><path d="M336.28 15.75 L336.28 15.75 L387.12 18.77 L388.20 -53.83 L439.51 -54.04 L437.93 21.72 L438.09 97.32 L386.15 91.23 L336.76 84.17 Z" fill="#41b8e0" stroke="#41b8e0"/><path d="M333.79 176.08 L333.79 176.08 L388.11 175.43 L386.88 131.55 L437.46 134.27 L440.95 175.43 L454.08 226.41 L390.52 227.60 L328.66 228.33 Z" fill="#3ab2db" stroke="#3ab2db"/><path d="M329.11 327.46 L329.11 327.46 L385.38 325.13 L389.46 277.40 L453.14 275.67 L439.98 323.43 L436.92 381.43 L382.29 381.35 L327.58 381.35 Z" fill="#3eb2da" stroke="#3eb2da"/><path d="M326.63 494.72 L326.63 494.72 L381.32 494.26 L379.51 440.08 L436.86 442.42 L435.96 493.86 L438.05 548.66 L383.50 551.18 L327.36 554.28 Z" fill="#3ab5e0" stroke="#3ab5e0"/><path d="M327.08 682.29 L327.08 682.29 L388.22 680.33 L386.85 616.80 L449.61 614.03 L450.78 677.49 L440.50 738.85 L387.41 741.56 L332.81 744.15 Z" fill="#40afd6" stroke="#40afd6"/><path d="M336.72 872.91 L336.72 872.91 L387.63 878.39 L387.37 808.76 L439.49 809.54 L442.25 884.03 L440.62 923.75 L389.59 922.89 L338.06 921.92 Z" fill="#40add4" stroke="#40add4"/><path d="M328.32 1018.94 L328.32 1018.94 L389.16 1017.17 L390.95 967.22 L440.93 963.99 L451.11 1015.44 L452.29 1065.32 L387.93 1067.07 L325.39 1068.89 Z" fill="#3bb5e0" stroke="#3bb5e0"/><path d="M496.53 19.35 L496.53 19.35 L555.91 16.36 L560.23 -49.90 L611.70 -49.63 L615.05 13.03 L618.17 73.78 L550.38 81.04 L493.20 89.77 Z" fill="#45aed4" stroke="#45aed4"/><path d="M500.47 176.09 L500.47 176.09 L559.52 176.55 L556.73 129.28 L614.55 125.69 L611.52 175.35 L609.84 219.78 L554.00 221.57 L504.24 224.00 Z" fill="#3eb1d9" stroke="#3eb1d9"/><path d="M500.81 326.38 L500.81 326.38 L560.99 329.63 L554.76 272.87 L610.48 272.28 L613.14 331.80 L617.06 385.05 L557.52 383.47 L497.01 382.36 Z" fill="#3cb0d9" stroke="#3cb0d9"/><path d="M496.32 495.79 L496.32 495.79 L557.13 497.83 L551.23 436.48 L621.32 436.48 L617.01 499.07 L613.16 559.62 L560.25 557.75 L499.44 553.07 Z" fill="#40aed5" stroke="#40aed5"/><path d="M502.43 676.05 L502.43 676.05 L553.76 674.95 L554.55 613.10 L610.78 613.78 L610.15 675.00 L611.46 743.99 L558.38 743.94 L499.59 741.34 Z" fill="#3fb1d9" stroke="#3fb1d9"/><path d="M497.37 878.23 L497.37 878.23 L554.04 871.71 L557.36 808.69 L615.18 807.21 L619.87 868.09 L616.75 920.94 L557.87 922.52 L498.88 923.28 Z" fill="#3fb3db" stroke="#3fb3db"/><path d="M503.87 1014.95 L503.87 1014.95 L556.31 1014.97 L560.56 971.45 L613.64 972.06 L612.61 1017.41 L613.12 1066.64 L556.02 1064.30 L504.35 1064.55 Z" fill="#46b2da" stroke="#46b2da"/><path d="M673.18 9.71 L673.18 9.71 L729.64 6.41 L730.33 -55.18 L789.05 -56.37 L785.08 3.63 L780.47 63.80 L728.14 67.86 L678.96 68.87 Z" fill="#47b0d5" stroke="#47b0d5"/><path d="M666.91 174.63 L666.91 174.63 L727.93 174.73 L728.79 122.81 L784.03 119.40 L785.57 172.84 L782.38 221.25 L723.53 219.56 L666.23 218.91 Z" fill="#41b2d9" stroke="#41b2d9"/><path d="M668.99 333.76 L668.99 333.76 L731.00 335.40 L724.80 273.51 L783.86 275.65 L789.38 335.27 L790.73 386.78 L734.58 386.61 L676.18 386.19 Z" fill="#42b3da" stroke="#42b3da"/><path d="M675.40 499.99 L675.40 499.99 L731.30 500.40 L737.34 434.73 L790.82 435.95 L787.65 500.54 L784.76 562.72 L726.31 562.90 L668.08 561.37 Z" fill="#48b2d7" stroke="#48b2d7"/><path d="M666.70 675.16 L666.70 675.16 L723.51 675.53 L724.61 615.41 L782.72 617.31 L781.28 677.22 L780.47 742.98 L723.07 744.04 L666.03 744.03 Z" fill="#3db1d8" stroke="#3db1d8"/><path d="M679.54 864.07 L679.54 864.07 L728.95 859.41 L725.44 803.55 L779.99 801.21 L779.64 856.37 L780.65 914.23 L726.78 916.59 L673.51 919.04 Z" fill="#3cb1d9" stroke="#3cb1d9"/><path d="M669.02 1018.36 L669.02 1018.36 L725.62 1016.85 L724.88 971.66 L781.77 970.32 L783.02 1017.71 L785.21 1070.07 L727.18 1067.81 L670.18 1068.02 Z" fill="#48b5dd" stroke="#48b5dd"/><path d="M839.87 1.18 L839.87 1.18 L898.31 -3.22 L901.56 -59.13 L958.26 -63.11 L957.41 -7.94 L956.93 48.76 L895.44 53.27 L834.81 57.80 Z" fill="#44b4d8" stroke="#44b4d8"/><path d="M841.06 169.69 L841.06 169.69 L898.49 166.61 L896.87 109.34 L956.23 104.78 L956.35 163.79 L958.36 229.82 L900.58 226.71 L842.22 223.60 Z" fill="#39afd8" stroke="#39afd8"/><path d="M845.43 334.03 L845.43 334.03 L900.11 333.15 L901.05 282.02 L957.73 285.67 L954.79 332.67 L955.82 387.94 L900.57 387.23 L845.43 386.79 Z" fill="#3db1da" stroke="#3db1da"/><path d="M844.28 500.50 L844.28 500.50 L899.72 501.13 L901.44 442.20 L958.01 445.67 L954.95 501.97 L953.09 560.94 L898.42 561.03 L843.33 561.46 Z" fill="#46b3d6" stroke="#46b3d6"/><path d="M839.65 679.75 L839.65 679.75 L897.23 683.15 L898.45 623.98 L954.98 628.30 L954.44 686.63 L951.21 735.01 L894.64 738.16 L838.10 741.24 Z" fill="#3bafd9" stroke="#3bafd9"/><path d="M831.16 854.36 L831.16 854.36 L892.30 852.45 L893.23 794.94 L952.12 791.10 L954.72 850.30 L952.74 904.18 L893.39 908.18 L834.91 911.92 Z" fill="#3aafd9" stroke="#3aafd9"/><path d="M840.93 1020.10 L840.93 1020.10 L897.96 1021.96 L894.93 964.19 L951.49 959.65 L954.69 1023.65 L956.06 1081.18 L900.30 1077.61 L843.91 1073.90 Z" fill="#48b4d7" stroke="#48b4d7"/><path d="M1016.38 -12.25 L1016.38 -12.25 L1075.10 -14.96 L1074.64 -64.95 L1129.56 -64.92 L1133.30 -14.23 L1137.09 37.31 L1074.82 36.66 L1015.25 41.46 Z" fill="#30abd5" stroke="#30abd5"/><path d="M1014.89 163.79 L1014.89 163.79 L1072.28 163.67 L1073.90 99.52 L1130.72 100.26 L1127.17 163.29 L1130.19 226.51 L1069.00 230.88 L1012.58 231.27 Z" fill="#44b4da" stroke="#44b4da"/><path d="M1012.30 336.04 L1012.30 336.04 L1068.09 339.44 L1067.69 289.07 L1127.61 286.22 L1120.16 342.90 L1119.74 400.15 L1066.27 394.72 L1011.38 390.95 Z" fill="#42b3da" stroke="#42b3da"/><path d="M1010.32 503.84 L1010.32 503.84 L1065.22 507.13 L1063.82 451.47 L1121.41 457.57 L1119.10 513.49 L1118.89 570.00 L1066.05 565.61 L1010.25 562.89 Z" fill="#43b4d8" stroke="#43b4d8"/><path d="M1009.08 689.36 L1009.08 689.36 L1065.84 689.21 L1065.05 632.98 L1125.34 628.35 L1127.16 682.85 L1123.91 733.11 L1068.59 733.16 L1010.54 733.92 Z" fill="#41b2da" stroke="#41b2da"/><path d="M1011.89 845.35 L1011.89 845.35 L1070.39 840.67 L1069.81 785.26 L1126.63 784.61 L1131.79 836.61 L1127.53 896.46 L1072.15 897.40 L1013.26 900.33 Z" fill="#43b4da" stroke="#43b4da"/><path d="M1009.78 1024.64 L1009.78 1024.64 L1066.39 1023.82 L1072.53 956.17 L1124.01 957.06 L1126.28 1019.08 L1125.48 1079.16 L1064.94 1083.69 L1009.35 1083.52 Z" fill="#3dafd4" stroke="#3dafd4"/></svg>