<svg xmlns="http://www.w3.org/2000/svg" width="1024" height="786"><path d="M-13.42 -10.81 L-13.42 -10.81 L50.51 -5.12 L20.16 50.37 Z" fill="#38fd90" stroke="#38fd90"/><path d="M-12.09 101.00 L-12.09 101.00 L50.26 102.58 L16.71 149.86 Z" fill="#36f97a" stroke="#36f97a"/><path d="M-24.63 194.89 L-24.63 194.89 L37.66 197.07 L-5.53 241.64 Z" fill="#37fb80" stroke="#37fb80"/><path d="M-35.40 294.86 L-35.40 294.86 L25.02 292.43 L-4.48 346.26 Z" fill="#38fd90" stroke="#38fd90"/><path d="M-39.17 404.14 L-39.17 404.14 L23.26 399.16 L-9.83 456.30 Z" fill="#36f974" stroke="#36f974"/><path d="M-36.17 509.99 L-36.17 509.99 L24.33 506.58 L-3.34 561.67 Z" fill="#36f973" stroke="#36f973"/><path d="M-34.76 617.76 L-34.76 617.76 L28.27 617.59 L-0.19 673.44 Z" fill="#37fa7d" stroke="#37fa7d"/><path d="M-22.71 728.45 L-22.71 728.45 L34.67 729.45 L9.60 786.69 Z" fill="#37fa78" stroke="#37fa78"/><path d="M-17.57 847.26 L-17.57 847.26 L40.92 844.32 L13.35 899.50 Z" fill="#37fb82" stroke="#37fb82"/><path d="M-14.44 949.78 L-14.44 949.78 L44.21 953.22 L13.29 1006.88 Z" fill="#37fd8c" stroke="#37fd8c"/><path d="M50.51 -5.12 L50.51 -5.12 L107.96 -9.75 L81.44 50.20 Z" fill="#37fd7a" stroke="#37fd7a"/><path d="M50.26 102.58 L50.26 102.58 L108.46 100.01 L77.67 152.00 Z" fill="#36f887" stroke="#36f887"/><path d="M37.66 197.07 L37.66 197.07 L100.43 196.08 L58.77 241.16 Z" fill="#37fc83" stroke="#37fc83"/><path d="M25.02 292.43 L25.02 292.43 L90.36 294.87 L55.33 344.97 Z" fill="#37fc85" stroke="#37fc85"/><path d="M23.26 399.16 L23.26 399.16 L85.00 401.75 L53.69 453.03 Z" fill="#37f982" stroke="#37f982"/><path d="M24.33 506.58 L24.33 506.58 L86.06 507.95 L57.06 561.11 Z" fill="#37fb6d" stroke="#37fb6d"/><path d="M28.27 617.59 L28.27 617.59 L93.89 620.08 L63.23 674.37 Z" fill="#36f987" stroke="#36f987"/><path d="M34.67 729.45 L34.67 729.45 L96.85 727.83 L67.42 785.79 Z" fill="#37fb79" stroke="#37fb79"/><path d="M40.92 844.32 L40.92 844.32 L100.43 843.82 L72.29 898.68 Z" fill="#37fb85" stroke="#37fb85"/><path d="M44.21 953.22 L44.21 953.22 L103.37 950.08 L76.95 1009.59 Z" fill="#37fd83" stroke="#37fd83"/><path d="M107.96 -9.75 L107.96 -9.75 L163.41 -17.44 L137.43 47.45 Z" fill="#37fd70" stroke="#37fd70"/><path d="M108.46 100.01 L108.46 100.01 L165.15 95.62 L134.93 143.23 Z" fill="#37f994" stroke="#37f994"/><path d="M100.43 196.08 L100.43 196.08 L163.40 194.22 L128.59 248.32 Z" fill="#37fc74" stroke="#37fc74"/><path d="M90.36 294.87 L90.36 294.87 L157.25 298.98 L119.29 346.14 Z" fill="#37fb79" stroke="#37fb79"/><path d="M85.00 401.75 L85.00 401.75 L146.43 407.01 L113.69 460.68 Z" fill="#37fa87" stroke="#37fa87"/><path d="M86.06 507.95 L86.06 507.95 L148.17 511.49 L121.41 562.14 Z" fill="#37fd70" stroke="#37fd70"/><path d="M93.89 620.08 L93.89 620.08 L160.45 623.09 L129.70 676.71 Z" fill="#37f998" stroke="#37f998"/><path d="M96.85 727.83 L96.85 727.83 L160.61 725.95 L129.20 783.21 Z" fill="#37fd70" stroke="#37fd70"/><path d="M100.43 843.82 L100.43 843.82 L160.25 843.37 L131.68 896.93 Z" fill="#37fa81" stroke="#37fa81"/><path d="M103.37 950.08 L103.37 950.08 L162.67 945.22 L137.91 1005.02 Z" fill="#37fd7f" stroke="#37fd7f"/><path d="M163.41 -17.44 L163.41 -17.44 L221.54 -19.97 L193.41 40.26 Z" fill="#37fd6f" stroke="#37fd6f"/><path d="M165.15 95.62 L165.15 95.62 L221.89 88.84 L193.22 140.80 Z" fill="#36f980" stroke="#36f980"/><path d="M163.40 194.22 L163.40 194.22 L226.62 194.56 L197.30 249.17 Z" fill="#37fc85" stroke="#37fc85"/><path d="M157.25 298.98 L157.25 298.98 L222.31 302.34 L181.94 352.40 Z" fill="#37fb89" stroke="#37fb89"/><path d="M146.43 407.01 L146.43 407.01 L207.59 411.60 L174.17 464.75 Z" fill="#37fa86" stroke="#37fa86"/><path d="M148.17 511.49 L148.17 511.49 L209.75 518.23 L185.09 567.00 Z" fill="#37fd73" stroke="#37fd73"/><path d="M160.45 623.09 L160.45 623.09 L226.95 622.66 L196.09 676.43 Z" fill="#36f779" stroke="#36f779"/><path d="M160.61 725.95 L160.61 725.95 L223.22 729.17 L190.17 782.60 Z" fill="#37fd73" stroke="#37fd73"/><path d="M160.25 843.37 L160.25 843.37 L219.56 836.65 L190.84 893.29 Z" fill="#37fa80" stroke="#37fa80"/><path d="M162.67 945.22 L162.67 945.22 L221.64 945.30 L198.24 1000.68 Z" fill="#37fb8b" stroke="#37fb8b"/><path d="M221.54 -19.97 L221.54 -19.97 L280.17 -22.45 L249.40 30.35 Z" fill="#38fd87" stroke="#38fd87"/><path d="M221.89 88.84 L221.89 88.84 L279.56 83.39 L252.14 142.27 Z" fill="#36f97c" stroke="#36f97c"/><path d="M226.62 194.56 L226.62 194.56 L287.70 193.23 L265.28 246.13 Z" fill="#37fb87" stroke="#37fb87"/><path d="M222.31 302.34 L222.31 302.34 L285.31 304.00 L243.80 361.78 Z" fill="#37fa80" stroke="#37fa80"/><path d="M207.59 411.60 L207.59 411.60 L270.04 417.10 L234.96 466.64 Z" fill="#37fa80" stroke="#37fa80"/><path d="M209.75 518.23 L209.75 518.23 L271.67 523.27 L248.33 574.19 Z" fill="#38fd84" stroke="#38fd84"/><path d="M226.95 622.66 L226.95 622.66 L291.24 621.70 L262.42 674.55 Z" fill="#36f86a" stroke="#36f86a"/><path d="M223.22 729.17 L223.22 729.17 L284.05 728.40 L250.65 783.17 Z" fill="#38fd87" stroke="#38fd87"/><path d="M219.56 836.65 L219.56 836.65 L280.24 831.45 L249.85 888.49 Z" fill="#37fa7d" stroke="#37fa7d"/><path d="M221.64 945.30 L221.64 945.30 L280.77 942.53 L258.17 996.50 Z" fill="#37fa81" stroke="#37fa81"/><path d="M280.17 -22.45 L280.17 -22.45 L339.28 -24.87 L308.10 25.91 Z" fill="#38fd91" stroke="#38fd91"/><path d="M279.56 83.39 L279.56 83.39 L338.14 79.26 L310.76 139.59 Z" fill="#36f97e" stroke="#36f97e"/><path d="M287.70 193.23 L287.70 193.23 L346.66 190.25 L324.68 242.44 Z" fill="#37fb7e" stroke="#37fb7e"/><path d="M285.31 304.00 L285.31 304.00 L346.27 303.97 L306.37 365.58 Z" fill="#37fa7e" stroke="#37fa7e"/><path d="M270.04 417.10 L270.04 417.10 L333.79 423.48 L299.20 474.15 Z" fill="#37fa80" stroke="#37fa80"/><path d="M271.67 523.27 L271.67 523.27 L333.91 526.62 L309.58 574.29 Z" fill="#38fd83" stroke="#38fd83"/><path d="M291.24 621.70 L291.24 621.70 L353.37 620.23 L323.85 671.48 Z" fill="#36f87a" stroke="#36f87a"/><path d="M284.05 728.40 L284.05 728.40 L343.13 723.69 L310.31 778.48 Z" fill="#38fd86" stroke="#38fd86"/><path d="M280.24 831.45 L280.24 831.45 L342.27 827.77 L311.03 884.14 Z" fill="#37fa80" stroke="#37fa80"/><path d="M280.77 942.53 L280.77 942.53 L340.06 936.96 L319.48 992.53 Z" fill="#37fb7f" stroke="#37fb7f"/><path d="M339.28 -24.87 L339.28 -24.87 L398.82 -30.34 L367.64 23.24 Z" fill="#38fe79" stroke="#38fe79"/><path d="M338.14 79.26 L338.14 79.26 L398.02 76.69 L369.19 134.45 Z" fill="#36f880" stroke="#36f880"/><path d="M346.66 190.25 L346.66 190.25 L406.34 185.95 L385.16 241.24 Z" fill="#37fb84" stroke="#37fb84"/><path d="M346.27 303.97 L346.27 303.97 L407.56 303.37 L368.19 366.48 Z" fill="#37fa8a" stroke="#37fa8a"/><path d="M333.79 423.48 L333.79 423.48 L398.41 429.00 L364.63 482.95 Z" fill="#37fa82" stroke="#37fa82"/><path d="M333.91 526.62 L333.91 526.62 L398.19 529.44 L371.19 573.65 Z" fill="#37fd7f" stroke="#37fd7f"/><path d="M353.37 620.23 L353.37 620.23 L414.13 620.19 L384.62 669.03 Z" fill="#37f87e" stroke="#37f87e"/><path d="M343.13 723.69 L343.13 723.69 L402.76 717.11 L369.88 773.24 Z" fill="#37fc81" stroke="#37fc81"/><path d="M342.27 827.77 L342.27 827.77 L401.66 825.85 L371.45 880.21 Z" fill="#37fa8a" stroke="#37fa8a"/><path d="M340.06 936.96 L340.06 936.96 L399.65 930.40 L380.37 988.65 Z" fill="#37fa88" stroke="#37fa88"/><path d="M398.82 -30.34 L398.82 -30.34 L458.82 -33.75 L428.52 23.37 Z" fill="#38ff74" stroke="#38ff74"/><path d="M398.02 76.69 L398.02 76.69 L458.59 75.32 L427.36 125.45 Z" fill="#36f882" stroke="#36f882"/><path d="M406.34 185.95 L406.34 185.95 L466.83 183.87 L447.35 243.96 Z" fill="#37fb81" stroke="#37fb81"/><path d="M407.56 303.37 L407.56 303.37 L469.41 303.23 L428.86 362.81 Z" fill="#37fa83" stroke="#37fa83"/><path d="M398.41 429.00 L398.41 429.00 L462.90 431.24 L431.96 493.74 Z" fill="#37fa83" stroke="#37fa83"/><path d="M398.19 529.44 L398.19 529.44 L462.51 530.50 L433.36 571.86 Z" fill="#37fd76" stroke="#37fd76"/><path d="M414.13 620.19 L414.13 620.19 L475.23 620.94 L444.38 667.57 Z" fill="#36f790" stroke="#36f790"/><path d="M402.76 717.11 L402.76 717.11 L463.35 713.30 L429.32 767.14 Z" fill="#37fc7e" stroke="#37fc7e"/><path d="M401.66 825.85 L401.66 825.85 L461.22 824.07 L430.70 876.97 Z" fill="#37fb7b" stroke="#37fb7b"/><path d="M399.65 930.40 L399.65 930.40 L460.30 926.63 L440.59 984.90 Z" fill="#37fa85" stroke="#37fa85"/><path d="M458.82 -33.75 L458.82 -33.75 L519.91 -30.70 L489.76 23.33 Z" fill="#38ff77" stroke="#38ff77"/><path d="M458.59 75.32 L458.59 75.32 L520.59 76.58 L489.13 127.13 Z" fill="#36f880" stroke="#36f880"/><path d="M466.83 183.87 L466.83 183.87 L529.24 188.09 L509.15 246.65 Z" fill="#37fb7c" stroke="#37fb7c"/><path d="M469.41 303.23 L469.41 303.23 L532.68 304.53 L492.72 361.66 Z" fill="#37fa82" stroke="#37fa82"/><path d="M462.90 431.24 L462.90 431.24 L526.77 425.11 L496.13 488.95 Z" fill="#37fa82" stroke="#37fa82"/><path d="M462.51 530.50 L462.51 530.50 L526.29 527.08 L496.70 572.18 Z" fill="#37fd72" stroke="#37fd72"/><path d="M475.23 620.94 L475.23 620.94 L537.67 623.27 L506.01 669.87 Z" fill="#36f992" stroke="#36f992"/><path d="M463.35 713.30 L463.35 713.30 L526.31 717.40 L491.01 767.26 Z" fill="#37fc7a" stroke="#37fc7a"/><path d="M461.22 824.07 L461.22 824.07 L522.11 822.09 L491.89 876.25 Z" fill="#37fa7b" stroke="#37fa7b"/><path d="M460.30 926.63 L460.30 926.63 L523.65 930.53 L502.74 988.42 Z" fill="#37f983" stroke="#37f983"/><path d="M519.91 -30.70 L519.91 -30.70 L582.06 -27.00 L551.16 23.04 Z" fill="#38ff75" stroke="#38ff75"/><path d="M520.59 76.58 L520.59 76.58 L582.48 77.27 L551.94 132.06 Z" fill="#36f886" stroke="#36f886"/><path d="M529.24 188.09 L529.24 188.09 L592.25 192.06 L571.19 248.96 Z" fill="#37fb7f" stroke="#37fb7f"/><path d="M532.68 304.53 L532.68 304.53 L596.57 305.70 L557.45 361.55 Z" fill="#37fa84" stroke="#37fa84"/><path d="M526.77 425.11 L526.77 425.11 L591.09 419.47 L559.60 479.55 Z" fill="#37f985" stroke="#37f985"/><path d="M526.29 527.08 L526.29 527.08 L590.45 522.70 L560.43 572.81 Z" fill="#37fd7d" stroke="#37fd7d"/><path d="M537.67 623.27 L537.67 623.27 L600.68 625.17 L568.43 673.21 Z" fill="#36f97d" stroke="#36f97d"/><path d="M526.31 717.40 L526.31 717.40 L590.69 720.84 L553.48 769.12 Z" fill="#37fc80" stroke="#37fc80"/><path d="M522.11 822.09 L522.11 822.09 L581.73 820.63 L553.50 876.43 Z" fill="#37fa87" stroke="#37fa87"/><path d="M523.65 930.53 L523.65 930.53 L587.87 934.95 L565.28 994.05 Z" fill="#37f980" stroke="#37f980"/><path d="M582.06 -27.00 L582.06 -27.00 L644.78 -23.13 L612.79 21.66 Z" fill="#38ff7f" stroke="#38ff7f"/><path d="M582.48 77.27 L582.48 77.27 L644.28 77.96 L614.61 137.74 Z" fill="#36fa85" stroke="#36fa85"/><path d="M592.25 192.06 L592.25 192.06 L655.45 195.73 L635.13 249.28 Z" fill="#37fb7f" stroke="#37fb7f"/><path d="M596.57 305.70 L596.57 305.70 L660.59 306.64 L621.89 363.04 Z" fill="#37f971" stroke="#37f971"/><path d="M591.09 419.47 L591.09 419.47 L655.57 414.12 L624.20 469.79 Z" fill="#36f97b" stroke="#36f97b"/><path d="M590.45 522.70 L590.45 522.70 L654.79 517.88 L624.40 571.97 Z" fill="#38fe95" stroke="#38fe95"/><path d="M600.68 625.17 L600.68 625.17 L663.80 626.80 L632.11 676.21 Z" fill="#36fa72" stroke="#36fa72"/><path d="M590.69 720.84 L590.69 720.84 L655.61 723.88 L616.57 770.60 Z" fill="#37fc8d" stroke="#37fc8d"/><path d="M581.73 820.63 L581.73 820.63 L640.91 820.00 L614.35 877.39 Z" fill="#37fa7a" stroke="#37fa7a"/><path d="M587.87 934.95 L587.87 934.95 L652.42 939.43 L627.00 999.70 Z" fill="#37f977" stroke="#37f977"/><path d="M644.78 -23.13 L644.78 -23.13 L707.66 -22.60 L673.57 26.21 Z" fill="#38ff8d" stroke="#38ff8d"/><path d="M644.28 77.96 L644.28 77.96 L705.18 84.54 L677.74 139.19 Z" fill="#37fa7e" stroke="#37fa7e"/><path d="M655.45 195.73 L655.45 195.73 L715.84 195.74 L694.70 251.95 Z" fill="#37fc81" stroke="#37fc81"/><path d="M660.59 306.64 L660.59 306.64 L720.78 304.26 L686.33 358.78 Z" fill="#37f975" stroke="#37f975"/><path d="M655.57 414.12 L655.57 414.12 L718.33 409.81 L687.32 464.78 Z" fill="#37f97b" stroke="#37f97b"/><path d="M654.79 517.88 L654.79 517.88 L718.80 514.62 L688.24 569.82 Z" fill="#38fe96" stroke="#38fe96"/><path d="M663.80 626.80 L663.80 626.80 L722.83 627.74 L692.67 679.00 Z" fill="#36f976" stroke="#36f976"/><path d="M655.61 723.88 L655.61 723.88 L716.33 725.50 L679.34 774.09 Z" fill="#37fc8c" stroke="#37fc8c"/><path d="M640.91 820.00 L640.91 820.00 L704.57 831.47 L676.47 881.90 Z" fill="#37fa79" stroke="#37fa79"/><path d="M652.42 939.43 L652.42 939.43 L714.60 939.59 L688.37 1001.82 Z" fill="#37fa78" stroke="#37fa78"/><path d="M707.66 -22.60 L707.66 -22.60 L770.36 -19.83 L733.64 35.68 Z" fill="#37fe82" stroke="#37fe82"/><path d="M705.18 84.54 L705.18 84.54 L767.05 89.74 L741.25 137.13 Z" fill="#37fa82" stroke="#37fa82"/><path d="M715.84 195.74 L715.84 195.74 L776.54 196.54 L750.63 256.58 Z" fill="#37fb84" stroke="#37fb84"/><path d="M720.78 304.26 L720.78 304.26 L781.69 302.51 L750.79 349.71 Z" fill="#37fb88" stroke="#37fb88"/><path d="M718.33 409.81 L718.33 409.81 L781.70 405.98 L749.21 463.72 Z" fill="#37fa83" stroke="#37fa83"/><path d="M718.80 514.62 L718.80 514.62 L782.69 512.71 L751.97 566.59 Z" fill="#37fd84" stroke="#37fd84"/><path d="M722.83 627.74 L722.83 627.74 L782.23 627.10 L750.63 681.60 Z" fill="#37f983" stroke="#37f983"/><path d="M716.33 725.50 L716.33 725.50 L777.52 729.47 L741.83 779.26 Z" fill="#37fe81" stroke="#37fe81"/><path d="M704.57 831.47 L704.57 831.47 L767.58 839.82 L739.66 889.36 Z" fill="#36f980" stroke="#36f980"/><path d="M714.60 939.59 L714.60 939.59 L776.90 943.42 L749.46 1001.01 Z" fill="#36f983" stroke="#36f983"/><path d="M770.36 -19.83 L770.36 -19.83 L832.81 -14.11 L796.83 38.32 Z" fill="#37fb78" stroke="#37fb78"/><path d="M767.05 89.74 L767.05 89.74 L830.21 93.13 L803.63 143.50 Z" fill="#37fa8a" stroke="#37fa8a"/><path d="M776.54 196.54 L776.54 196.54 L837.63 198.38 L810.17 251.88 Z" fill="#37fb81" stroke="#37fb81"/><path d="M781.69 302.51 L781.69 302.51 L843.55 301.59 L814.76 352.16 Z" fill="#37fa79" stroke="#37fa79"/><path d="M781.70 405.98 L781.70 405.98 L845.89 402.80 L813.31 457.29 Z" fill="#37fa8b" stroke="#37fa8b"/><path d="M782.69 512.71 L782.69 512.71 L846.43 512.59 L814.54 568.62 Z" fill="#37fb7e" stroke="#37fb7e"/><path d="M782.23 627.10 L782.23 627.10 L842.09 624.36 L810.12 680.56 Z" fill="#37fa8e" stroke="#37fa8e"/><path d="M777.52 729.47 L777.52 729.47 L839.33 736.52 L804.28 786.98 Z" fill="#37fd7e" stroke="#37fd7e"/><path d="M767.58 839.82 L767.58 839.82 L829.71 844.03 L801.95 895.12 Z" fill="#37f986" stroke="#37f986"/><path d="M776.90 943.42 L776.90 943.42 L839.33 952.11 L810.03 1002.02 Z" fill="#36f97f" stroke="#36f97f"/><path d="M832.81 -14.11 L832.81 -14.11 L895.00 -11.19 L859.36 40.69 Z" fill="#37fa80" stroke="#37fa80"/><path d="M830.21 93.13 L830.21 93.13 L891.57 95.91 L865.89 148.91 Z" fill="#37fc93" stroke="#37fc93"/><path d="M837.63 198.38 L837.63 198.38 L899.14 198.08 L870.24 246.91 Z" fill="#37fb7a" stroke="#37fb7a"/><path d="M843.55 301.59 L843.55 301.59 L904.72 299.77 L877.90 354.47 Z" fill="#37fa78" stroke="#37fa78"/><path d="M845.89 402.80 L845.89 402.80 L907.38 402.45 L876.42 452.63 Z" fill="#37fc8d" stroke="#37fc8d"/><path d="M846.43 512.59 L846.43 512.59 L908.19 511.13 L876.83 569.33 Z" fill="#37f97a" stroke="#37f97a"/><path d="M842.09 624.36 L842.09 624.36 L903.87 621.26 L870.47 678.80 Z" fill="#37fa97" stroke="#37fa97"/><path d="M839.33 736.52 L839.33 736.52 L900.59 736.52 L866.10 792.67 Z" fill="#37fb7a" stroke="#37fb7a"/><path d="M829.71 844.03 L829.71 844.03 L890.02 848.18 L863.86 899.71 Z" fill="#37fa84" stroke="#37fa84"/><path d="M839.33 952.11 L839.33 952.11 L902.37 952.82 L871.02 1002.20 Z" fill="#37fa80" stroke="#37fa80"/><path d="M895.00 -11.19 L895.00 -11.19 L957.22 -9.56 L919.99 43.58 Z" fill="#37fa76" stroke="#37fa76"/><path d="M891.57 95.91 L891.57 95.91 L952.55 99.02 L928.05 150.88 Z" fill="#37fc90" stroke="#37fc90"/><path d="M899.14 198.08 L899.14 198.08 L961.00 197.06 L930.87 242.88 Z" fill="#37fb7e" stroke="#37fb7e"/><path d="M904.72 299.77 L904.72 299.77 L966.01 297.63 L939.29 354.58 Z" fill="#37fb86" stroke="#37fb86"/><path d="M907.38 402.45 L907.38 402.45 L968.44 402.85 L937.07 452.66 Z" fill="#37fc81" stroke="#37fc81"/><path d="M908.19 511.13 L908.19 511.13 L969.87 509.48 L938.69 566.33 Z" fill="#37fa7e" stroke="#37fa7e"/><path d="M903.87 621.26 L903.87 621.26 L966.14 618.51 L932.45 676.08 Z" fill="#37fb8d" stroke="#37fb8d"/><path d="M900.59 736.52 L900.59 736.52 L962.21 734.54 L926.57 793.54 Z" fill="#37fa7a" stroke="#37fa7a"/><path d="M890.02 848.18 L890.02 848.18 L949.65 852.88 L925.09 902.05 Z" fill="#37fc80" stroke="#37fc80"/><path d="M902.37 952.82 L902.37 952.82 L964.95 951.19 L932.97 1000.31 Z" fill="#37fa90" stroke="#37fa90"/><path d="M957.22 -9.56 L957.22 -9.56 L1019.74 -10.59 L980.16 50.07 Z" fill="#37fc86" stroke="#37fc86"/><path d="M952.55 99.02 L952.55 99.02 L1013.67 103.99 L991.54 148.72 Z" fill="#37fb7a" stroke="#37fb7a"/><path d="M961.00 197.06 L961.00 197.06 L1023.86 195.09 L991.53 243.47 Z" fill="#37fb83" stroke="#37fb83"/><path d="M966.01 297.63 L966.01 297.63 L1028.43 295.06 L1002.54 349.57 Z" fill="#37fb80" stroke="#37fb80"/><path d="M968.44 402.85 L968.44 402.85 L1030.13 403.72 L997.56 456.68 Z" fill="#37fa7f" stroke="#37fa7f"/><path d="M969.87 509.48 L969.87 509.48 L1033.01 508.30 L1002.25 562.31 Z" fill="#37fc90" stroke="#37fc90"/><path d="M966.14 618.51 L966.14 618.51 L1028.61 617.44 L994.57 674.77 Z" fill="#37fa76" stroke="#37fa76"/><path d="M962.21 734.54 L962.21 734.54 L1025.68 731.02 L988.05 793.67 Z" fill="#37fc8a" stroke="#37fc8a"/><path d="M949.65 852.88 L949.65 852.88 L1008.24 859.76 L984.65 905.05 Z" fill="#37fb7f" stroke="#37fb7f"/><path d="M964.95 951.19 L964.95 951.19 L1025.20 947.44 L994.46 997.80 Z" fill="#37fa7e" stroke="#37fa7e"/><path d="M1019.74 -10.59 L1019.74 -10.59 L1080.74 -9.65 L1040.08 57.33 Z" fill="#37fc9c" stroke="#37fc9c"/><path d="M1013.67 103.99 L1013.67 103.99 L1073.83 106.09 L1055.22 145.34 Z" fill="#37fa79" stroke="#37fa79"/><path d="M1023.86 195.09 L1023.86 195.09 L1085.38 195.05 L1052.28 245.76 Z" fill="#37fb82" stroke="#37fb82"/><path d="M1008.24 859.76 L1008.24 859.76 L1068.48 861.44 L1043.69 908.10 Z" fill="#37fb72" stroke="#37fb72"/><path d="M-42.71 49.57 L-42.71 49.57 L-13.42 -10.81 L20.16 50.37 Z" fill="#38fd91" stroke="#38fd91"/><path d="M-45.26 144.51 L-45.26 144.51 L-12.09 101.00 L16.71 149.86 Z" fill="#36f975" stroke="#36f975"/><path d="M-47.35 786.96 L-47.35 786.96 L-22.71 728.45 L9.60 786.69 Z" fill="#36f876" stroke="#36f876"/><path d="M-45.50 900.02 L-45.50 900.02 L-17.57 847.26 L13.35 899.50 Z" fill="#37fa7e" stroke="#37fa7e"/><path d="M-51.37 1002.02 L-51.37 1002.02 L-14.44 949.78 L13.29 1006.88 Z" fill="#37fb83" stroke="#37fb83"/><path d="M20.16 50.37 L20.16 50.37 L50.51 -5.12 L81.44 50.20 Z" fill="#37fd82" stroke="#37fd82"/><path d="M16.71 149.86 L16.71 149.86 L50.26 102.58 L77.67 152.00 Z" fill="#36f77f" stroke="#36f77f"/><path d="M-5.53 241.64 L-5.53 241.64 L37.66 197.07 L58.77 241.16 Z" fill="#37fc7e" stroke="#37fc7e"/><path d="M-4.48 346.26 L-4.48 346.26 L25.02 292.43 L55.33 344.97 Z" fill="#37fc8e" stroke="#37fc8e"/><path d="M-9.83 456.30 L-9.83 456.30 L23.26 399.16 L53.69 453.03 Z" fill="#37fa7e" stroke="#37fa7e"/><path d="M-3.34 561.67 L-3.34 561.67 L24.33 506.58 L57.06 561.11 Z" fill="#37fb76" stroke="#37fb76"/><path d="M-0.19 673.44 L-0.19 673.44 L28.27 617.59 L63.23 674.37 Z" fill="#37fa85" stroke="#37fa85"/><path d="M9.60 786.69 L9.60 786.69 L34.67 729.45 L67.42 785.79 Z" fill="#36fa6c" stroke="#36fa6c"/><path d="M13.35 899.50 L13.35 899.50 L40.92 844.32 L72.29 898.68 Z" fill="#37fa82" stroke="#37fa82"/><path d="M13.29 1006.88 L13.29 1006.88 L44.21 953.22 L76.95 1009.59 Z" fill="#37fc80" stroke="#37fc80"/><path d="M81.44 50.20 L81.44 50.20 L107.96 -9.75 L137.43 47.45 Z" fill="#37fd73" stroke="#37fd73"/><path d="M77.67 152.00 L77.67 152.00 L108.46 100.01 L134.93 143.23 Z" fill="#37f798" stroke="#37f798"/><path d="M58.77 241.16 L58.77 241.16 L100.43 196.08 L128.59 248.32 Z" fill="#37fd7a" stroke="#37fd7a"/><path d="M55.33 344.97 L55.33 344.97 L90.36 294.87 L119.29 346.14 Z" fill="#37fa81" stroke="#37fa81"/><path d="M53.69 453.03 L53.69 453.03 L85.00 401.75 L113.69 460.68 Z" fill="#37fa81" stroke="#37fa81"/><path d="M57.06 561.11 L57.06 561.11 L86.06 507.95 L121.41 562.14 Z" fill="#37fd75" stroke="#37fd75"/><path d="M63.23 674.37 L63.23 674.37 L93.89 620.08 L129.70 676.71 Z" fill="#37f991" stroke="#37f991"/><path d="M67.42 785.79 L67.42 785.79 L96.85 727.83 L129.20 783.21 Z" fill="#37fc6b" stroke="#37fc6b"/><path d="M72.29 898.68 L72.29 898.68 L100.43 843.82 L131.68 896.93 Z" fill="#37fa86" stroke="#37fa86"/><path d="M76.95 1009.59 L76.95 1009.59 L103.37 950.08 L137.91 1005.02 Z" fill="#37fd7b" stroke="#37fd7b"/><path d="M137.43 47.45 L137.43 47.45 L163.41 -17.44 L193.41 40.26 Z" fill="#37fd76" stroke="#37fd76"/><path d="M134.93 143.23 L134.93 143.23 L165.15 95.62 L193.22 140.80 Z" fill="#36f786" stroke="#36f786"/><path d="M128.59 248.32 L128.59 248.32 L163.40 194.22 L197.30 249.17 Z" fill="#37fd7d" stroke="#37fd7d"/><path d="M119.29 346.14 L119.29 346.14 L157.25 298.98 L181.94 352.40 Z" fill="#37fa80" stroke="#37fa80"/><path d="M113.69 460.68 L113.69 460.68 L146.43 407.01 L174.17 464.75 Z" fill="#37fa7f" stroke="#37fa7f"/><path d="M121.41 562.14 L121.41 562.14 L148.17 511.49 L185.09 567.00 Z" fill="#37fd7b" stroke="#37fd7b"/><path d="M129.70 676.71 L129.70 676.71 L160.45 623.09 L196.09 676.43 Z" fill="#36f887" stroke="#36f887"/><path d="M129.20 783.21 L129.20 783.21 L160.61 725.95 L190.17 782.60 Z" fill="#37fd69" stroke="#37fd69"/><path d="M131.68 896.93 L131.68 896.93 L160.25 843.37 L190.84 893.29 Z" fill="#37fa85" stroke="#37fa85"/><path d="M137.91 1005.02 L137.91 1005.02 L162.67 945.22 L198.24 1000.68 Z" fill="#37fc80" stroke="#37fc80"/><path d="M193.41 40.26 L193.41 40.26 L221.54 -19.97 L249.40 30.35 Z" fill="#37fd80" stroke="#37fd80"/><path d="M193.22 140.80 L193.22 140.80 L221.89 88.84 L252.14 142.27 Z" fill="#36f87a" stroke="#36f87a"/><path d="M197.30 249.17 L197.30 249.17 L226.62 194.56 L265.28 246.13 Z" fill="#37fc7f" stroke="#37fc7f"/><path d="M181.94 352.40 L181.94 352.40 L222.31 302.34 L243.80 361.78 Z" fill="#37fa84" stroke="#37fa84"/><path d="M174.17 464.75 L174.17 464.75 L207.59 411.60 L234.96 466.64 Z" fill="#37fb8a" stroke="#37fb8a"/><path d="M185.09 567.00 L185.09 567.00 L209.75 518.23 L248.33 574.19 Z" fill="#38fd81" stroke="#38fd81"/><path d="M196.09 676.43 L196.09 676.43 L226.95 622.66 L262.42 674.55 Z" fill="#36f874" stroke="#36f874"/><path d="M190.17 782.60 L190.17 782.60 L223.22 729.17 L250.65 783.17 Z" fill="#37fd77" stroke="#37fd77"/><path d="M190.84 893.29 L190.84 893.29 L219.56 836.65 L249.85 888.49 Z" fill="#37fa7d" stroke="#37fa7d"/><path d="M198.24 1000.68 L198.24 1000.68 L221.64 945.30 L258.17 996.50 Z" fill="#37fc86" stroke="#37fc86"/><path d="M249.40 30.35 L249.40 30.35 L280.17 -22.45 L308.10 25.91 Z" fill="#38fd8d" stroke="#38fd8d"/><path d="M252.14 142.27 L252.14 142.27 L279.56 83.39 L310.76 139.59 Z" fill="#36f879" stroke="#36f879"/><path d="M265.28 246.13 L265.28 246.13 L287.70 193.23 L324.68 242.44 Z" fill="#37fc81" stroke="#37fc81"/><path d="M243.80 361.78 L243.80 361.78 L285.31 304.00 L306.37 365.58 Z" fill="#36f97c" stroke="#36f97c"/><path d="M234.96 466.64 L234.96 466.64 L270.04 417.10 L299.20 474.15 Z" fill="#37fa84" stroke="#37fa84"/><path d="M248.33 574.19 L248.33 574.19 L271.67 523.27 L309.58 574.29 Z" fill="#37fc83" stroke="#37fc83"/><path d="M262.42 674.55 L262.42 674.55 L291.24 621.70 L323.85 671.48 Z" fill="#36f978" stroke="#36f978"/><path d="M250.65 783.17 L250.65 783.17 L284.05 728.40 L310.31 778.48 Z" fill="#38fd87" stroke="#38fd87"/><path d="M249.85 888.49 L249.85 888.49 L280.24 831.45 L311.03 884.14 Z" fill="#37fa77" stroke="#37fa77"/><path d="M258.17 996.50 L258.17 996.50 L280.77 942.53 L319.48 992.53 Z" fill="#37fb85" stroke="#37fb85"/><path d="M308.10 25.91 L308.10 25.91 L339.28 -24.87 L367.64 23.24 Z" fill="#38fd87" stroke="#38fd87"/><path d="M310.76 139.59 L310.76 139.59 L338.14 79.26 L369.19 134.45 Z" fill="#36f87e" stroke="#36f87e"/><path d="M324.68 242.44 L324.68 242.44 L346.66 190.25 L385.16 241.24 Z" fill="#37fc83" stroke="#37fc83"/><path d="M306.37 365.58 L306.37 365.58 L346.27 303.97 L368.19 366.48 Z" fill="#37f97f" stroke="#37f97f"/><path d="M299.20 474.15 L299.20 474.15 L333.79 423.48 L364.63 482.95 Z" fill="#37fb7f" stroke="#37fb7f"/><path d="M309.58 574.29 L309.58 574.29 L333.91 526.62 L371.19 573.65 Z" fill="#37fc83" stroke="#37fc83"/><path d="M323.85 671.48 L323.85 671.48 L353.37 620.23 L384.62 669.03 Z" fill="#37f87c" stroke="#37f87c"/><path d="M310.31 778.48 L310.31 778.48 L343.13 723.69 L369.88 773.24 Z" fill="#37fd84" stroke="#37fd84"/><path d="M311.03 884.14 L311.03 884.14 L342.27 827.77 L371.45 880.21 Z" fill="#37fa82" stroke="#37fa82"/><path d="M319.48 992.53 L319.48 992.53 L340.06 936.96 L380.37 988.65 Z" fill="#37fb85" stroke="#37fb85"/><path d="M367.64 23.24 L367.64 23.24 L398.82 -30.34 L428.52 23.37 Z" fill="#38ff72" stroke="#38ff72"/><path d="M369.19 134.45 L369.19 134.45 L398.02 76.69 L427.36 125.45 Z" fill="#37f879" stroke="#37f879"/><path d="M385.16 241.24 L385.16 241.24 L406.34 185.95 L447.35 243.96 Z" fill="#37fc7d" stroke="#37fc7d"/><path d="M368.19 366.48 L368.19 366.48 L407.56 303.37 L428.86 362.81 Z" fill="#37f984" stroke="#37f984"/><path d="M364.63 482.95 L364.63 482.95 L398.41 429.00 L431.96 493.74 Z" fill="#37fb81" stroke="#37fb81"/><path d="M371.19 573.65 L371.19 573.65 L398.19 529.44 L433.36 571.86 Z" fill="#37fc7d" stroke="#37fc7d"/><path d="M384.62 669.03 L384.62 669.03 L414.13 620.19 L444.38 667.57 Z" fill="#37f885" stroke="#37f885"/><path d="M369.88 773.24 L369.88 773.24 L402.76 717.11 L429.32 767.14 Z" fill="#37fc7e" stroke="#37fc7e"/><path d="M371.45 880.21 L371.45 880.21 L401.66 825.85 L430.70 876.97 Z" fill="#37fa86" stroke="#37fa86"/><path d="M380.37 988.65 L380.37 988.65 L399.65 930.40 L440.59 984.90 Z" fill="#37fb85" stroke="#37fb85"/><path d="M428.52 23.37 L428.52 23.37 L458.82 -33.75 L489.76 23.33 Z" fill="#38ff70" stroke="#38ff70"/><path d="M427.36 125.45 L427.36 125.45 L458.59 75.32 L489.13 127.13 Z" fill="#36f983" stroke="#36f983"/><path d="M447.35 243.96 L447.35 243.96 L466.83 183.87 L509.15 246.65 Z" fill="#37fc76" stroke="#37fc76"/><path d="M428.86 362.81 L428.86 362.81 L469.41 303.23 L492.72 361.66 Z" fill="#36f983" stroke="#36f983"/><path d="M431.96 493.74 L431.96 493.74 L462.90 431.24 L496.13 488.95 Z" fill="#37fb7b" stroke="#37fb7b"/><path d="M433.36 571.86 L433.36 571.86 L462.51 530.50 L496.70 572.18 Z" fill="#37fc71" stroke="#37fc71"/><path d="M444.38 667.57 L444.38 667.57 L475.23 620.94 L506.01 669.87 Z" fill="#36f896" stroke="#36f896"/><path d="M429.32 767.14 L429.32 767.14 L463.35 713.30 L491.01 767.26 Z" fill="#37fd7e" stroke="#37fd7e"/><path d="M430.70 876.97 L430.70 876.97 L461.22 824.07 L491.89 876.25 Z" fill="#37fa81" stroke="#37fa81"/><path d="M440.59 984.90 L440.59 984.90 L460.30 926.63 L502.74 988.42 Z" fill="#37fa7c" stroke="#37fa7c"/><path d="M489.76 23.33 L489.76 23.33 L519.91 -30.70 L551.16 23.04 Z" fill="#38ff70" stroke="#38ff70"/><path d="M489.13 127.13 L489.13 127.13 L520.59 76.58 L551.94 132.06 Z" fill="#36f98b" stroke="#36f98b"/><path d="M509.15 246.65 L509.15 246.65 L529.24 188.09 L571.19 248.96 Z" fill="#37fc78" stroke="#37fc78"/><path d="M492.72 361.66 L492.72 361.66 L532.68 304.53 L557.45 361.55 Z" fill="#36f983" stroke="#36f983"/><path d="M496.13 488.95 L496.13 488.95 L526.77 425.11 L559.60 479.55 Z" fill="#37fa7c" stroke="#37fa7c"/><path d="M496.70 572.18 L496.70 572.18 L526.29 527.08 L560.43 572.81 Z" fill="#37fb7b" stroke="#37fb7b"/><path d="M506.01 669.87 L506.01 669.87 L537.67 623.27 L568.43 673.21 Z" fill="#36f989" stroke="#36f989"/><path d="M491.01 767.26 L491.01 767.26 L526.31 717.40 L553.48 769.12 Z" fill="#37fd7b" stroke="#37fd7b"/><path d="M491.89 876.25 L491.89 876.25 L522.11 822.09 L553.50 876.43 Z" fill="#37f984" stroke="#37f984"/><path d="M502.74 988.42 L502.74 988.42 L523.65 930.53 L565.28 994.05 Z" fill="#37fa7b" stroke="#37fa7b"/><path d="M551.16 23.04 L551.16 23.04 L582.06 -27.00 L612.79 21.66 Z" fill="#38ff7b" stroke="#38ff7b"/><path d="M551.94 132.06 L551.94 132.06 L582.48 77.27 L614.61 137.74 Z" fill="#36f97c" stroke="#36f97c"/><path d="M571.19 248.96 L571.19 248.96 L592.25 192.06 L635.13 249.28 Z" fill="#38fd7e" stroke="#38fd7e"/><path d="M557.45 361.55 L557.45 361.55 L596.57 305.70 L621.89 363.04 Z" fill="#36f97a" stroke="#36f97a"/><path d="M559.60 479.55 L559.60 479.55 L591.09 419.47 L624.20 469.79 Z" fill="#37fa89" stroke="#37fa89"/><path d="M560.43 572.81 L560.43 572.81 L590.45 522.70 L624.40 571.97 Z" fill="#37fb87" stroke="#37fb87"/><path d="M568.43 673.21 L568.43 673.21 L600.68 625.17 L632.11 676.21 Z" fill="#36f975" stroke="#36f975"/><path d="M553.48 769.12 L553.48 769.12 L590.69 720.84 L616.57 770.60 Z" fill="#38fe85" stroke="#38fe85"/><path d="M553.50 876.43 L553.50 876.43 L581.73 820.63 L614.35 877.39 Z" fill="#36f983" stroke="#36f983"/><path d="M565.28 994.05 L565.28 994.05 L587.87 934.95 L627.00 999.70 Z" fill="#37fb80" stroke="#37fb80"/><path d="M612.79 21.66 L612.79 21.66 L644.78 -23.13 L673.57 26.21 Z" fill="#38ff88" stroke="#38ff88"/><path d="M614.61 137.74 L614.61 137.74 L644.28 77.96 L677.74 139.19 Z" fill="#36f983" stroke="#36f983"/><path d="M635.13 249.28 L635.13 249.28 L655.45 195.73 L694.70 251.95 Z" fill="#38fe88" stroke="#38fe88"/><path d="M621.89 363.04 L621.89 363.04 L660.59 306.64 L686.33 358.78 Z" fill="#36f96f" stroke="#36f96f"/><path d="M624.20 469.79 L624.20 469.79 L655.57 414.12 L687.32 464.78 Z" fill="#36f97a" stroke="#36f97a"/><path d="M624.40 571.97 L624.40 571.97 L654.79 517.88 L688.24 569.82 Z" fill="#37fc8b" stroke="#37fc8b"/><path d="M632.11 676.21 L632.11 676.21 L663.80 626.80 L692.67 679.00 Z" fill="#36f975" stroke="#36f975"/><path d="M616.57 770.60 L616.57 770.60 L655.61 723.88 L679.34 774.09 Z" fill="#38fe9c" stroke="#38fe9c"/><path d="M614.35 877.39 L614.35 877.39 L640.91 820.00 L676.47 881.90 Z" fill="#36f974" stroke="#36f974"/><path d="M627.00 999.70 L627.00 999.70 L652.42 939.43 L688.37 1001.82 Z" fill="#37fb7e" stroke="#37fb7e"/><path d="M673.57 26.21 L673.57 26.21 L707.66 -22.60 L733.64 35.68 Z" fill="#38ff87" stroke="#38ff87"/><path d="M677.74 139.19 L677.74 139.19 L705.18 84.54 L741.25 137.13 Z" fill="#37fa80" stroke="#37fa80"/><path d="M694.70 251.95 L694.70 251.95 L715.84 195.74 L750.63 256.58 Z" fill="#37fd87" stroke="#37fd87"/><path d="M686.33 358.78 L686.33 358.78 L720.78 304.26 L750.79 349.71 Z" fill="#37fa7c" stroke="#37fa7c"/><path d="M687.32 464.78 L687.32 464.78 L718.33 409.81 L749.21 463.72 Z" fill="#37f97d" stroke="#37f97d"/><path d="M688.24 569.82 L688.24 569.82 L718.80 514.62 L751.97 566.59 Z" fill="#37fb8b" stroke="#37fb8b"/><path d="M692.67 679.00 L692.67 679.00 L722.83 627.74 L750.63 681.60 Z" fill="#37f97d" stroke="#37f97d"/><path d="M679.34 774.09 L679.34 774.09 L716.33 725.50 L741.83 779.26 Z" fill="#38ff8f" stroke="#38ff8f"/><path d="M676.47 881.90 L676.47 881.90 L704.57 831.47 L739.66 889.36 Z" fill="#36f980" stroke="#36f980"/><path d="M688.37 1001.82 L688.37 1001.82 L714.60 939.59 L749.46 1001.01 Z" fill="#37fa80" stroke="#37fa80"/><path d="M733.64 35.68 L733.64 35.68 L770.36 -19.83 L796.83 38.32 Z" fill="#37fc7e" stroke="#37fc7e"/><path d="M741.25 137.13 L741.25 137.13 L767.05 89.74 L803.63 143.50 Z" fill="#37f882" stroke="#37f882"/><path d="M750.63 256.58 L750.63 256.58 L776.54 196.54 L810.17 251.88 Z" fill="#37fb7d" stroke="#37fb7d"/><path d="M750.79 349.71 L750.79 349.71 L781.69 302.51 L814.76 352.16 Z" fill="#37fb8b" stroke="#37fb8b"/><path d="M749.21 463.72 L749.21 463.72 L781.70 405.98 L813.31 457.29 Z" fill="#37f988" stroke="#37f988"/><path d="M751.97 566.59 L751.97 566.59 L782.69 512.71 L814.54 568.62 Z" fill="#37fb80" stroke="#37fb80"/><path d="M750.63 681.60 L750.63 681.60 L782.23 627.10 L810.12 680.56 Z" fill="#37f985" stroke="#37f985"/><path d="M741.83 779.26 L741.83 779.26 L777.52 729.47 L804.28 786.98 Z" fill="#38ff7a" stroke="#38ff7a"/><path d="M739.66 889.36 L739.66 889.36 L767.58 839.82 L801.95 895.12 Z" fill="#37f987" stroke="#37f987"/><path d="M749.46 1001.01 L749.46 1001.01 L776.90 943.42 L810.03 1002.02 Z" fill="#37fb81" stroke="#37fb81"/><path d="M796.83 38.32 L796.83 38.32 L832.81 -14.11 L859.36 40.69 Z" fill="#37fc80" stroke="#37fc80"/><path d="M803.63 143.50 L803.63 143.50 L830.21 93.13 L865.89 148.91 Z" fill="#37fb9c" stroke="#37fb9c"/><path d="M810.17 251.88 L810.17 251.88 L837.63 198.38 L870.24 246.91 Z" fill="#37fb7c" stroke="#37fb7c"/><path d="M814.76 352.16 L814.76 352.16 L843.55 301.59 L877.90 354.47 Z" fill="#37fa7d" stroke="#37fa7d"/><path d="M813.31 457.29 L813.31 457.29 L845.89 402.80 L876.42 452.63 Z" fill="#37fa7d" stroke="#37fa7d"/><path d="M814.54 568.62 L814.54 568.62 L846.43 512.59 L876.83 569.33 Z" fill="#37fb77" stroke="#37fb77"/><path d="M810.12 680.56 L810.12 680.56 L842.09 624.36 L870.47 678.80 Z" fill="#37fa93" stroke="#37fa93"/><path d="M804.28 786.98 L804.28 786.98 L839.33 736.52 L866.10 792.67 Z" fill="#37fe83" stroke="#37fe83"/><path d="M801.95 895.12 L801.95 895.12 L829.71 844.03 L863.86 899.71 Z" fill="#37fb8b" stroke="#37fb8b"/><path d="M810.03 1002.02 L810.03 1002.02 L839.33 952.11 L871.02 1002.20 Z" fill="#37fb79" stroke="#37fb79"/><path d="M859.36 40.69 L859.36 40.69 L895.00 -11.19 L919.99 43.58 Z" fill="#37fb79" stroke="#37fb79"/><path d="M865.89 148.91 L865.89 148.91 L891.57 95.91 L928.05 150.88 Z" fill="#37fc99" stroke="#37fc99"/><path d="M870.24 246.91 L870.24 246.91 L899.14 198.08 L930.87 242.88 Z" fill="#37fb7d" stroke="#37fb7d"/><path d="M877.90 354.47 L877.90 354.47 L904.72 299.77 L939.29 354.58 Z" fill="#37fc83" stroke="#37fc83"/><path d="M876.42 452.63 L876.42 452.63 L907.38 402.45 L937.07 452.66 Z" fill="#37fc84" stroke="#37fc84"/><path d="M876.83 569.33 L876.83 569.33 L908.19 511.13 L938.69 566.33 Z" fill="#37fa7c" stroke="#37fa7c"/><path d="M870.47 678.80 L870.47 678.80 L903.87 621.26 L932.45 676.08 Z" fill="#37fb94" stroke="#37fb94"/><path d="M866.10 792.67 L866.10 792.67 L900.59 736.52 L926.57 793.54 Z" fill="#36f874" stroke="#36f874"/><path d="M863.86 899.71 L863.86 899.71 L890.02 848.18 L925.09 902.05 Z" fill="#37fb87" stroke="#37fb87"/><path d="M871.02 1002.20 L871.02 1002.20 L902.37 952.82 L932.97 1000.31 Z" fill="#37fa85" stroke="#37fa85"/><path d="M919.99 43.58 L919.99 43.58 L957.22 -9.56 L980.16 50.07 Z" fill="#37fb7c" stroke="#37fb7c"/><path d="M928.05 150.88 L928.05 150.88 L952.55 99.02 L991.54 148.72 Z" fill="#37fb83" stroke="#37fb83"/><path d="M930.87 242.88 L930.87 242.88 L961.00 197.06 L991.53 243.47 Z" fill="#37fb83" stroke="#37fb83"/><path d="M939.29 354.58 L939.29 354.58 L966.01 297.63 L1002.54 349.57 Z" fill="#37fb82" stroke="#37fb82"/><path d="M937.07 452.66 L937.07 452.66 L968.44 402.85 L997.56 456.68 Z" fill="#37fb82" stroke="#37fb82"/><path d="M938.69 566.33 L938.69 566.33 L969.87 509.48 L1002.25 562.31 Z" fill="#37fc86" stroke="#37fc86"/><path d="M932.45 676.08 L932.45 676.08 L966.14 618.51 L994.57 674.77 Z" fill="#37fb7f" stroke="#37fb7f"/><path d="M926.57 793.54 L926.57 793.54 L962.21 734.54 L988.05 793.67 Z" fill="#37fb81" stroke="#37fb81"/><path d="M925.09 902.05 L925.09 902.05 L949.65 852.88 L984.65 905.05 Z" fill="#37fb80" stroke="#37fb80"/><path d="M932.97 1000.31 L932.97 1000.31 L964.95 951.19 L994.46 997.80 Z" fill="#37fa84" stroke="#37fa84"/><path d="M980.16 50.07 L980.16 50.07 L1019.74 -10.59 L1040.08 57.33 Z" fill="#37fc8c" stroke="#37fc8c"/><path d="M991.54 148.72 L991.54 148.72 L1013.67 103.99 L1055.22 145.34 Z" fill="#37fa78" stroke="#37fa78"/><path d="M991.53 243.47 L991.53 243.47 L1023.86 195.09 L1052.28 245.76 Z" fill="#37fc8a" stroke="#37fc8a"/><path d="M1002.54 349.57 L1002.54 349.57 L1028.43 295.06 L1066.33 343.21 Z" fill="#37fb7d" stroke="#37fb7d"/><path d="M997.56 456.68 L997.56 456.68 L1030.13 403.72 L1057.93 461.65 Z" fill="#37fb78" stroke="#37fb78"/><path d="M1002.25 562.31 L1002.25 562.31 L1033.01 508.30 L1066.13 558.41 Z" fill="#37fc8c" stroke="#37fc8c"/><path d="M994.57 674.77 L994.57 674.77 L1028.61 617.44 L1056.67 674.21 Z" fill="#37fa70" stroke="#37fa70"/><path d="M988.05 793.67 L988.05 793.67 L1025.68 731.02 L1049.82 793.60 Z" fill="#37fca1" stroke="#37fca1"/><path d="M984.65 905.05 L984.65 905.05 L1008.24 859.76 L1043.69 908.10 Z" fill="#37fa76" stroke="#37fa76"/><path d="M994.46 997.80 L994.46 997.80 L1025.20 947.44 L1055.72 995.82 Z" fill="#37fb82" stroke="#37fb82"/><path d="M-12.09 101.00 L-12.09 101.00 L50.26 102.58 L20.16 50.37 Z" fill="#37fa7a" stroke="#37fa7a"/><path d="M-24.63 194.89 L-24.63 194.89 L37.66 197.07 L16.71 149.86 Z" fill="#37fa7c" stroke="#37fa7c"/><path d="M-35.40 294.86 L-35.40 294.86 L25.02 292.43 L-5.53 241.64 Z" fill="#37fc8c" stroke="#37fc8c"/><path d="M-39.17 404.14 L-39.17 404.14 L23.26 399.16 L-4.48 346.26 Z" fill="#36f767" stroke="#36f767"/><path d="M-36.17 509.99 L-36.17 509.99 L24.33 506.58 L-9.83 456.30 Z" fill="#36f977" stroke="#36f977"/><path d="M-34.76 617.76 L-34.76 617.76 L28.27 617.59 L-3.34 561.67 Z" fill="#37fc88" stroke="#37fc88"/><path d="M-22.71 728.45 L-22.71 728.45 L34.67 729.45 L-0.19 673.44 Z" fill="#38fd91" stroke="#38fd91"/><path d="M-17.57 847.26 L-17.57 847.26 L40.92 844.32 L9.60 786.69 Z" fill="#37fc85" stroke="#37fc85"/><path d="M-14.44 949.78 L-14.44 949.78 L44.21 953.22 L13.35 899.50 Z" fill="#37fb7f" stroke="#37fb7f"/><path d="M-24.15 1059.35 L-24.15 1059.35 L46.50 1065.32 L13.29 1006.88 Z" fill="#36f973" stroke="#36f973"/><path d="M50.26 102.58 L50.26 102.58 L108.46 100.01 L81.44 50.20 Z" fill="#37fa83" stroke="#37fa83"/><path d="M37.66 197.07 L37.66 197.07 L100.43 196.08 L77.67 152.00 Z" fill="#37fb83" stroke="#37fb83"/><path d="M25.02 292.43 L25.02 292.43 L90.36 294.87 L58.77 241.16 Z" fill="#37fd83" stroke="#37fd83"/><path d="M23.26 399.16 L23.26 399.16 L85.00 401.75 L55.33 344.97 Z" fill="#36f77c" stroke="#36f77c"/><path d="M24.33 506.58 L24.33 506.58 L86.06 507.95 L53.69 453.03 Z" fill="#37fb76" stroke="#37fb76"/><path d="M28.27 617.59 L28.27 617.59 L93.89 620.08 L57.06 561.11 Z" fill="#37fc88" stroke="#37fc88"/><path d="M34.67 729.45 L34.67 729.45 L96.85 727.83 L63.23 674.37 Z" fill="#37fd80" stroke="#37fd80"/><path d="M40.92 844.32 L40.92 844.32 L100.43 843.82 L67.42 785.79 Z" fill="#37fc7d" stroke="#37fc7d"/><path d="M44.21 953.22 L44.21 953.22 L103.37 950.08 L72.29 898.68 Z" fill="#37fa87" stroke="#37fa87"/><path d="M46.50 1065.32 L46.50 1065.32 L111.34 1064.68 L76.95 1009.59 Z" fill="#37fb73" stroke="#37fb73"/><path d="M108.46 100.01 L108.46 100.01 L165.15 95.62 L137.43 47.45 Z" fill="#37fa80" stroke="#37fa80"/><path d="M100.43 196.08 L100.43 196.08 L163.40 194.22 L134.93 143.23 Z" fill="#37fa81" stroke="#37fa81"/><path d="M90.36 294.87 L90.36 294.87 L157.25 298.98 L128.59 248.32 Z" fill="#37fe73" stroke="#37fe73"/><path d="M85.00 401.75 L85.00 401.75 L146.43 407.01 L119.29 346.14 Z" fill="#37f8a0" stroke="#37f8a0"/><path d="M86.06 507.95 L86.06 507.95 L148.17 511.49 L113.69 460.68 Z" fill="#37fd72" stroke="#37fd72"/><path d="M93.89 620.08 L93.89 620.08 L160.45 623.09 L121.41 562.14 Z" fill="#37fa83" stroke="#37fa83"/><path d="M96.85 727.83 L96.85 727.83 L160.61 725.95 L129.70 676.71 Z" fill="#37f97a" stroke="#37f97a"/><path d="M100.43 843.82 L100.43 843.82 L160.25 843.37 L129.20 783.21 Z" fill="#37fb72" stroke="#37fb72"/><path d="M103.37 950.08 L103.37 950.08 L162.67 945.22 L131.68 896.93 Z" fill="#37fb8a" stroke="#37fb8a"/><path d="M111.34 1064.68 L111.34 1064.68 L173.84 1060.92 L137.91 1005.02 Z" fill="#37fc71" stroke="#37fc71"/><path d="M165.15 95.62 L165.15 95.62 L221.89 88.84 L193.41 40.26 Z" fill="#37fa8c" stroke="#37fa8c"/><path d="M163.40 194.22 L163.40 194.22 L226.62 194.56 L193.22 140.80 Z" fill="#37fa89" stroke="#37fa89"/><path d="M157.25 298.98 L157.25 298.98 L222.31 302.34 L197.30 249.17 Z" fill="#37fd78" stroke="#37fd78"/><path d="M146.43 407.01 L146.43 407.01 L207.59 411.60 L181.94 352.40 Z" fill="#36f780" stroke="#36f780"/><path d="M148.17 511.49 L148.17 511.49 L209.75 518.23 L174.17 464.75 Z" fill="#37fd73" stroke="#37fd73"/><path d="M160.45 623.09 L160.45 623.09 L226.95 622.66 L185.09 567.00 Z" fill="#37fb84" stroke="#37fb84"/><path d="M160.61 725.95 L160.61 725.95 L223.22 729.17 L196.09 676.43 Z" fill="#37fb93" stroke="#37fb93"/><path d="M160.25 843.37 L160.25 843.37 L219.56 836.65 L190.17 782.60 Z" fill="#37fc7c" stroke="#37fc7c"/><path d="M162.67 945.22 L162.67 945.22 L221.64 945.30 L190.84 893.29 Z" fill="#37f97b" stroke="#37f97b"/><path d="M173.84 1060.92 L173.84 1060.92 L234.83 1051.78 L198.24 1000.68 Z" fill="#37fd7b" stroke="#37fd7b"/><path d="M221.89 88.84 L221.89 88.84 L279.56 83.39 L249.40 30.35 Z" fill="#37fa86" stroke="#37fa86"/><path d="M226.62 194.56 L226.62 194.56 L287.70 193.23 L252.14 142.27 Z" fill="#37fa81" stroke="#37fa81"/><path d="M222.31 302.34 L222.31 302.34 L285.31 304.00 L265.28 246.13 Z" fill="#38fd8b" stroke="#38fd8b"/><path d="M207.59 411.60 L207.59 411.60 L270.04 417.10 L243.80 361.78 Z" fill="#36f871" stroke="#36f871"/><path d="M209.75 518.23 L209.75 518.23 L271.67 523.27 L234.96 466.64 Z" fill="#38fd80" stroke="#38fd80"/><path d="M226.95 622.66 L226.95 622.66 L291.24 621.70 L248.33 574.19 Z" fill="#37fa7d" stroke="#37fa7d"/><path d="M223.22 729.17 L223.22 729.17 L284.05 728.40 L262.42 674.55 Z" fill="#36f97f" stroke="#36f97f"/><path d="M219.56 836.65 L219.56 836.65 L280.24 831.45 L250.65 783.17 Z" fill="#37fc85" stroke="#37fc85"/><path d="M221.64 945.30 L221.64 945.30 L280.77 942.53 L249.85 888.49 Z" fill="#36fa75" stroke="#36fa75"/><path d="M234.83 1051.78 L234.83 1051.78 L297.18 1046.22 L258.17 996.50 Z" fill="#38fe9a" stroke="#38fe9a"/><path d="M279.56 83.39 L279.56 83.39 L338.14 79.26 L308.10 25.91 Z" fill="#37fb7d" stroke="#37fb7d"/><path d="M287.70 193.23 L287.70 193.23 L346.66 190.25 L310.76 139.59 Z" fill="#37fa7e" stroke="#37fa7e"/><path d="M285.31 304.00 L285.31 304.00 L346.27 303.97 L324.68 242.44 Z" fill="#38fd83" stroke="#38fd83"/><path d="M270.04 417.10 L270.04 417.10 L333.79 423.48 L306.37 365.58 Z" fill="#36f878" stroke="#36f878"/><path d="M271.67 523.27 L271.67 523.27 L333.91 526.62 L299.20 474.15 Z" fill="#38fe88" stroke="#38fe88"/><path d="M291.24 621.70 L291.24 621.70 L353.37 620.23 L309.58 574.29 Z" fill="#37fa7d" stroke="#37fa7d"/><path d="M284.05 728.40 L284.05 728.40 L343.13 723.69 L323.85 671.48 Z" fill="#37fa7f" stroke="#37fa7f"/><path d="M280.24 831.45 L280.24 831.45 L342.27 827.77 L310.31 778.48 Z" fill="#37fc84" stroke="#37fc84"/><path d="M280.77 942.53 L280.77 942.53 L340.06 936.96 L311.03 884.14 Z" fill="#37f97c" stroke="#37f97c"/><path d="M297.18 1046.22 L297.18 1046.22 L360.88 1044.18 L319.48 992.53 Z" fill="#37fc86" stroke="#37fc86"/><path d="M338.14 79.26 L338.14 79.26 L398.02 76.69 L367.64 23.24 Z" fill="#37fa81" stroke="#37fa81"/><path d="M346.66 190.25 L346.66 190.25 L406.34 185.95 L369.19 134.45 Z" fill="#37f981" stroke="#37f981"/><path d="M346.27 303.97 L346.27 303.97 L407.56 303.37 L385.16 241.24 Z" fill="#37fe79" stroke="#37fe79"/><path d="M333.79 423.48 L333.79 423.48 L398.41 429.00 L368.19 366.48 Z" fill="#36f87c" stroke="#36f87c"/><path d="M333.91 526.62 L333.91 526.62 L398.19 529.44 L364.63 482.95 Z" fill="#38ff7a" stroke="#38ff7a"/><path d="M353.37 620.23 L353.37 620.23 L414.13 620.19 L371.19 573.65 Z" fill="#37fa80" stroke="#37fa80"/><path d="M343.13 723.69 L343.13 723.69 L402.76 717.11 L384.62 669.03 Z" fill="#37fa8b" stroke="#37fa8b"/><path d="M342.27 827.77 L342.27 827.77 L401.66 825.85 L369.88 773.24 Z" fill="#37fc80" stroke="#37fc80"/><path d="M340.06 936.96 L340.06 936.96 L399.65 930.40 L371.45 880.21 Z" fill="#37f980" stroke="#37f980"/><path d="M360.88 1044.18 L360.88 1044.18 L422.09 1043.81 L380.37 988.65 Z" fill="#37fd7d" stroke="#37fd7d"/><path d="M398.02 76.69 L398.02 76.69 L458.59 75.32 L428.52 23.37 Z" fill="#37fa82" stroke="#37fa82"/><path d="M406.34 185.95 L406.34 185.95 L466.83 183.87 L427.36 125.45 Z" fill="#36f884" stroke="#36f884"/><path d="M407.56 303.37 L407.56 303.37 L469.41 303.23 L447.35 243.96 Z" fill="#37fd7a" stroke="#37fd7a"/><path d="M398.41 429.00 L398.41 429.00 L462.90 431.24 L428.86 362.81 Z" fill="#36f880" stroke="#36f880"/><path d="M398.19 529.44 L398.19 529.44 L462.51 530.50 L431.96 493.74 Z" fill="#38ff6f" stroke="#38ff6f"/><path d="M414.13 620.19 L414.13 620.19 L475.23 620.94 L433.36 571.86 Z" fill="#37f981" stroke="#37f981"/><path d="M402.76 717.11 L402.76 717.11 L463.35 713.30 L444.38 667.57 Z" fill="#37fa7d" stroke="#37fa7d"/><path d="M401.66 825.85 L401.66 825.85 L461.22 824.07 L429.32 767.14 Z" fill="#37fc80" stroke="#37fc80"/><path d="M399.65 930.40 L399.65 930.40 L460.30 926.63 L430.70 876.97 Z" fill="#36f88c" stroke="#36f88c"/><path d="M422.09 1043.81 L422.09 1043.81 L483.24 1045.59 L440.59 984.90 Z" fill="#37fd85" stroke="#37fd85"/><path d="M458.59 75.32 L458.59 75.32 L520.59 76.58 L489.76 23.33 Z" fill="#37fb82" stroke="#37fb82"/><path d="M466.83 183.87 L466.83 183.87 L529.24 188.09 L489.13 127.13 Z" fill="#36f881" stroke="#36f881"/><path d="M469.41 303.23 L469.41 303.23 L532.68 304.53 L509.15 246.65 Z" fill="#37fc76" stroke="#37fc76"/><path d="M462.90 431.24 L462.90 431.24 L526.77 425.11 L492.72 361.66 Z" fill="#36f888" stroke="#36f888"/><path d="M462.51 530.50 L462.51 530.50 L526.29 527.08 L496.13 488.95 Z" fill="#38ff72" stroke="#38ff72"/><path d="M475.23 620.94 L475.23 620.94 L537.67 623.27 L496.70 572.18 Z" fill="#36f987" stroke="#36f987"/><path d="M463.35 713.30 L463.35 713.30 L526.31 717.40 L506.01 669.87 Z" fill="#37fa7f" stroke="#37fa7f"/><path d="M461.22 824.07 L461.22 824.07 L522.11 822.09 L491.01 767.26 Z" fill="#37fc78" stroke="#37fc78"/><path d="M460.30 926.63 L460.30 926.63 L523.65 930.53 L491.89 876.25 Z" fill="#36f896" stroke="#36f896"/><path d="M483.24 1045.59 L483.24 1045.59 L545.07 1052.53 L502.74 988.42 Z" fill="#38ff73" stroke="#38ff73"/><path d="M520.59 76.58 L520.59 76.58 L582.48 77.27 L551.16 23.04 Z" fill="#37fb7f" stroke="#37fb7f"/><path d="M529.24 188.09 L529.24 188.09 L592.25 192.06 L551.94 132.06 Z" fill="#36f984" stroke="#36f984"/><path d="M532.68 304.53 L532.68 304.53 L596.57 305.70 L571.19 248.96 Z" fill="#37fd76" stroke="#37fd76"/><path d="M526.77 425.11 L526.77 425.11 L591.09 419.47 L557.45 361.55 Z" fill="#36f87e" stroke="#36f87e"/><path d="M526.29 527.08 L526.29 527.08 L590.45 522.70 L559.60 479.55 Z" fill="#38ff7c" stroke="#38ff7c"/><path d="M537.67 623.27 L537.67 623.27 L600.68 625.17 L560.43 572.81 Z" fill="#36f880" stroke="#36f880"/><path d="M526.31 717.40 L526.31 717.40 L590.69 720.84 L568.43 673.21 Z" fill="#36fa89" stroke="#36fa89"/><path d="M522.11 822.09 L522.11 822.09 L581.73 820.63 L553.48 769.12 Z" fill="#37fc7d" stroke="#37fc7d"/><path d="M523.65 930.53 L523.65 930.53 L587.87 934.95 L553.50 876.43 Z" fill="#36f984" stroke="#36f984"/><path d="M545.07 1052.53 L545.07 1052.53 L604.51 1058.95 L565.28 994.05 Z" fill="#39ff84" stroke="#39ff84"/><path d="M582.48 77.27 L582.48 77.27 L644.28 77.96 L612.79 21.66 Z" fill="#37fa83" stroke="#37fa83"/><path d="M592.25 192.06 L592.25 192.06 L655.45 195.73 L614.61 137.74 Z" fill="#36f97b" stroke="#36f97b"/><path d="M596.57 305.70 L596.57 305.70 L660.59 306.64 L635.13 249.28 Z" fill="#38fd84" stroke="#38fd84"/><path d="M591.09 419.47 L591.09 419.47 L655.57 414.12 L621.89 363.04 Z" fill="#36f974" stroke="#36f974"/><path d="M590.45 522.70 L590.45 522.70 L654.79 517.88 L624.20 469.79 Z" fill="#38ff98" stroke="#38ff98"/><path d="M600.68 625.17 L600.68 625.17 L663.80 626.80 L624.40 571.97 Z" fill="#36f878" stroke="#36f878"/><path d="M590.69 720.84 L590.69 720.84 L655.61 723.88 L632.11 676.21 Z" fill="#37fa78" stroke="#37fa78"/><path d="M581.73 820.63 L581.73 820.63 L640.91 820.00 L616.57 770.60 Z" fill="#37fc92" stroke="#37fc92"/><path d="M587.87 934.95 L587.87 934.95 L652.42 939.43 L614.35 877.39 Z" fill="#36f974" stroke="#36f974"/><path d="M604.51 1058.95 L604.51 1058.95 L662.81 1064.77 L627.00 999.70 Z" fill="#38ffa1" stroke="#38ffa1"/><path d="M644.28 77.96 L644.28 77.96 L705.18 84.54 L673.57 26.21 Z" fill="#37f985" stroke="#37f985"/><path d="M655.45 195.73 L655.45 195.73 L715.84 195.74 L677.74 139.19 Z" fill="#37f97b" stroke="#37f97b"/><path d="M660.59 306.64 L660.59 306.64 L720.78 304.26 L694.70 251.95 Z" fill="#37fd83" stroke="#37fd83"/><path d="M655.57 414.12 L655.57 414.12 L718.33 409.81 L686.33 358.78 Z" fill="#37f97c" stroke="#37f97c"/><path d="M654.79 517.88 L654.79 517.88 L718.80 514.62 L687.32 464.78 Z" fill="#38fe97" stroke="#38fe97"/><path d="M663.80 626.80 L663.80 626.80 L722.83 627.74 L688.24 569.82 Z" fill="#36f97c" stroke="#36f97c"/><path d="M655.61 723.88 L655.61 723.88 L716.33 725.50 L692.67 679.00 Z" fill="#37f976" stroke="#37f976"/><path d="M640.91 820.00 L640.91 820.00 L704.57 831.47 L679.34 774.09 Z" fill="#37fc8d" stroke="#37fc8d"/><path d="M652.42 939.43 L652.42 939.43 L714.60 939.59 L676.47 881.90 Z" fill="#36f97a" stroke="#36f97a"/><path d="M662.81 1064.77 L662.81 1064.77 L722.85 1063.69 L688.37 1001.82 Z" fill="#38ff96" stroke="#38ff96"/><path d="M705.18 84.54 L705.18 84.54 L767.05 89.74 L733.64 35.68 Z" fill="#37fa85" stroke="#37fa85"/><path d="M715.84 195.74 L715.84 195.74 L776.54 196.54 L741.25 137.13 Z" fill="#37fa84" stroke="#37fa84"/><path d="M720.78 304.26 L720.78 304.26 L781.69 302.51 L750.63 256.58 Z" fill="#37fc7f" stroke="#37fc7f"/><path d="M718.33 409.81 L718.33 409.81 L781.70 405.98 L750.79 349.71 Z" fill="#37fb82" stroke="#37fb82"/><path d="M718.80 514.62 L718.80 514.62 L782.69 512.71 L749.21 463.72 Z" fill="#37fd86" stroke="#37fd86"/><path d="M722.83 627.74 L722.83 627.74 L782.23 627.10 L751.97 566.59 Z" fill="#37f980" stroke="#37f980"/><path d="M716.33 725.50 L716.33 725.50 L777.52 729.47 L750.63 681.60 Z" fill="#36f980" stroke="#36f980"/><path d="M704.57 831.47 L704.57 831.47 L767.58 839.82 L741.83 779.26 Z" fill="#37fc81" stroke="#37fc81"/><path d="M714.60 939.59 L714.60 939.59 L776.90 943.42 L739.66 889.36 Z" fill="#37f982" stroke="#37f982"/><path d="M722.85 1063.69 L722.85 1063.69 L782.24 1059.95 L749.46 1001.01 Z" fill="#38ff85" stroke="#38ff85"/><path d="M767.05 89.74 L767.05 89.74 L830.21 93.13 L796.83 38.32 Z" fill="#37fa85" stroke="#37fa85"/><path d="M776.54 196.54 L776.54 196.54 L837.63 198.38 L803.63 143.50 Z" fill="#37fa82" stroke="#37fa82"/><path d="M781.69 302.51 L781.69 302.51 L843.55 301.59 L810.17 251.88 Z" fill="#37fb81" stroke="#37fb81"/><path d="M781.70 405.98 L781.70 405.98 L845.89 402.80 L814.76 352.16 Z" fill="#37fb8c" stroke="#37fb8c"/><path d="M782.69 512.71 L782.69 512.71 L846.43 512.59 L813.31 457.29 Z" fill="#37fb80" stroke="#37fb80"/><path d="M782.23 627.10 L782.23 627.10 L842.09 624.36 L814.54 568.62 Z" fill="#37f985" stroke="#37f985"/><path d="M777.52 729.47 L777.52 729.47 L839.33 736.52 L810.12 680.56 Z" fill="#37fa79" stroke="#37fa79"/><path d="M767.58 839.82 L767.58 839.82 L829.71 844.03 L804.28 786.98 Z" fill="#37fb7e" stroke="#37fb7e"/><path d="M776.90 943.42 L776.90 943.42 L839.33 952.11 L801.95 895.12 Z" fill="#37fa8e" stroke="#37fa8e"/><path d="M782.24 1059.95 L782.24 1059.95 L840.75 1052.68 L810.03 1002.02 Z" fill="#37ff7e" stroke="#37ff7e"/><path d="M830.21 93.13 L830.21 93.13 L891.57 95.91 L859.36 40.69 Z" fill="#37fb81" stroke="#37fb81"/><path d="M837.63 198.38 L837.63 198.38 L899.14 198.08 L865.89 148.91 Z" fill="#37fb7f" stroke="#37fb7f"/><path d="M843.55 301.59 L843.55 301.59 L904.72 299.77 L870.24 246.91 Z" fill="#37fb7b" stroke="#37fb7b"/><path d="M845.89 402.80 L845.89 402.80 L907.38 402.45 L877.90 354.47 Z" fill="#37fb9b" stroke="#37fb9b"/><path d="M846.43 512.59 L846.43 512.59 L908.19 511.13 L876.42 452.63 Z" fill="#37fa7b" stroke="#37fa7b"/><path d="M842.09 624.36 L842.09 624.36 L903.87 621.26 L876.83 569.33 Z" fill="#37fb86" stroke="#37fb86"/><path d="M839.33 736.52 L839.33 736.52 L900.59 736.52 L870.47 678.80 Z" fill="#37fa79" stroke="#37fa79"/><path d="M829.71 844.03 L829.71 844.03 L890.02 848.18 L866.10 792.67 Z" fill="#37fa7a" stroke="#37fa7a"/><path d="M839.33 952.11 L839.33 952.11 L902.37 952.82 L863.86 899.71 Z" fill="#37fb8d" stroke="#37fb8d"/><path d="M840.75 1052.68 L840.75 1052.68 L900.86 1049.42 L871.02 1002.20 Z" fill="#37fb6e" stroke="#37fb6e"/><path d="M891.57 95.91 L891.57 95.91 L952.55 99.02 L919.99 43.58 Z" fill="#37fc85" stroke="#37fc85"/><path d="M899.14 198.08 L899.14 198.08 L961.00 197.06 L928.05 150.88 Z" fill="#37fb83" stroke="#37fb83"/><path d="M904.72 299.77 L904.72 299.77 L966.01 297.63 L930.87 242.88 Z" fill="#37fb7c" stroke="#37fb7c"/><path d="M907.38 402.45 L907.38 402.45 L968.44 402.85 L939.29 354.58 Z" fill="#37fb93" stroke="#37fb93"/><path d="M908.19 511.13 L908.19 511.13 L969.87 509.48 L937.07 452.66 Z" fill="#37fb7b" stroke="#37fb7b"/><path d="M903.87 621.26 L903.87 621.26 L966.14 618.51 L938.69 566.33 Z" fill="#37fb80" stroke="#37fb80"/><path d="M900.59 736.52 L900.59 736.52 L962.21 734.54 L932.45 676.08 Z" fill="#37fa82" stroke="#37fa82"/><path d="M890.02 848.18 L890.02 848.18 L949.65 852.88 L926.57 793.54 Z" fill="#37fa7f" stroke="#37fa7f"/><path d="M902.37 952.82 L902.37 952.82 L964.95 951.19 L925.09 902.05 Z" fill="#37fc83" stroke="#37fc83"/><path d="M900.86 1049.42 L900.86 1049.42 L961.68 1047.34 L932.97 1000.31 Z" fill="#37f975" stroke="#37f975"/><path d="M952.55 99.02 L952.55 99.02 L1013.67 103.99 L980.16 50.07 Z" fill="#37fb7f" stroke="#37fb7f"/><path d="M961.00 197.06 L961.00 197.06 L1023.86 195.09 L991.54 148.72 Z" fill="#37fb7c" stroke="#37fb7c"/><path d="M966.01 297.63 L966.01 297.63 L1028.43 295.06 L991.53 243.47 Z" fill="#37fb8e" stroke="#37fb8e"/><path d="M968.44 402.85 L968.44 402.85 L1030.13 403.72 L1002.54 349.57 Z" fill="#37fb75" stroke="#37fb75"/><path d="M969.87 509.48 L969.87 509.48 L1033.01 508.30 L997.56 456.68 Z" fill="#37fc90" stroke="#37fc90"/><path d="M966.14 618.51 L966.14 618.51 L1028.61 617.44 L1002.25 562.31 Z" fill="#37fb79" stroke="#37fb79"/><path d="M962.21 734.54 L962.21 734.54 L1025.68 731.02 L994.57 674.77 Z" fill="#37fa7d" stroke="#37fa7d"/><path d="M949.65 852.88 L949.65 852.88 L1008.24 859.76 L988.05 793.67 Z" fill="#37fa81" stroke="#37fa81"/><path d="M964.95 951.19 L964.95 951.19 L1025.20 947.44 L984.65 905.05 Z" fill="#37fb7d" stroke="#37fb7d"/><path d="M961.68 1047.34 L961.68 1047.34 L1023.92 1046.41 L994.46 997.80 Z" fill="#37fb92" stroke="#37fb92"/><path d="M1013.67 103.99 L1013.67 103.99 L1073.83 106.09 L1040.08 57.33 Z" fill="#37fb73" stroke="#37fb73"/><path d="M1023.86 195.09 L1023.86 195.09 L1085.38 195.05 L1055.22 145.34 Z" fill="#37fb77" stroke="#37fb77"/><path d="M1008.24 859.76 L1008.24 859.76 L1068.48 861.44 L1049.82 793.60 Z" fill="#37fb7b" stroke="#37fb7b"/><path d="M1023.92 1046.41 L1023.92 1046.41 L1085.80 1049.92 L1055.72 995.82 Z" fill="#37fb92" stroke="#37fb92"/><path d="M-42.71 49.57 L-42.71 49.57 L-12.09 101.00 L20.16 50.37 Z" fill="#37fa78" stroke="#37fa78"/><path d="M-45.26 144.51 L-45.26 144.51 L-24.63 194.89 L16.71 149.86 Z" fill="#37fa7a" stroke="#37fa7a"/><path d="M-47.35 786.96 L-47.35 786.96 L-17.57 847.26 L9.60 786.69 Z" fill="#37fa81" stroke="#37fa81"/><path d="M-45.50 900.02 L-45.50 900.02 L-14.44 949.78 L13.35 899.50 Z" fill="#37fa7b" stroke="#37fa7b"/><path d="M-51.37 1002.02 L-51.37 1002.02 L-24.15 1059.35 L13.29 1006.88 Z" fill="#36f97a" stroke="#36f97a"/><path d="M20.16 50.37 L20.16 50.37 L50.26 102.58 L81.44 50.20 Z" fill="#37fb82" stroke="#37fb82"/><path d="M16.71 149.86 L16.71 149.86 L37.66 197.07 L77.67 152.00 Z" fill="#37fa7d" stroke="#37fa7d"/><path d="M-5.53 241.64 L-5.53 241.64 L25.02 292.43 L58.77 241.16 Z" fill="#37fc88" stroke="#37fc88"/><path d="M-4.48 346.26 L-4.48 346.26 L23.26 399.16 L55.33 344.97 Z" fill="#36f977" stroke="#36f977"/><path d="M-9.83 456.30 L-9.83 456.30 L24.33 506.58 L53.69 453.03 Z" fill="#37fa7b" stroke="#37fa7b"/><path d="M-3.34 561.67 L-3.34 561.67 L28.27 617.59 L57.06 561.11 Z" fill="#38fd90" stroke="#38fd90"/><path d="M-0.19 673.44 L-0.19 673.44 L34.67 729.45 L63.23 674.37 Z" fill="#37fc86" stroke="#37fc86"/><path d="M9.60 786.69 L9.60 786.69 L40.92 844.32 L67.42 785.79 Z" fill="#37fb79" stroke="#37fb79"/><path d="M13.35 899.50 L13.35 899.50 L44.21 953.22 L72.29 898.68 Z" fill="#37f980" stroke="#37f980"/><path d="M13.29 1006.88 L13.29 1006.88 L46.50 1065.32 L76.95 1009.59 Z" fill="#36fa6e" stroke="#36fa6e"/><path d="M81.44 50.20 L81.44 50.20 L108.46 100.01 L137.43 47.45 Z" fill="#37f97a" stroke="#37f97a"/><path d="M77.67 152.00 L77.67 152.00 L100.43 196.08 L134.93 143.23 Z" fill="#37fa87" stroke="#37fa87"/><path d="M58.77 241.16 L58.77 241.16 L90.36 294.87 L128.59 248.32 Z" fill="#37fd79" stroke="#37fd79"/><path d="M55.33 344.97 L55.33 344.97 L85.00 401.75 L119.29 346.14 Z" fill="#37f98b" stroke="#37f98b"/><path d="M53.69 453.03 L53.69 453.03 L86.06 507.95 L113.69 460.68 Z" fill="#37fb78" stroke="#37fb78"/><path d="M57.06 561.11 L57.06 561.11 L93.89 620.08 L121.41 562.14 Z" fill="#37fb82" stroke="#37fb82"/><path d="M63.23 674.37 L63.23 674.37 L96.85 727.83 L129.70 676.71 Z" fill="#37fb86" stroke="#37fb86"/><path d="M67.42 785.79 L67.42 785.79 L100.43 843.82 L129.20 783.21 Z" fill="#37fc6e" stroke="#37fc6e"/><path d="M72.29 898.68 L72.29 898.68 L103.37 950.08 L131.68 896.93 Z" fill="#37f98c" stroke="#37f98c"/><path d="M76.95 1009.59 L76.95 1009.59 L111.34 1064.68 L137.91 1005.02 Z" fill="#37fc72" stroke="#37fc72"/><path d="M137.43 47.45 L137.43 47.45 L165.15 95.62 L193.41 40.26 Z" fill="#37fa7d" stroke="#37fa7d"/><path d="M134.93 143.23 L134.93 143.23 L163.40 194.22 L193.22 140.80 Z" fill="#37fa8f" stroke="#37fa8f"/><path d="M128.59 248.32 L128.59 248.32 L157.25 298.98 L197.30 249.17 Z" fill="#37fd6e" stroke="#37fd6e"/><path d="M119.29 346.14 L119.29 346.14 L146.43 407.01 L181.94 352.40 Z" fill="#37f98f" stroke="#37f98f"/><path d="M113.69 460.68 L113.69 460.68 L148.17 511.49 L174.17 464.75 Z" fill="#37fd7a" stroke="#37fd7a"/><path d="M121.41 562.14 L121.41 562.14 L160.45 623.09 L185.09 567.00 Z" fill="#37fa7d" stroke="#37fa7d"/><path d="M129.70 676.71 L129.70 676.71 L160.61 725.95 L196.09 676.43 Z" fill="#37fa85" stroke="#37fa85"/><path d="M129.20 783.21 L129.20 783.21 L160.25 843.37 L190.17 782.60 Z" fill="#37fd74" stroke="#37fd74"/><path d="M131.68 896.93 L131.68 896.93 L162.67 945.22 L190.84 893.29 Z" fill="#37f882" stroke="#37f882"/><path d="M137.91 1005.02 L137.91 1005.02 L173.84 1060.92 L198.24 1000.68 Z" fill="#37fd73" stroke="#37fd73"/><path d="M193.41 40.26 L193.41 40.26 L221.89 88.84 L249.40 30.35 Z" fill="#37fb8b" stroke="#37fb8b"/><path d="M193.22 140.80 L193.22 140.80 L226.62 194.56 L252.14 142.27 Z" fill="#37f97b" stroke="#37f97b"/><path d="M197.30 249.17 L197.30 249.17 L222.31 302.34 L265.28 246.13 Z" fill="#38fd7c" stroke="#38fd7c"/><path d="M181.94 352.40 L181.94 352.40 L207.59 411.60 L243.80 361.78 Z" fill="#36f878" stroke="#36f878"/><path d="M174.17 464.75 L174.17 464.75 L209.75 518.23 L234.96 466.64 Z" fill="#38fd7c" stroke="#38fd7c"/><path d="M185.09 567.00 L185.09 567.00 L226.95 622.66 L248.33 574.19 Z" fill="#37fa87" stroke="#37fa87"/><path d="M196.09 676.43 L196.09 676.43 L223.22 729.17 L262.42 674.55 Z" fill="#37fa82" stroke="#37fa82"/><path d="M190.17 782.60 L190.17 782.60 L219.56 836.65 L250.65 783.17 Z" fill="#38fd7c" stroke="#38fd7c"/><path d="M190.84 893.29 L190.84 893.29 L221.64 945.30 L249.85 888.49 Z" fill="#36f874" stroke="#36f874"/><path d="M198.24 1000.68 L198.24 1000.68 L234.83 1051.78 L258.17 996.50 Z" fill="#38fe89" stroke="#38fe89"/><path d="M249.40 30.35 L249.40 30.35 L279.56 83.39 L308.10 25.91 Z" fill="#37fb87" stroke="#37fb87"/><path d="M252.14 142.27 L252.14 142.27 L287.70 193.23 L310.76 139.59 Z" fill="#36f97c" stroke="#36f97c"/><path d="M265.28 246.13 L265.28 246.13 L285.31 304.00 L324.68 242.44 Z" fill="#38fe89" stroke="#38fe89"/><path d="M243.80 361.78 L243.80 361.78 L270.04 417.10 L306.37 365.58 Z" fill="#36f870" stroke="#36f870"/><path d="M234.96 466.64 L234.96 466.64 L271.67 523.27 L299.20 474.15 Z" fill="#38fd87" stroke="#38fd87"/><path d="M248.33 574.19 L248.33 574.19 L291.24 621.70 L309.58 574.29 Z" fill="#37fa81" stroke="#37fa81"/><path d="M262.42 674.55 L262.42 674.55 L284.05 728.40 L323.85 671.48 Z" fill="#37fa7d" stroke="#37fa7d"/><path d="M250.65 783.17 L250.65 783.17 L280.24 831.45 L310.31 778.48 Z" fill="#38fd84" stroke="#38fd84"/><path d="M249.85 888.49 L249.85 888.49 L280.77 942.53 L311.03 884.14 Z" fill="#36f878" stroke="#36f878"/><path d="M258.17 996.50 L258.17 996.50 L297.18 1046.22 L319.48 992.53 Z" fill="#38fd8b" stroke="#38fd8b"/><path d="M308.10 25.91 L308.10 25.91 L338.14 79.26 L367.64 23.24 Z" fill="#37fc81" stroke="#37fc81"/><path d="M310.76 139.59 L310.76 139.59 L346.66 190.25 L369.19 134.45 Z" fill="#36f881" stroke="#36f881"/><path d="M324.68 242.44 L324.68 242.44 L346.27 303.97 L385.16 241.24 Z" fill="#38ff79" stroke="#38ff79"/><path d="M306.37 365.58 L306.37 365.58 L333.79 423.48 L368.19 366.48 Z" fill="#36f777" stroke="#36f777"/><path d="M299.20 474.15 L299.20 474.15 L333.91 526.62 L364.63 482.95 Z" fill="#38fd83" stroke="#38fd83"/><path d="M309.58 574.29 L309.58 574.29 L353.37 620.23 L371.19 573.65 Z" fill="#37fb7f" stroke="#37fb7f"/><path d="M323.85 671.48 L323.85 671.48 L343.13 723.69 L384.62 669.03 Z" fill="#37fa81" stroke="#37fa81"/><path d="M310.31 778.48 L310.31 778.48 L342.27 827.77 L369.88 773.24 Z" fill="#37fc84" stroke="#37fc84"/><path d="M311.03 884.14 L311.03 884.14 L340.06 936.96 L371.45 880.21 Z" fill="#36f87d" stroke="#36f87d"/><path d="M319.48 992.53 L319.48 992.53 L360.88 1044.18 L380.37 988.65 Z" fill="#37fc83" stroke="#37fc83"/><path d="M367.64 23.24 L367.64 23.24 L398.02 76.69 L428.52 23.37 Z" fill="#37fb7e" stroke="#37fb7e"/><path d="M369.19 134.45 L369.19 134.45 L406.34 185.95 L427.36 125.45 Z" fill="#37f97b" stroke="#37f97b"/><path d="M385.16 241.24 L385.16 241.24 L407.56 303.37 L447.35 243.96 Z" fill="#38ff72" stroke="#38ff72"/><path d="M368.19 366.48 L368.19 366.48 L398.41 429.00 L428.86 362.81 Z" fill="#36f77d" stroke="#36f77d"/><path d="M364.63 482.95 L364.63 482.95 L398.19 529.44 L431.96 493.74 Z" fill="#38fe77" stroke="#38fe77"/><path d="M371.19 573.65 L371.19 573.65 L414.13 620.19 L433.36 571.86 Z" fill="#37fa82" stroke="#37fa82"/><path d="M384.62 669.03 L384.62 669.03 L402.76 717.11 L444.38 667.57 Z" fill="#37f984" stroke="#37f984"/><path d="M369.88 773.24 L369.88 773.24 L401.66 825.85 L429.32 767.14 Z" fill="#37fd7d" stroke="#37fd7d"/><path d="M371.45 880.21 L371.45 880.21 L399.65 930.40 L430.70 876.97 Z" fill="#37f882" stroke="#37f882"/><path d="M380.37 988.65 L380.37 988.65 L422.09 1043.81 L440.59 984.90 Z" fill="#37fc84" stroke="#37fc84"/><path d="M428.52 23.37 L428.52 23.37 L458.59 75.32 L489.76 23.33 Z" fill="#37fb7d" stroke="#37fb7d"/><path d="M427.36 125.45 L427.36 125.45 L466.83 183.87 L489.13 127.13 Z" fill="#37f983" stroke="#37f983"/><path d="M447.35 243.96 L447.35 243.96 L469.41 303.23 L509.15 246.65 Z" fill="#38ff74" stroke="#38ff74"/><path d="M428.86 362.81 L428.86 362.81 L462.90 431.24 L492.72 361.66 Z" fill="#37f984" stroke="#37f984"/><path d="M431.96 493.74 L431.96 493.74 L462.51 530.50 L496.13 488.95 Z" fill="#38ff72" stroke="#38ff72"/><path d="M433.36 571.86 L433.36 571.86 L475.23 620.94 L496.70 572.18 Z" fill="#37f97a" stroke="#37f97a"/><path d="M444.38 667.57 L444.38 667.57 L463.35 713.30 L506.01 669.87 Z" fill="#37f982" stroke="#37f982"/><path d="M429.32 767.14 L429.32 767.14 L461.22 824.07 L491.01 767.26 Z" fill="#38fd83" stroke="#38fd83"/><path d="M430.70 876.97 L430.70 876.97 L460.30 926.63 L491.89 876.25 Z" fill="#36f895" stroke="#36f895"/><path d="M440.59 984.90 L440.59 984.90 L483.24 1045.59 L502.74 988.42 Z" fill="#37fd7a" stroke="#37fd7a"/><path d="M489.76 23.33 L489.76 23.33 L520.59 76.58 L551.16 23.04 Z" fill="#37fc79" stroke="#37fc79"/><path d="M489.13 127.13 L489.13 127.13 L529.24 188.09 L551.94 132.06 Z" fill="#36f989" stroke="#36f989"/><path d="M509.15 246.65 L509.15 246.65 L532.68 304.53 L571.19 248.96 Z" fill="#38ff73" stroke="#38ff73"/><path d="M492.72 361.66 L492.72 361.66 L526.77 425.11 L557.45 361.55 Z" fill="#36f98b" stroke="#36f98b"/><path d="M496.13 488.95 L496.13 488.95 L526.29 527.08 L559.60 479.55 Z" fill="#37fe76" stroke="#37fe76"/><path d="M496.70 572.18 L496.70 572.18 L537.67 623.27 L560.43 572.81 Z" fill="#37f982" stroke="#37f982"/><path d="M506.01 669.87 L506.01 669.87 L526.31 717.40 L568.43 673.21 Z" fill="#36f987" stroke="#36f987"/><path d="M491.01 767.26 L491.01 767.26 L522.11 822.09 L553.48 769.12 Z" fill="#38ff75" stroke="#38ff75"/><path d="M491.89 876.25 L491.89 876.25 L523.65 930.53 L553.50 876.43 Z" fill="#36f88f" stroke="#36f88f"/><path d="M502.74 988.42 L502.74 988.42 L545.07 1052.53 L565.28 994.05 Z" fill="#38fd7c" stroke="#38fd7c"/><path d="M551.16 23.04 L551.16 23.04 L582.48 77.27 L612.79 21.66 Z" fill="#37fc7d" stroke="#37fc7d"/><path d="M551.94 132.06 L551.94 132.06 L592.25 192.06 L614.61 137.74 Z" fill="#36f97a" stroke="#36f97a"/><path d="M571.19 248.96 L571.19 248.96 L596.57 305.70 L635.13 249.28 Z" fill="#38ff7f" stroke="#38ff7f"/><path d="M557.45 361.55 L557.45 361.55 L591.09 419.47 L621.89 363.04 Z" fill="#36f973" stroke="#36f973"/><path d="M559.60 479.55 L559.60 479.55 L590.45 522.70 L624.20 469.79 Z" fill="#37fd86" stroke="#37fd86"/><path d="M560.43 572.81 L560.43 572.81 L600.68 625.17 L624.40 571.97 Z" fill="#37f984" stroke="#37f984"/><path d="M568.43 673.21 L568.43 673.21 L590.69 720.84 L632.11 676.21 Z" fill="#36f97f" stroke="#36f97f"/><path d="M553.48 769.12 L553.48 769.12 L581.73 820.63 L616.57 770.60 Z" fill="#38ff87" stroke="#38ff87"/><path d="M553.50 876.43 L553.50 876.43 L587.87 934.95 L614.35 877.39 Z" fill="#37f976" stroke="#37f976"/><path d="M565.28 994.05 L565.28 994.05 L604.51 1058.95 L627.00 999.70 Z" fill="#38ff8c" stroke="#38ff8c"/><path d="M612.79 21.66 L612.79 21.66 L644.28 77.96 L673.57 26.21 Z" fill="#37fc84" stroke="#37fc84"/><path d="M614.61 137.74 L614.61 137.74 L655.45 195.73 L677.74 139.19 Z" fill="#36f97a" stroke="#36f97a"/><path d="M635.13 249.28 L635.13 249.28 L660.59 306.64 L694.70 251.95 Z" fill="#38ff91" stroke="#38ff91"/><path d="M621.89 363.04 L621.89 363.04 L655.57 414.12 L686.33 358.78 Z" fill="#36f976" stroke="#36f976"/><path d="M624.20 469.79 L624.20 469.79 L654.79 517.88 L687.32 464.78 Z" fill="#38fd8f" stroke="#38fd8f"/><path d="M624.40 571.97 L624.40 571.97 L663.80 626.80 L688.24 569.82 Z" fill="#36f977" stroke="#36f977"/><path d="M632.11 676.21 L632.11 676.21 L655.61 723.88 L692.67 679.00 Z" fill="#36f975" stroke="#36f975"/><path d="M616.57 770.60 L616.57 770.60 L640.91 820.00 L679.34 774.09 Z" fill="#38ffa3" stroke="#38ffa3"/><path d="M614.35 877.39 L614.35 877.39 L652.42 939.43 L676.47 881.90 Z" fill="#36f976" stroke="#36f976"/><path d="M627.00 999.70 L627.00 999.70 L662.81 1064.77 L688.37 1001.82 Z" fill="#38ffa3" stroke="#38ffa3"/><path d="M673.57 26.21 L673.57 26.21 L705.18 84.54 L733.64 35.68 Z" fill="#37fb82" stroke="#37fb82"/><path d="M677.74 139.19 L677.74 139.19 L715.84 195.74 L741.25 137.13 Z" fill="#37fa86" stroke="#37fa86"/><path d="M694.70 251.95 L694.70 251.95 L720.78 304.26 L750.63 256.58 Z" fill="#37fe83" stroke="#37fe83"/><path d="M686.33 358.78 L686.33 358.78 L718.33 409.81 L750.79 349.71 Z" fill="#37fa7e" stroke="#37fa7e"/><path d="M687.32 464.78 L687.32 464.78 L718.80 514.62 L749.21 463.72 Z" fill="#37fc8c" stroke="#37fc8c"/><path d="M688.24 569.82 L688.24 569.82 L722.83 627.74 L751.97 566.59 Z" fill="#36f87b" stroke="#36f87b"/><path d="M692.67 679.00 L692.67 679.00 L716.33 725.50 L750.63 681.60 Z" fill="#37f97c" stroke="#37f97c"/><path d="M679.34 774.09 L679.34 774.09 L704.57 831.47 L741.83 779.26 Z" fill="#38fe8f" stroke="#38fe8f"/><path d="M676.47 881.90 L676.47 881.90 L714.60 939.59 L739.66 889.36 Z" fill="#37fa7a" stroke="#37fa7a"/><path d="M688.37 1001.82 L688.37 1001.82 L722.85 1063.69 L749.46 1001.01 Z" fill="#38ff8d" stroke="#38ff8d"/><path d="M733.64 35.68 L733.64 35.68 L767.05 89.74 L796.83 38.32 Z" fill="#37fb8b" stroke="#37fb8b"/><path d="M741.25 137.13 L741.25 137.13 L776.54 196.54 L803.63 143.50 Z" fill="#37fa81" stroke="#37fa81"/><path d="M750.63 256.58 L750.63 256.58 L781.69 302.51 L810.17 251.88 Z" fill="#37fb7c" stroke="#37fb7c"/><path d="M750.79 349.71 L750.79 349.71 L781.70 405.98 L814.76 352.16 Z" fill="#37fb85" stroke="#37fb85"/><path d="M749.21 463.72 L749.21 463.72 L782.69 512.71 L813.31 457.29 Z" fill="#37fb85" stroke="#37fb85"/><path d="M751.97 566.59 L751.97 566.59 L782.23 627.10 L814.54 568.62 Z" fill="#36f880" stroke="#36f880"/><path d="M750.63 681.60 L750.63 681.60 L777.52 729.47 L810.12 680.56 Z" fill="#37f981" stroke="#37f981"/><path d="M741.83 779.26 L741.83 779.26 L767.58 839.82 L804.28 786.98 Z" fill="#37fe7e" stroke="#37fe7e"/><path d="M739.66 889.36 L739.66 889.36 L776.90 943.42 L801.95 895.12 Z" fill="#37f989" stroke="#37f989"/><path d="M749.46 1001.01 L749.46 1001.01 L782.24 1059.95 L810.03 1002.02 Z" fill="#38ff7d" stroke="#38ff7d"/><path d="M796.83 38.32 L796.83 38.32 L830.21 93.13 L859.36 40.69 Z" fill="#37fa7b" stroke="#37fa7b"/><path d="M803.63 143.50 L803.63 143.50 L837.63 198.38 L865.89 148.91 Z" fill="#37fb86" stroke="#37fb86"/><path d="M810.17 251.88 L810.17 251.88 L843.55 301.59 L870.24 246.91 Z" fill="#37fb82" stroke="#37fb82"/><path d="M814.76 352.16 L814.76 352.16 L845.89 402.80 L877.90 354.47 Z" fill="#37fb91" stroke="#37fb91"/><path d="M813.31 457.29 L813.31 457.29 L846.43 512.59 L876.42 452.63 Z" fill="#37fa79" stroke="#37fa79"/><path d="M814.54 568.62 L814.54 568.62 L842.09 624.36 L876.83 569.33 Z" fill="#37f97b" stroke="#37f97b"/><path d="M810.12 680.56 L810.12 680.56 L839.33 736.52 L870.47 678.80 Z" fill="#37f980" stroke="#37f980"/><path d="M804.28 786.98 L804.28 786.98 L829.71 844.03 L866.10 792.67 Z" fill="#37fb76" stroke="#37fb76"/><path d="M801.95 895.12 L801.95 895.12 L839.33 952.11 L863.86 899.71 Z" fill="#37fb94" stroke="#37fb94"/><path d="M810.03 1002.02 L810.03 1002.02 L840.75 1052.68 L871.02 1002.20 Z" fill="#37fd7e" stroke="#37fd7e"/><path d="M859.36 40.69 L859.36 40.69 L891.57 95.91 L919.99 43.58 Z" fill="#37fb7a" stroke="#37fb7a"/><path d="M865.89 148.91 L865.89 148.91 L899.14 198.08 L928.05 150.88 Z" fill="#37fd91" stroke="#37fd91"/><path d="M870.24 246.91 L870.24 246.91 L904.72 299.77 L930.87 242.88 Z" fill="#36f872" stroke="#36f872"/><path d="M877.90 354.47 L877.90 354.47 L907.38 402.45 L939.29 354.58 Z" fill="#37fc93" stroke="#37fc93"/><path d="M876.42 452.63 L876.42 452.63 L908.19 511.13 L937.07 452.66 Z" fill="#37fb7b" stroke="#37fb7b"/><path d="M876.83 569.33 L876.83 569.33 L903.87 621.26 L938.69 566.33 Z" fill="#37fb7b" stroke="#37fb7b"/><path d="M870.47 678.80 L870.47 678.80 L900.59 736.52 L932.45 676.08 Z" fill="#37fb82" stroke="#37fb82"/><path d="M866.10 792.67 L866.10 792.67 L890.02 848.18 L926.57 793.54 Z" fill="#37fa79" stroke="#37fa79"/><path d="M863.86 899.71 L863.86 899.71 L902.37 952.82 L925.09 902.05 Z" fill="#37fb8b" stroke="#37fb8b"/><path d="M871.02 1002.20 L871.02 1002.20 L900.86 1049.42 L932.97 1000.31 Z" fill="#37f96e" stroke="#37f96e"/><path d="M919.99 43.58 L919.99 43.58 L952.55 99.02 L980.16 50.07 Z" fill="#37fb83" stroke="#37fb83"/><path d="M928.05 150.88 L928.05 150.88 L961.00 197.06 L991.54 148.72 Z" fill="#37fc83" stroke="#37fc83"/><path d="M930.87 242.88 L930.87 242.88 L966.01 297.63 L991.53 243.47 Z" fill="#37fa81" stroke="#37fa81"/><path d="M939.29 354.58 L939.29 354.58 L968.44 402.85 L1002.54 349.57 Z" fill="#37fc80" stroke="#37fc80"/><path d="M937.07 452.66 L937.07 452.66 L969.87 509.48 L997.56 456.68 Z" fill="#37fb84" stroke="#37fb84"/><path d="M938.69 566.33 L938.69 566.33 L966.14 618.51 L1002.25 562.31 Z" fill="#37f980" stroke="#37f980"/><path d="M932.45 676.08 L932.45 676.08 L962.21 734.54 L994.57 674.77 Z" fill="#37fb81" stroke="#37fb81"/><path d="M926.57 793.54 L926.57 793.54 L949.65 852.88 L988.05 793.67 Z" fill="#37fb81" stroke="#37fb81"/><path d="M925.09 902.05 L925.09 902.05 L964.95 951.19 L984.65 905.05 Z" fill="#37fb81" stroke="#37fb81"/><path d="M932.97 1000.31 L932.97 1000.31 L961.68 1047.34 L994.46 997.80 Z" fill="#37fb84" stroke="#37fb84"/><path d="M980.16 50.07 L980.16 50.07 L1013.67 103.99 L1040.08 57.33 Z" fill="#37fb77" stroke="#37fb77"/><path d="M991.54 148.72 L991.54 148.72 L1023.86 195.09 L1055.22 145.34 Z" fill="#37fb73" stroke="#37fb73"/><path d="M991.53 243.47 L991.53 243.47 L1028.43 295.06 L1052.28 245.76 Z" fill="#37fca3" stroke="#37fca3"/><path d="M1002.54 349.57 L1002.54 349.57 L1030.13 403.72 L1066.33 343.21 Z" fill="#37fa71" stroke="#37fa71"/><path d="M997.56 456.68 L997.56 456.68 L1033.01 508.30 L1057.93 461.65 Z" fill="#37fc85" stroke="#37fc85"/><path d="M1002.25 562.31 L1002.25 562.31 L1028.61 617.44 L1066.13 558.41 Z" fill="#37fb7b" stroke="#37fb7b"/><path d="M994.57 674.77 L994.57 674.77 L1025.68 731.02 L1056.67 674.21 Z" fill="#37fb73" stroke="#37fb73"/><path d="M988.05 793.67 L988.05 793.67 L1008.24 859.76 L1049.82 793.60 Z" fill="#37fc86" stroke="#37fc86"/><path d="M984.65 905.05 L984.65 905.05 L1025.20 947.44 L1043.69 908.10 Z" fill="#37fa75" stroke="#37fa75"/><path d="M994.46 997.80 L994.46 997.80 L1023.92 1046.41 L1055.72 995.82 Z" fill="#37fc95" stroke="#37fc95"/></svg>