<svg xmlns="http://www.w3.org/2000/svg" width="1024" height="786"><path d="M-161.76 -113.13 L-161.76 -113.13 L-87.57 -142.98 L-0.57 -84.75 L13.14 -11.92 L-57.84 15.52 L-147.92 -38.71 Z" fill="#be5e86" stroke="#be5e86"/><path d="M-122.09 110.74 L-122.09 110.74 L-45.61 83.53 L39.64 132.11 L49.76 193.34 L-24.57 219.42 L-112.58 175.57 Z" fill="#9d3964" stroke="#9d3964"/><path d="M-99.19 308.00 L-99.19 308.00 L-18.03 278.49 L64.43 315.77 L67.14 369.79 L-12.58 401.11 L-96.78 367.40 Z" fill="#ec6495" stroke="#ec6495"/><path d="M-100.35 495.26 L-100.35 495.26 L-14.35 457.69 L63.14 486.00 L56.98 542.05 L-26.87 583.98 L-105.94 556.14 Z" fill="#fc8fb1" stroke="#fc8fb1"/><path d="M-125.15 694.41 L-125.15 694.41 L-36.15 646.16 L36.43 672.13 L24.41 737.88 L-61.57 790.69 L-136.78 762.85 Z" fill="#b94c81" stroke="#b94c81"/><path d="M-0.57 -84.75 L-0.57 -84.75 L66.27 -114.52 L144.94 -57.61 L157.82 14.36 L95.09 41.24 L13.14 -11.92 Z" fill="#b24d76" stroke="#b24d76"/><path d="M39.64 132.11 L39.64 132.11 L107.46 107.03 L184.00 154.40 L194.60 212.43 L129.70 235.48 L49.76 193.34 Z" fill="#a33565" stroke="#a33565"/><path d="M64.43 315.77 L64.43 315.77 L136.93 289.79 L210.78 324.54 L213.90 372.51 L143.07 400.26 L67.14 369.79 Z" fill="#f36392" stroke="#f36392"/><path d="M63.14 486.00 L63.14 486.00 L141.07 451.06 L209.31 475.60 L202.42 526.56 L127.20 566.70 L56.98 542.05 Z" fill="#ff9ab9" stroke="#ff9ab9"/><path d="M36.43 672.13 L36.43 672.13 L117.29 625.19 L180.71 649.10 L168.72 712.80 L91.38 764.46 L24.41 737.88 Z" fill="#b44276" stroke="#b44276"/><path d="M-4.62 892.42 L-4.62 892.42 L78.11 835.56 L141.20 865.11 L128.19 942.52 L48.42 1002.53 L-18.96 970.19 Z" fill="#d56a91" stroke="#d56a91"/><path d="M144.94 -57.61 L144.94 -57.61 L204.80 -88.60 L274.62 -33.72 L285.39 38.25 L230.66 66.16 L157.82 14.36 Z" fill="#ad2f56" stroke="#ad2f56"/><path d="M184.00 154.40 L184.00 154.40 L242.43 130.63 L308.85 176.60 L319.26 232.44 L265.18 252.98 L194.60 212.43 Z" fill="#d2497f" stroke="#d2497f"/><path d="M210.78 324.54 L210.78 324.54 L273.18 302.52 L336.91 334.73 L340.66 375.76 L280.32 399.28 L213.90 372.51 Z" fill="#b9426a" stroke="#b9426a"/><path d="M209.31 475.60 L209.31 475.60 L277.96 443.44 L335.19 463.65 L327.47 509.58 L262.49 548.07 L202.42 526.56 Z" fill="#f362a1" stroke="#f362a1"/><path d="M180.71 649.10 L180.71 649.10 L252.19 603.43 L305.75 626.47 L294.85 689.23 L227.22 739.27 L168.72 712.80 Z" fill="#a33862" stroke="#a33862"/><path d="M141.20 865.11 L141.20 865.11 L215.20 809.81 L271.56 841.27 L261.12 918.99 L189.56 976.71 L128.19 942.52 Z" fill="#c8476d" stroke="#c8476d"/><path d="M274.62 -33.72 L274.62 -33.72 L328.86 -67.72 L390.07 -16.17 L396.84 56.45 L348.31 87.84 L285.39 38.25 Z" fill="#b1437e" stroke="#b1437e"/><path d="M308.85 176.60 L308.85 176.60 L357.83 152.20 L412.79 195.72 L420.83 251.21 L378.47 271.44 L319.26 232.44 Z" fill="#b64e73" stroke="#b64e73"/><path d="M336.91 334.73 L336.91 334.73 L386.97 316.98 L437.76 346.88 L442.53 379.95 L395.56 398.06 L340.66 375.76 Z" fill="#c46e81" stroke="#c46e81"/><path d="M335.19 463.65 L335.19 463.65 L392.58 434.30 L435.77 449.86 L427.95 492.13 L375.80 528.83 L327.47 509.58 Z" fill="#b04b6d" stroke="#b04b6d"/><path d="M305.75 626.47 L305.75 626.47 L366.22 582.47 L410.55 607.39 L403.02 670.52 L345.62 717.64 L294.85 689.23 Z" fill="#b03371" stroke="#b03371"/><path d="M271.56 841.27 L271.56 841.27 L336.49 788.52 L388.19 823.91 L381.88 902.29 L318.00 956.57 L261.12 918.99 Z" fill="#e86590" stroke="#e86590"/><path d="M390.07 -16.17 L390.07 -16.17 L441.60 -55.08 L496.07 -8.47 L497.04 64.67 L450.30 102.01 L396.84 56.45 Z" fill="#a2346b" stroke="#a2346b"/><path d="M412.79 195.72 L412.79 195.72 L454.84 167.14 L499.43 205.40 L500.76 261.73 L466.15 287.41 L420.83 251.21 Z" fill="#9f436c" stroke="#9f436c"/><path d="M437.76 346.88 L437.76 346.88 L472.25 331.86 L504.53 358.16 L507.29 386.36 L481.76 396.33 L442.53 379.95 Z" fill="#a64a72" stroke="#a64a72"/><path d="M435.77 449.86 L435.77 449.86 L477.68 423.03 L503.91 438.32 L502.07 480.88 L464.50 512.86 L427.95 492.13 Z" fill="#ae426f" stroke="#ae426f"/><path d="M410.55 607.39 L410.55 607.39 L459.11 566.91 L499.08 597.94 L497.94 661.78 L449.06 703.69 L403.02 670.52 Z" fill="#c03779" stroke="#c03779"/><path d="M388.19 823.91 L388.19 823.91 L444.94 775.29 L495.80 816.34 L494.91 895.15 L436.93 944.69 L381.88 902.29 Z" fill="#fa6898" stroke="#fa6898"/><path d="M496.07 -8.47 L496.07 -8.47 L549.15 -53.30 L600.67 -12.61 L595.53 60.23 L544.46 104.08 L497.04 64.67 Z" fill="#b54076" stroke="#b54076"/><path d="M499.43 205.40 L499.43 205.40 L541.98 169.41 L583.18 200.07 L576.71 255.82 L535.63 290.28 L500.76 261.73 Z" fill="#a74979" stroke="#a74979"/><path d="M504.53 358.16 L504.53 358.16 L531.94 335.12 L561.67 350.94 L556.55 381.59 L524.08 395.51 L507.29 386.36 Z" fill="#983a6b" stroke="#983a6b"/><path d="M503.91 438.32 L503.91 438.32 L528.14 419.66 L563.62 445.49 L570.72 487.40 L536.59 510.09 L502.07 480.88 Z" fill="#b13a73" stroke="#b13a73"/><path d="M499.08 597.94 L499.08 597.94 L539.63 564.44 L584.94 603.12 L590.80 666.53 L545.13 701.66 L497.94 661.78 Z" fill="#cc3b74" stroke="#cc3b74"/><path d="M495.80 816.34 L495.80 816.34 L547.35 773.41 L602.09 820.41 L606.84 898.97 L551.65 943.04 L494.91 895.15 Z" fill="#df417e" stroke="#df417e"/><path d="M600.67 -12.61 L600.67 -12.61 L659.51 -62.81 L712.53 -27.48 L702.77 44.64 L642.92 93.23 L595.53 60.23 Z" fill="#d05689" stroke="#d05689"/><path d="M583.18 200.07 L583.18 200.07 L634.61 157.79 L680.99 183.03 L670.96 238.54 L615.79 276.95 L576.71 255.82 Z" fill="#e57ea3" stroke="#e57ea3"/><path d="M561.67 350.94 L561.67 350.94 L607.45 321.72 L653.07 338.24 L649.06 376.91 L598.35 397.61 L556.55 381.59 Z" fill="#a63f6d" stroke="#a63f6d"/><path d="M563.62 445.49 L563.62 445.49 L601.62 431.07 L654.89 459.60 L662.81 504.14 L618.31 523.23 L570.72 487.40 Z" fill="#d53d84" stroke="#d53d84"/><path d="M584.94 603.12 L584.94 603.12 L627.12 576.78 L683.92 620.00 L694.09 682.75 L645.24 712.31 L590.80 666.53 Z" fill="#d83b64" stroke="#d83b64"/><path d="M602.09 820.41 L602.09 820.41 L653.05 783.41 L715.28 835.09 L724.63 912.99 L668.64 951.92 L606.84 898.97 Z" fill="#ff70ad" stroke="#ff70ad"/><path d="M712.53 -27.48 L712.53 -27.48 L779.62 -81.50 L837.55 -49.80 L825.15 22.08 L755.30 73.33 L702.77 44.64 Z" fill="#ed82ad" stroke="#ed82ad"/><path d="M680.99 183.03 L680.99 183.03 L743.99 137.63 L799.46 161.31 L788.80 218.53 L721.46 258.61 L670.96 238.54 Z" fill="#e56699" stroke="#e56699"/><path d="M653.07 338.24 L653.07 338.24 L713.23 306.77 L772.12 327.50 L768.85 373.44 L705.69 398.94 L649.06 376.91 Z" fill="#e65f8d" stroke="#e65f8d"/><path d="M654.89 459.60 L654.89 459.60 L708.21 440.83 L773.67 472.12 L780.81 521.50 L724.18 542.14 L662.81 504.14 Z" fill="#ef6796" stroke="#ef6796"/><path d="M683.92 620.00 L683.92 620.00 L734.45 596.77 L802.73 642.01 L814.55 705.28 L758.57 732.08 L694.09 682.75 Z" fill="#ff63a4" stroke="#ff63a4"/><path d="M715.28 835.09 L715.28 835.09 L769.91 802.64 L841.12 857.29 L853.50 934.73 L793.72 969.80 L724.63 912.99 Z" fill="#ffa1d5" stroke="#ffa1d5"/><path d="M837.55 -49.80 L837.55 -49.80 L913.53 -106.18 L978.16 -76.20 L964.60 -3.72 L885.34 49.06 L825.15 22.08 Z" fill="#f171ab" stroke="#f171ab"/><path d="M799.46 161.31 L799.46 161.31 L873.05 114.34 L938.05 138.89 L927.75 199.07 L850.53 240.71 L788.80 218.53 Z" fill="#fc66a5" stroke="#fc66a5"/><path d="M772.12 327.50 L772.12 327.50 L843.07 293.53 L912.64 318.34 L909.83 370.58 L836.65 399.98 L768.85 373.44 Z" fill="#f95e85" stroke="#f95e85"/><path d="M773.67 472.12 L773.67 472.12 L838.75 448.85 L913.98 482.94 L920.35 537.45 L853.09 561.11 L780.81 521.50 Z" fill="#d1687d" stroke="#d1687d"/><path d="M802.73 642.01 L802.73 642.01 L863.16 618.55 L941.30 665.10 L953.37 730.13 L889.01 756.52 L814.55 705.28 Z" fill="#c25980" stroke="#c25980"/><path d="M841.12 857.29 L841.12 857.29 L902.03 827.35 L982.14 883.79 L996.17 961.38 L930.74 994.14 L853.50 934.73 Z" fill="#ff66a5" stroke="#ff66a5"/><path d="M978.16 -76.20 L978.16 -76.20 L1062.67 -134.07 L1134.60 -104.36 L1120.75 -30.49 L1033.06 23.42 L964.60 -3.72 Z" fill="#cd5d94" stroke="#cd5d94"/><path d="M938.05 138.89 L938.05 138.89 L1020.75 90.68 L1094.66 117.19 L1084.96 180.89 L999.32 224.21 L927.75 199.07 Z" fill="#d05d96" stroke="#d05d96"/><path d="M912.64 318.34 L912.64 318.34 L992.58 281.83 L1071.20 310.30 L1068.71 368.10 L986.94 400.86 L909.83 370.58 Z" fill="#b65b7a" stroke="#b65b7a"/><path d="M913.98 482.94 L913.98 482.94 L988.77 455.74 L1072.40 492.51 L1078.14 551.94 L1001.68 578.81 L920.35 537.45 Z" fill="#f75f80" stroke="#f75f80"/><path d="M941.30 665.10 L941.30 665.10 L1011.15 639.83 L1097.77 687.67 L1109.53 755.24 L1036.81 782.61 L953.37 730.13 Z" fill="#f8557a" stroke="#f8557a"/><path d="M982.14 883.79 L982.14 883.79 L1050.37 854.61 L1138.73 912.26 L1153.49 990.67 L1081.52 1022.49 L996.17 961.38 Z" fill="#ff5389" stroke="#ff5389"/><path d="M-57.84 15.52 L-57.84 15.52 L13.14 -11.92 L95.09 41.24 L107.46 107.03 L39.64 132.11 L-45.61 83.53 Z" fill="#b55e86" stroke="#b55e86"/><path d="M-24.57 219.42 L-24.57 219.42 L49.76 193.34 L129.70 235.48 L136.93 289.79 L64.43 315.77 L-18.03 278.49 Z" fill="#bb5588" stroke="#bb5588"/><path d="M-12.58 401.11 L-12.58 401.11 L67.14 369.79 L143.07 400.26 L141.07 451.06 L63.14 486.00 L-14.35 457.69 Z" fill="#dc7198" stroke="#dc7198"/><path d="M-26.87 583.98 L-26.87 583.98 L56.98 542.05 L127.20 566.70 L117.29 625.19 L36.43 672.13 L-36.15 646.16 Z" fill="#b45780" stroke="#b45780"/><path d="M-61.57 790.69 L-61.57 790.69 L24.41 737.88 L91.38 764.46 L78.11 835.56 L-4.62 892.42 L-75.17 863.20 Z" fill="#b05d85" stroke="#b05d85"/><path d="M-106.71 1031.70 L-106.71 1031.70 L-18.96 970.19 L48.42 1002.53 L34.51 1086.16 L-50.57 1150.46 L-121.97 1115.56 Z" fill="#f379a8" stroke="#f379a8"/><path d="M95.09 41.24 L95.09 41.24 L157.82 14.36 L230.66 66.16 L242.43 130.63 L184.00 154.40 L107.46 107.03 Z" fill="#c04772" stroke="#c04772"/><path d="M129.70 235.48 L129.70 235.48 L194.60 212.43 L265.18 252.98 L273.18 302.52 L210.78 324.54 L136.93 289.79 Z" fill="#e25da0" stroke="#e25da0"/><path d="M143.07 400.26 L143.07 400.26 L213.90 372.51 L280.32 399.28 L277.96 443.44 L209.31 475.60 L141.07 451.06 Z" fill="#db527c" stroke="#db527c"/><path d="M127.20 566.70 L127.20 566.70 L202.42 526.56 L262.49 548.07 L252.19 603.43 L180.71 649.10 L117.29 625.19 Z" fill="#cd5380" stroke="#cd5380"/><path d="M91.38 764.46 L91.38 764.46 L168.72 712.80 L227.22 739.27 L215.20 809.81 L141.20 865.11 L78.11 835.56 Z" fill="#e3559d" stroke="#e3559d"/><path d="M48.42 1002.53 L48.42 1002.53 L128.19 942.52 L189.56 976.71 L177.98 1060.62 L100.44 1122.85 L34.51 1086.16 Z" fill="#ff97c4" stroke="#ff97c4"/><path d="M230.66 66.16 L230.66 66.16 L285.39 38.25 L348.31 87.84 L357.83 152.20 L308.85 176.60 L242.43 130.63 Z" fill="#be3a6a" stroke="#be3a6a"/><path d="M265.18 252.98 L265.18 252.98 L319.26 232.44 L378.47 271.44 L386.97 316.98 L336.91 334.73 L273.18 302.52 Z" fill="#c45a7f" stroke="#c45a7f"/><path d="M280.32 399.28 L280.32 399.28 L340.66 375.76 L395.56 398.06 L392.58 434.30 L335.19 463.65 L277.96 443.44 Z" fill="#c15675" stroke="#c15675"/><path d="M262.49 548.07 L262.49 548.07 L327.47 509.58 L375.80 528.83 L366.22 582.47 L305.75 626.47 L252.19 603.43 Z" fill="#c5477e" stroke="#c5477e"/><path d="M227.22 739.27 L227.22 739.27 L294.85 689.23 L345.62 717.64 L336.49 788.52 L271.56 841.27 L215.20 809.81 Z" fill="#f06da7" stroke="#f06da7"/><path d="M189.56 976.71 L189.56 976.71 L261.12 918.99 L318.00 956.57 L309.95 1041.07 L239.62 1100.31 L177.98 1060.62 Z" fill="#ff87ba" stroke="#ff87ba"/><path d="M348.31 87.84 L348.31 87.84 L396.84 56.45 L450.30 102.01 L454.84 167.14 L412.79 195.72 L357.83 152.20 Z" fill="#c74e8a" stroke="#c74e8a"/><path d="M378.47 271.44 L378.47 271.44 L420.83 251.21 L466.15 287.41 L472.25 331.86 L437.76 346.88 L386.97 316.98 Z" fill="#a64e6c" stroke="#a64e6c"/><path d="M395.56 398.06 L395.56 398.06 L442.53 379.95 L481.76 396.33 L477.68 423.03 L435.77 449.86 L392.58 434.30 Z" fill="#b65778" stroke="#b65778"/><path d="M375.80 528.83 L375.80 528.83 L427.95 492.13 L464.50 512.86 L459.11 566.91 L410.55 607.39 L366.22 582.47 Z" fill="#ab396a" stroke="#ab396a"/><path d="M345.62 717.64 L345.62 717.64 L403.02 670.52 L449.06 703.69 L444.94 775.29 L388.19 823.91 L336.49 788.52 Z" fill="#ea668a" stroke="#ea668a"/><path d="M318.00 956.57 L318.00 956.57 L381.88 902.29 L436.93 944.69 L433.53 1029.71 L369.27 1084.93 L309.95 1041.07 Z" fill="#ff82aa" stroke="#ff82aa"/><path d="M450.30 102.01 L450.30 102.01 L497.04 64.67 L544.46 104.08 L541.98 169.41 L499.43 205.40 L454.84 167.14 Z" fill="#a93f76" stroke="#a93f76"/><path d="M466.15 287.41 L466.15 287.41 L500.76 261.73 L535.63 290.28 L531.94 335.12 L504.53 358.16 L472.25 331.86 Z" fill="#983f6c" stroke="#983f6c"/><path d="M481.76 396.33 L481.76 396.33 L507.29 386.36 L524.08 395.51 L528.14 419.66 L503.91 438.32 L477.68 423.03 Z" fill="#a13e6e" stroke="#a13e6e"/><path d="M464.50 512.86 L464.50 512.86 L502.07 480.88 L536.59 510.09 L539.63 564.44 L499.08 597.94 L459.11 566.91 Z" fill="#b83971" stroke="#b83971"/><path d="M449.06 703.69 L449.06 703.69 L497.94 661.78 L545.13 701.66 L547.35 773.41 L495.80 816.34 L444.94 775.29 Z" fill="#d93e79" stroke="#d93e79"/><path d="M436.93 944.69 L436.93 944.69 L494.91 895.15 L551.65 943.04 L553.47 1028.15 L493.16 1078.52 L433.53 1029.71 Z" fill="#ff6d98" stroke="#ff6d98"/><path d="M544.46 104.08 L544.46 104.08 L595.53 60.23 L642.92 93.23 L634.61 157.79 L583.18 200.07 L541.98 169.41 Z" fill="#d15e8d" stroke="#d15e8d"/><path d="M535.63 290.28 L535.63 290.28 L576.71 255.82 L615.79 276.95 L607.45 321.72 L561.67 350.94 L531.94 335.12 Z" fill="#af4e7b" stroke="#af4e7b"/><path d="M524.08 395.51 L524.08 395.51 L556.55 381.59 L598.35 397.61 L601.62 431.07 L563.62 445.49 L528.14 419.66 Z" fill="#a4386c" stroke="#a4386c"/><path d="M536.59 510.09 L536.59 510.09 L570.72 487.40 L618.31 523.23 L627.12 576.78 L584.94 603.12 L539.63 564.44 Z" fill="#da3e82" stroke="#da3e82"/><path d="M545.13 701.66 L545.13 701.66 L590.80 666.53 L645.24 712.31 L653.05 783.41 L602.09 820.41 L547.35 773.41 Z" fill="#c34469" stroke="#c34469"/><path d="M551.65 943.04 L551.65 943.04 L606.84 898.97 L668.64 951.92 L675.37 1036.61 L616.26 1081.94 L553.47 1028.15 Z" fill="#ff7cab" stroke="#ff7cab"/><path d="M642.92 93.23 L642.92 93.23 L702.77 44.64 L755.30 73.33 L743.99 137.63 L680.99 183.03 L634.61 157.79 Z" fill="#ec78a2" stroke="#ec78a2"/><path d="M615.79 276.95 L615.79 276.95 L670.96 238.54 L721.46 258.61 L713.23 306.77 L653.07 338.24 L607.45 321.72 Z" fill="#de7098" stroke="#de7098"/><path d="M598.35 397.61 L598.35 397.61 L649.06 376.91 L705.69 398.94 L708.21 440.83 L654.89 459.60 L601.62 431.07 Z" fill="#ba3a72" stroke="#ba3a72"/><path d="M618.31 523.23 L618.31 523.23 L662.81 504.14 L724.18 542.14 L734.45 596.77 L683.92 620.00 L627.12 576.78 Z" fill="#f54e8f" stroke="#f54e8f"/><path d="M645.24 712.31 L645.24 712.31 L694.09 682.75 L758.57 732.08 L769.91 802.64 L715.28 835.09 L653.05 783.41 Z" fill="#ac455d" stroke="#ac455d"/><path d="M668.64 951.92 L668.64 951.92 L724.63 912.99 L793.72 969.80 L804.35 1053.87 L743.67 1094.73 L675.37 1036.61 Z" fill="#ff85b2" stroke="#ff85b2"/><path d="M755.30 73.33 L755.30 73.33 L825.15 22.08 L885.34 49.06 L873.05 114.34 L799.46 161.31 L743.99 137.63 Z" fill="#e36d9e" stroke="#e36d9e"/><path d="M721.46 258.61 L721.46 258.61 L788.80 218.53 L850.53 240.71 L843.07 293.53 L772.12 327.50 L713.23 306.77 Z" fill="#e24185" stroke="#e24185"/><path d="M705.69 398.94 L705.69 398.94 L768.85 373.44 L836.65 399.98 L838.75 448.85 L773.67 472.12 L708.21 440.83 Z" fill="#ff91b0" stroke="#ff91b0"/><path d="M724.18 542.14 L724.18 542.14 L780.81 521.50 L853.09 561.11 L863.16 618.55 L802.73 642.01 L734.45 596.77 Z" fill="#f578a5" stroke="#f578a5"/><path d="M758.57 732.08 L758.57 732.08 L814.55 705.28 L889.01 756.52 L902.03 827.35 L841.12 857.29 L769.91 802.64 Z" fill="#b6466a" stroke="#b6466a"/><path d="M793.72 969.80 L793.72 969.80 L853.50 934.73 L930.74 994.14 L944.05 1077.81 L879.60 1115.29 L804.35 1053.87 Z" fill="#ea5f90" stroke="#ea5f90"/><path d="M885.34 49.06 L885.34 49.06 L964.60 -3.72 L1033.06 23.42 L1020.75 90.68 L938.05 138.89 L873.05 114.34 Z" fill="#e46ca4" stroke="#e46ca4"/><path d="M850.53 240.71 L850.53 240.71 L927.75 199.07 L999.32 224.21 L992.58 281.83 L912.64 318.34 L843.07 293.53 Z" fill="#ff589c" stroke="#ff589c"/><path d="M836.65 399.98 L836.65 399.98 L909.83 370.58 L986.94 400.86 L988.77 455.74 L913.98 482.94 L838.75 448.85 Z" fill="#bc4b5f" stroke="#bc4b5f"/><path d="M853.09 561.11 L853.09 561.11 L920.35 537.45 L1001.68 578.81 L1011.15 639.83 L941.30 665.10 L863.16 618.55 Z" fill="#be5970" stroke="#be5970"/><path d="M889.01 756.52 L889.01 756.52 L953.37 730.13 L1036.81 782.61 L1050.37 854.61 L982.14 883.79 L902.03 827.35 Z" fill="#ff5696" stroke="#ff5696"/><path d="M930.74 994.14 L930.74 994.14 L996.17 961.38 L1081.52 1022.49 L1096.45 1106.23 L1026.82 1141.56 L944.05 1077.81 Z" fill="#eb5776" stroke="#eb5776"/><path d="M1033.06 23.42 L1033.06 23.42 L1120.75 -30.49 L1197.25 -2.13 L1185.30 67.73 L1094.66 117.19 L1020.75 90.68 Z" fill="#d05b85" stroke="#d05b85"/><path d="M999.32 224.21 L999.32 224.21 L1084.96 180.89 L1165.16 209.08 L1159.02 271.32 L1071.20 310.30 L992.58 281.83 Z" fill="#af5173" stroke="#af5173"/><path d="M986.94 400.86 L986.94 400.86 L1068.71 368.10 L1153.95 401.64 L1155.58 461.85 L1072.40 492.51 L988.77 455.74 Z" fill="#cd6486" stroke="#cd6486"/><path d="M1001.68 578.81 L1001.68 578.81 L1078.14 551.94 L1167.34 595.16 L1176.18 660.01 L1097.77 687.67 L1011.15 639.83 Z" fill="#ef6c8f" stroke="#ef6c8f"/></svg>